<svg width="21" height="20" viewBox="0 0 21 20" fill="none" xmlns="http://www.w3.org/2000/svg">
<path d="M19.9998 10.625C19.9998 10.7908 19.934 10.9497 19.8167 11.067C19.6995 11.1842 19.5406 11.25 19.3748 11.25H18.1248V12.5C18.1248 12.6658 18.059 12.8247 17.9417 12.942C17.8245 13.0592 17.6656 13.125 17.4998 13.125C17.334 13.125 17.1751 13.0592 17.0579 12.942C16.9406 12.8247 16.8748 12.6658 16.8748 12.5V11.25H15.6248C15.459 11.25 15.3001 11.1842 15.1829 11.067C15.0656 10.9497 14.9998 10.7908 14.9998 10.625C14.9998 10.4593 15.0656 10.3003 15.1829 10.1831C15.3001 10.0659 15.459 10 15.6248 10H16.8748V8.75001C16.8748 8.58425 16.9406 8.42528 17.0579 8.30807C17.1751 8.19086 17.334 8.12501 17.4998 8.12501C17.6656 8.12501 17.8245 8.19086 17.9417 8.30807C18.059 8.42528 18.1248 8.58425 18.1248 8.75001V10H19.3748C19.5406 10 19.6995 10.0659 19.8167 10.1831C19.934 10.3003 19.9998 10.4593 19.9998 10.625ZM15.4787 15.2227C15.5854 15.3497 15.6373 15.5139 15.6229 15.6791C15.6086 15.8444 15.5292 15.9972 15.4021 16.1039C15.2751 16.2106 15.1109 16.2625 14.9457 16.2481C14.7804 16.2338 14.6276 16.1544 14.5209 16.0274C12.949 14.1555 10.7881 13.125 8.4373 13.125C6.08652 13.125 3.92558 14.1555 2.3537 16.0274C2.247 16.1543 2.09424 16.2336 1.92905 16.2479C1.76386 16.2622 1.59975 16.2102 1.47284 16.1035C1.34593 15.9968 1.26661 15.8441 1.25233 15.6789C1.23804 15.5137 1.28996 15.3496 1.39667 15.2227C2.56386 13.8336 4.01542 12.8469 5.6287 12.3188C4.64894 11.7085 3.89458 10.7958 3.47975 9.71866C3.06491 8.64153 3.01218 7.45858 3.32952 6.3488C3.64687 5.23903 4.31702 4.2628 5.2386 3.56781C6.16018 2.87282 7.28304 2.49689 8.4373 2.49689C9.59156 2.49689 10.7144 2.87282 11.636 3.56781C12.5576 4.2628 13.2277 5.23903 13.5451 6.3488C13.8624 7.45858 13.8097 8.64153 13.3948 9.71866C12.98 10.7958 12.2257 11.7085 11.2459 12.3188C12.8592 12.8469 14.3107 13.8336 15.4787 15.2227ZM8.4373 11.875C9.24078 11.875 10.0262 11.6368 10.6943 11.1904C11.3624 10.744 11.8831 10.1095 12.1906 9.36716C12.498 8.62484 12.5785 7.808 12.4217 7.01996C12.265 6.23191 11.8781 5.50804 11.3099 4.93989C10.7418 4.37174 10.0179 3.98482 9.22985 3.82807C8.4418 3.67132 7.62497 3.75177 6.88265 4.05925C6.14032 4.36673 5.50585 4.88743 5.05945 5.55551C4.61306 6.22358 4.3748 7.00903 4.3748 7.81251C4.37604 8.88957 4.80445 9.92216 5.56605 10.6838C6.32764 11.4454 7.36024 11.8738 8.4373 11.875Z" fill="#101010" stroke="black" stroke-width="0.8"/>
</svg>
