<svg width="20" height="20" viewBox="0 0 20 20" fill="none" xmlns="http://www.w3.org/2000/svg">
<path d="M4.1665 6.66665C4.1665 5.78259 4.51769 4.93474 5.14281 4.30962C5.76794 3.6845 6.61578 3.33331 7.49984 3.33331C8.38389 3.33331 9.23174 3.6845 9.85686 4.30962C10.482 4.93474 10.8332 5.78259 10.8332 6.66665C10.8332 7.5507 10.482 8.39855 9.85686 9.02367C9.23174 9.64879 8.38389 9.99998 7.49984 9.99998C6.61578 9.99998 5.76794 9.64879 5.14281 9.02367C4.51769 8.39855 4.1665 7.5507 4.1665 6.66665ZM1.6665 15.8932C1.6665 13.3281 3.74463 11.25 6.30973 11.25H8.68994C11.255 11.25 13.3332 13.3281 13.3332 15.8932C13.3332 16.3203 12.9868 16.6666 12.5597 16.6666H2.43994C2.01286 16.6666 1.6665 16.3203 1.6665 15.8932ZM14.7915 11.4583V9.79165H13.1248C12.7785 9.79165 12.4998 9.513 12.4998 9.16665C12.4998 8.82029 12.7785 8.54165 13.1248 8.54165H14.7915V6.87498C14.7915 6.52863 15.0701 6.24998 15.4165 6.24998C15.7629 6.24998 16.0415 6.52863 16.0415 6.87498V8.54165H17.7082C18.0545 8.54165 18.3332 8.82029 18.3332 9.16665C18.3332 9.513 18.0545 9.79165 17.7082 9.79165H16.0415V11.4583C16.0415 11.8047 15.7629 12.0833 15.4165 12.0833C15.0701 12.0833 14.7915 11.8047 14.7915 11.4583Z" fill="#344054"/>
</svg>
