<svg width="23" height="22" viewBox="0 0 23 22" fill="none" xmlns="http://www.w3.org/2000/svg">
<path fill-rule="evenodd" clip-rule="evenodd" d="M7.51251 6.163C7.74297 6.00254 7.79612 5.68379 7.63019 5.45723L3.88196 0.339402C3.73829 0.143234 3.47731 0.0793889 3.27028 0.206911C2.19378 0.869988 -0.8352 3.12354 0.317971 6.92108C1.7108 11.5078 6.32812 16.1826 6.32812 16.1826C6.32812 16.1826 13.0105 21.9998 16.1321 21.9998C17.8789 21.9998 18.8869 22.0101 20.9447 20.0304C21.0657 19.9141 21.852 18.9749 22.2586 18.4874C22.4024 18.3148 22.4021 18.0736 22.3014 17.8728C22.2991 17.8683 22.297 17.8639 22.2949 17.8596C21.685 16.5866 17.3801 14.7468 16.1465 14.2408C15.9482 14.1594 15.7239 14.218 15.5857 14.3818L14.1033 16.1397C13.7767 16.5269 13.215 16.6063 12.8104 16.3016C12.0274 15.712 10.7004 14.6349 9.30699 13.1596C7.83294 11.5988 6.38637 9.7735 5.59557 8.74345C5.25341 8.29777 5.35927 7.66222 5.82038 7.34116L7.51251 6.163Z" fill="black"/>
</svg>
