<svg width="22" height="22" viewBox="0 0 22 22" fill="none" xmlns="http://www.w3.org/2000/svg">
<path d="M11.5918 18.8752C11.3631 19.0623 11.0739 19.1662 10.7715 19.1663C10.4689 19.1663 10.179 19.0625 9.9502 18.8752H11.5918ZM10.7715 2.83325C10.8527 2.83344 10.9168 2.89753 10.917 2.97876V4.48462L11.7178 4.64673C13.8745 5.08399 15.5 6.99487 15.5 9.28149V9.95435C15.5 11.8867 16.21 13.7445 17.4883 15.1868L17.4902 15.1887L17.7559 15.4856V15.4866C17.7939 15.5292 17.8027 15.5901 17.7803 15.6399C17.7548 15.6961 17.7019 15.7286 17.6465 15.7288H3.89648C3.83602 15.7288 3.78501 15.6926 3.76465 15.6467C3.73846 15.5875 3.75224 15.5245 3.78613 15.4866L3.78711 15.4856L4.05176 15.1887L4.05371 15.1868C5.33224 13.7443 6.04199 11.8829 6.04199 9.95435V9.28149C6.04199 6.99487 7.66745 5.08399 9.82422 4.64673L10.625 4.48462V2.97876C10.6252 2.89741 10.6901 2.83325 10.7715 2.83325Z" stroke="black" stroke-width="2"/>
</svg>
