<svg width="71" height="20" viewBox="0 0 71 20" fill="none" xmlns="http://www.w3.org/2000/svg">
<path fill-rule="evenodd" clip-rule="evenodd" d="M12 3C13.1046 3 14 4.19391 14 5.66667V16.3333C14 17.8061 13.1046 19 12 19H2C0.89543 19 0 17.8061 0 16.3333V5.66667C0 4.19391 0.89543 3 2 3H12ZM20 4.33334V17.6667L15 13.6667V8.33334L20 4.33334Z" fill="#101828"/>
<path fill-rule="evenodd" clip-rule="evenodd" d="M39.5847 5.1019C39.8341 4.94202 39.8906 4.6015 39.7061 4.36963L36.4728 0.305824C36.3299 0.126131 36.0849 0.0673492 35.8856 0.181343C34.9109 0.738715 32.2651 2.57824 33.2826 5.6627C34.5206 9.4155 38.6247 13.2403 38.6247 13.2403C38.6247 13.2403 44.5642 17.9998 47.3389 17.9998C48.8915 17.9998 49.7874 18.0083 51.6165 16.3885C51.7234 16.2939 52.4155 15.5331 52.7785 15.1324C52.9075 14.9901 52.9053 14.7828 52.8166 14.6124C52.2774 13.5763 48.4882 12.0813 47.3692 11.6582C47.1804 11.5868 46.9699 11.6396 46.8335 11.7884L45.5807 13.1559C45.2586 13.5075 44.7347 13.5805 44.3435 13.3079C43.6426 12.8194 42.4858 11.9496 41.2724 10.7669C40.0544 9.57975 38.8575 8.20558 38.1304 7.34098C37.7488 6.88727 37.8599 6.20733 38.359 5.88744L39.5847 5.1019Z" fill="black"/>
<path fill-rule="evenodd" clip-rule="evenodd" d="M67 5V1H71V5H67ZM67 12.0596V8.05957H71V12.0596H67ZM67 19.1201V15.1201H71V19.1201H67Z" fill="#101828"/>
</svg>
