<svg width="20" height="20" viewBox="0 0 20 20" fill="none" xmlns="http://www.w3.org/2000/svg">
<path d="M10.2119 2.66675C10.2313 2.66691 10.2437 2.67758 10.248 2.68628L10.25 2.69019L12.3428 6.99683L12.5732 7.47144L13.0957 7.54858L17.7734 8.23901C17.7877 8.24185 17.8007 8.25173 17.8066 8.26929C17.8083 8.27435 17.8094 8.28105 17.8076 8.28882L17.7959 8.30933L14.4043 11.6658L14.0342 12.031L14.1211 12.5437L14.9248 17.283V17.2839C14.9268 17.2967 14.9226 17.3158 14.9033 17.3298C14.9 17.3322 14.8941 17.334 14.8867 17.3347L14.8584 17.3289L10.6855 15.1013L10.2148 14.8494L9.74414 15.1013L5.57129 17.3289C5.55477 17.3374 5.53452 17.336 5.52051 17.3259C5.51586 17.3226 5.51135 17.3167 5.50781 17.3083C5.50422 17.2996 5.50271 17.2901 5.50391 17.283L6.30469 12.5427L6.3916 12.031L6.02246 11.6658L2.62988 8.30933C2.62652 8.306 2.62327 8.29984 2.62109 8.29077C2.61894 8.28155 2.61908 8.27188 2.62207 8.26245C2.62322 8.25888 2.62585 8.25382 2.63184 8.24878C2.63739 8.24417 2.6442 8.24064 2.65234 8.23901L7.32715 7.54858L7.84961 7.47144L8.08008 6.99683L10.1729 2.69116C10.1777 2.68227 10.1836 2.67629 10.1895 2.67261C10.1956 2.6688 10.203 2.66675 10.2119 2.66675Z" stroke="black" stroke-width="2"/>
</svg>
