<svg width="20" height="20" viewBox="0 0 20 20" fill="none" xmlns="http://www.w3.org/2000/svg">
<path d="M6.52002 3.56771L6.18148 4.58333H3.74984C2.60075 4.58333 1.6665 5.51758 1.6665 6.66667V15C1.6665 16.1491 2.60075 17.0833 3.74984 17.0833H16.2498C17.3989 17.0833 18.3332 16.1491 18.3332 15V6.66667C18.3332 5.51758 17.3989 4.58333 16.2498 4.58333H13.8182L13.4797 3.56771C13.2681 2.92969 12.6724 2.5 11.9985 2.5H8.00114C7.32731 2.5 6.73161 2.92969 6.52002 3.56771ZM9.99984 7.70833C10.8286 7.70833 11.6235 8.03757 12.2095 8.62362C12.7956 9.20968 13.1248 10.0045 13.1248 10.8333C13.1248 11.6621 12.7956 12.457 12.2095 13.043C11.6235 13.6291 10.8286 13.9583 9.99984 13.9583C9.17104 13.9583 8.37618 13.6291 7.79013 13.043C7.20408 12.457 6.87484 11.6621 6.87484 10.8333C6.87484 10.0045 7.20408 9.20968 7.79013 8.62362C8.37618 8.03757 9.17104 7.70833 9.99984 7.70833Z" fill="#344054"/>
</svg>
