<svg width="208" height="138" viewBox="0 0 208 138" fill="none" xmlns="http://www.w3.org/2000/svg">
<path d="M158 50C158 52.2091 156.209 54 154 54C151.791 54 150 52.2091 150 50C150 47.7909 151.791 46 154 46C156.209 46 158 47.7909 158 50ZM151.529 50C151.529 51.3649 152.635 52.4714 154 52.4714C155.365 52.4714 156.471 51.3649 156.471 50C156.471 48.6351 155.365 47.5286 154 47.5286C152.635 47.5286 151.529 48.6351 151.529 50Z" fill="#C7D7FE"/>
<path d="M27 104.5C27 109.194 23.1944 113 18.5 113C13.8056 113 10 109.194 10 104.5C10 99.8056 13.8056 96 18.5 96C23.1944 96 27 99.8056 27 104.5ZM13.2483 104.5C13.2483 107.4 15.5996 109.752 18.5 109.752C21.4004 109.752 23.7517 107.4 23.7517 104.5C23.7517 101.6 21.4004 99.2483 18.5 99.2483C15.5996 99.2483 13.2483 101.6 13.2483 104.5Z" fill="#C7D7FE"/>
<path d="M8 10C8 12.2091 6.20914 14 4 14C1.79086 14 0 12.2091 0 10C0 7.79086 1.79086 6 4 6C6.20914 6 8 7.79086 8 10ZM1.52861 10C1.52861 11.3649 2.63509 12.4714 4 12.4714C5.36491 12.4714 6.47139 11.3649 6.47139 10C6.47139 8.63509 5.36491 7.52861 4 7.52861C2.63509 7.52861 1.52861 8.63509 1.52861 10Z" fill="#E0EAFF"/>
<path d="M208 70C208 72.2091 206.209 74 204 74C201.791 74 200 72.2091 200 70C200 67.7909 201.791 66 204 66C206.209 66 208 67.7909 208 70ZM201.529 70C201.529 71.3649 202.635 72.4714 204 72.4714C205.365 72.4714 206.471 71.3649 206.471 70C206.471 68.6351 205.365 67.5286 204 67.5286C202.635 67.5286 201.529 68.6351 201.529 70Z" fill="#C7D7FE"/>
<path d="M65 54C65 57.3137 62.3137 60 59 60C55.6863 60 53 57.3137 53 54C53 50.6863 55.6863 48 59 48C62.3137 48 65 50.6863 65 54ZM55.2929 54C55.2929 56.0474 56.9526 57.7071 59 57.7071C61.0474 57.7071 62.7071 56.0474 62.7071 54C62.7071 51.9526 61.0474 50.2929 59 50.2929C56.9526 50.2929 55.2929 51.9526 55.2929 54Z" fill="#EEF4FF"/>
<path d="M47.6602 137.5H39L43.3301 130L47.6602 137.5ZM40.7324 136.5H45.9277L43.3301 132L40.7324 136.5Z" fill="#E0EAFF"/>
<path d="M197.66 7.5H189L193.33 0L197.66 7.5ZM190.732 6.5H195.928L193.33 2L190.732 6.5Z" fill="#E0EAFF"/>
<path d="M107.66 17.5H99L103.33 10L107.66 17.5ZM100.732 16.5H105.928L103.33 12L100.732 16.5Z" fill="#EEF4FF"/>
<path d="M172.841 128.996L157.592 137.21L158.103 119.897L172.841 128.996ZM159.692 133.807L168.842 128.879L159.999 123.419L159.692 133.807Z" fill="#EEF4FF"/>
</svg>
