<svg width="20" height="20" viewBox="0 0 20 20" fill="none" xmlns="http://www.w3.org/2000/svg">
<path d="M9.79167 10.0001C10.8967 10.0001 11.9565 9.56109 12.7379 8.77969C13.5193 7.99829 13.9583 6.93848 13.9583 5.83341C13.9583 4.72835 13.5193 3.66854 12.7379 2.88714C11.9565 2.10573 10.8967 1.66675 9.79167 1.66675C8.6866 1.66675 7.62679 2.10573 6.84539 2.88714C6.06399 3.66854 5.625 4.72835 5.625 5.83341C5.625 6.93848 6.06399 7.99829 6.84539 8.77969C7.62679 9.56109 8.6866 10.0001 9.79167 10.0001ZM8.30404 11.5626C5.09766 11.5626 2.5 14.1602 2.5 17.3666C2.5 17.9005 2.93294 18.3334 3.4668 18.3334H16.1165C16.6504 18.3334 17.0833 17.9005 17.0833 17.3666C17.0833 14.1602 14.4857 11.5626 11.2793 11.5626H8.30404Z" fill="#344054"/>
</svg>
