<svg width="20" height="20" viewBox="0 0 20 20" fill="none" xmlns="http://www.w3.org/2000/svg">
<path d="M11.1491 2.25269C10.9766 1.89461 10.612 1.66675 10.2116 1.66675C9.8112 1.66675 9.44988 1.89461 9.27409 2.25269L7.181 6.55933L2.50652 7.24943C2.11589 7.30802 1.79037 7.58146 1.66993 7.95581C1.54949 8.33016 1.64714 8.74357 1.92709 9.02026L5.31902 12.3764L4.51824 17.1192C4.45313 17.5098 4.61589 17.907 4.93816 18.1381C5.26042 18.3692 5.68685 18.3985 6.03842 18.213L10.2148 15.9832L14.3913 18.213C14.7428 18.3985 15.1693 18.3725 15.4915 18.1381C15.8138 17.9037 15.9766 17.5098 15.9115 17.1192L15.1074 12.3764L18.4994 9.02026C18.7793 8.74357 18.8802 8.33016 18.7565 7.95581C18.6328 7.58146 18.3106 7.30802 17.9199 7.24943L13.2422 6.55933L11.1491 2.25269Z" fill="#344054"/>
</svg>
