<svg width="28" height="28" viewBox="0 0 28 28" fill="none" xmlns="http://www.w3.org/2000/svg">
<mask id="mask0_18667_13898" style="mask-type:luminance" maskUnits="userSpaceOnUse" x="2" y="1" width="25" height="26">
<path fill-rule="evenodd" clip-rule="evenodd" d="M2.33337 1.16699H26.2498V26.2562H2.33337V1.16699Z" fill="white"/>
</mask>
<g mask="url(#mask0_18667_13898)">
<path fill-rule="evenodd" clip-rule="evenodd" d="M16.003 17.8399C17.4076 17.8399 18.551 18.975 18.551 20.3704V23.959C18.551 24.2589 18.7913 24.4992 19.0993 24.5062H21.323C23.0753 24.5062 24.4998 23.0992 24.4998 21.3702V11.1922C24.4916 10.5972 24.2081 10.0372 23.7216 9.66504L16.0298 3.53071C14.9973 2.71287 13.553 2.71287 12.517 3.53304L4.87763 9.66271C4.37246 10.0465 4.08896 10.6065 4.08313 11.212V21.3702C4.08313 23.0992 5.50763 24.5062 7.25996 24.5062H9.50463C9.8208 24.5062 10.0775 24.2554 10.0775 23.9474C10.0775 23.8797 10.0856 23.812 10.0996 23.7479V20.3704C10.0996 18.9832 11.236 17.8492 12.6301 17.8399H16.003ZM21.323 26.2562H19.0783C17.7926 26.2259 16.801 25.2167 16.801 23.959V20.3704C16.801 19.9399 16.4428 19.5899 16.003 19.5899H12.636C12.2055 19.5922 11.8496 19.9434 11.8496 20.3704V23.9474C11.8496 24.0349 11.838 24.1189 11.8135 24.1982C11.6875 25.3532 10.7005 26.2562 9.50463 26.2562H7.25996C4.5428 26.2562 2.33313 24.064 2.33313 21.3702V11.2039C2.3448 10.0442 2.87913 8.98254 3.80196 8.28371L11.4261 2.16454C13.105 0.83454 15.4441 0.83454 17.1195 2.16221L24.7985 8.28721C25.7003 8.97437 26.2346 10.0337 26.2498 11.1794V21.3702C26.2498 24.064 24.0401 26.2562 21.323 26.2562Z" fill="#101323"/>
</g>
</svg>
