<svg width="237" height="240" viewBox="0 0 237 240" fill="none" xmlns="http://www.w3.org/2000/svg">
<g opacity="0.25">
<g opacity="0.41">
<path d="M224.644 148.3C224.845 144.768 224.755 141.219 224.364 137.706C222.527 121.196 214.211 105.628 201.97 94.6431C197.603 90.724 192.634 87.2135 189.792 82.0406C185.006 73.3288 185.368 63.3169 179.428 54.7157C173.482 46.1041 164.815 39.3886 155.042 35.9397C125.902 25.6565 85.1043 42.4001 88.7777 78.1566C88.7907 78.2847 88.8051 78.4714 88.8209 78.7075C89.3095 86.1347 83.5852 92.3795 76.3007 92.5555C49.4149 93.2051 26.2721 114.316 21.3201 141.058C18.1352 158.255 23.3503 177.106 35.7025 189.272C44.9231 198.353 57.2941 203.342 69.6718 206.77C94.4885 213.644 120.604 215.085 146.193 212.457C170.145 209.996 195.411 202.983 210.902 184.216C219.165 174.203 223.899 161.365 224.644 148.3Z" fill="#444CE7"/>
</g>
<g opacity="0.31">
<path d="M217.397 35.5187C218.898 30.4176 216.055 25.0431 211.046 23.5143C206.037 21.9856 200.76 24.8815 199.258 29.9826C197.757 35.0837 200.6 40.4583 205.609 41.987C210.618 43.5157 215.895 40.6198 217.397 35.5187Z" fill="#444CE7"/>
</g>
<g opacity="0.31">
<path d="M192.822 22.5273C193.162 24.346 191.989 26.1013 190.203 26.4474C188.417 26.7934 186.693 25.5993 186.354 23.7805C186.014 21.9617 187.186 20.2065 188.972 19.8604C190.759 19.5143 192.483 20.7085 192.822 22.5273Z" fill="#444CE7"/>
</g>
<g opacity="0.31">
<path d="M75.38 42.4739C75.9399 40.0593 74.4718 37.6397 72.1009 37.0696C69.7299 36.4995 67.354 37.9948 66.7941 40.4094C66.2342 42.8241 67.7024 45.2436 70.0733 45.8137C72.4442 46.3838 74.8201 44.8886 75.38 42.4739Z" fill="#444CE7"/>
</g>
<g opacity="0.31">
<path d="M31.9083 215.508C32.8215 211.543 30.4052 207.574 26.5115 206.644C22.6178 205.715 18.721 208.176 17.8079 212.141C16.8947 216.107 19.311 220.075 23.2047 221.005C27.0984 221.935 30.9952 219.474 31.9083 215.508Z" fill="#444CE7"/>
</g>
</g>
<path opacity="0.58" d="M40.0227 34.638C41.2157 34.638 42.1827 33.6532 42.1827 32.4385C42.1827 31.2237 41.2157 30.2389 40.0227 30.2389C38.8298 30.2389 37.8627 31.2237 37.8627 32.4385C37.8627 33.6532 38.8298 34.638 40.0227 34.638Z" fill="#FFA000"/>
<path opacity="0.58" d="M11.7124 144.053C11.7124 144.534 11.3289 144.925 10.8556 144.925C10.3823 144.925 9.99878 144.534 9.99878 144.053C9.99878 143.571 10.3823 143.18 10.8556 143.18C11.3289 143.18 11.7124 143.571 11.7124 144.053Z" fill="#FFA000"/>
<path opacity="0.58" d="M223.891 53.7933C223.891 54.2752 223.508 54.6658 223.035 54.6658C222.561 54.6658 222.178 54.2752 222.178 53.7933C222.178 53.3113 222.561 52.9208 223.035 52.9208C223.508 52.9208 223.891 53.3118 223.891 53.7933Z" fill="#FFA000"/>
<path opacity="0.58" d="M24.6463 18.1838C24.6463 18.6658 24.2628 19.0563 23.7895 19.0563C23.3162 19.0563 22.9327 18.6658 22.9327 18.1838C22.9327 17.7019 23.3162 17.3113 23.7895 17.3113C24.2628 17.3113 24.6463 17.7019 24.6463 18.1838Z" fill="#444CE7"/>
<path opacity="0.58" d="M225.605 111.99C225.605 112.472 225.221 112.863 224.748 112.863C224.275 112.863 223.891 112.472 223.891 111.99C223.891 111.508 224.275 111.118 224.748 111.118C225.221 111.118 225.605 111.508 225.605 111.99Z" fill="#444CE7"/>
<path opacity="0.58" d="M99.3506 18.1838C99.3506 18.6658 98.967 19.0563 98.4938 19.0563C98.0205 19.0563 97.637 18.6658 97.637 18.1838C97.637 17.7019 98.0205 17.3113 98.4938 17.3113C98.967 17.3113 99.3506 17.7019 99.3506 18.1838Z" fill="#444CE7"/>
<path opacity="0.58" d="M158.678 21.3776C158.379 22.8044 157 23.7135 155.6 23.409C154.199 23.1045 153.306 21.7007 153.605 20.2744C153.904 18.8476 155.282 17.9384 156.683 18.243C158.084 18.5475 158.977 19.9508 158.678 21.3776Z" fill="#FFA000"/>
<g opacity="0.25">
<g opacity="0.47">
<path d="M33.6134 47.2655C31.3428 42.9553 26.0711 41.3355 21.8385 43.6484C17.6064 45.9609 13.0757 52.9369 15.3463 57.2471C17.6169 61.5573 24.3702 58.1665 29.1729 58.2237C35.8715 58.3039 35.8844 51.5761 33.6134 47.2655Z" fill="#444CE7"/>
</g>
<g opacity="0.47">
<path d="M223.666 178.279C226.67 173.413 227.423 167.377 226.798 161.665C226.176 155.989 224.469 150.033 222.084 144.871C219.823 139.979 216.551 135.615 215.619 130.165C214.387 122.965 217.614 116.044 218.363 108.982C219.854 94.9217 210.524 82.5333 198.95 75.8437C189.549 70.4103 178.529 68.3715 167.721 68.5167C157.993 68.6472 148.283 70.4049 138.857 72.7682C129.773 75.0455 120.892 78.0467 111.37 77.0999C103.451 76.3124 96.3195 72.9627 88.9447 70.465C71.3381 64.5017 50.01 63.6605 33.9099 72.7389C23.5773 78.5653 16.345 88.0268 13.1376 98.1995C10.7883 105.651 10.0914 114.218 11.813 121.759C13.7476 130.232 17.3217 137.696 16.3782 146.621C15.6035 153.945 12.9619 161.086 13.1952 168.515C13.3958 174.901 15.7446 181.287 19.396 186.451C19.6322 186.785 19.8832 187.114 20.1659 187.406H213.4C217.445 185.184 221.221 182.239 223.666 178.279Z" fill="#444CE7"/>
</g>
<g opacity="0.81">
<path d="M198.859 173.403C199.543 167.976 197.941 162.936 198.151 157.662C198.555 147.52 207.704 140.518 210.891 131.401C214.928 119.856 214.734 106.92 209.832 95.6705C207.469 90.2488 204.018 85.2104 199.305 81.7258C192.039 76.354 182.519 75.176 173.566 75.8574C160.241 76.8716 146.181 82.5157 132.783 80.9765C125.39 80.1269 123.132 72.2975 119.314 67.1329C114.995 61.2919 109.114 56.7036 102.612 53.6496C90.637 48.0246 76.2647 47.4923 64.0252 52.5928C50.9579 58.038 39.5684 71.336 40.3171 86.3752C40.6636 93.3326 43.5097 100.243 42.1922 107.079C40.5384 115.658 33.932 123.476 29.1446 130.466C23.8575 138.186 20.6568 147.392 20.029 156.784C19.3173 167.433 21.9219 178.284 27.364 187.405H194.266C196.688 183.109 198.239 178.314 198.859 173.403Z" fill="#444CE7"/>
</g>
</g>
<path d="M211.742 189.501H21.9445C21.5255 189.501 21.1857 189.155 21.1857 188.729C21.1857 188.302 21.5255 187.956 21.9445 187.956H211.742C212.161 187.956 212.501 188.302 212.501 188.729C212.501 189.155 212.161 189.501 211.742 189.501Z" fill="#233863"/>
<path d="M182.892 140.615H146.435C144.969 140.615 143.777 139.407 143.777 137.923V115.525C143.777 113.737 145.213 112.283 146.978 112.283H173.134C173.396 112.283 173.608 112.498 173.608 112.763C173.608 113.027 173.396 113.243 173.134 113.243H146.978C145.735 113.243 144.724 114.266 144.724 115.525V137.923C144.724 138.877 145.491 139.655 146.434 139.655H182.892C183.835 139.655 184.602 138.877 184.602 137.923V116.11C184.602 114.529 183.331 113.243 181.77 113.243H176.718C176.456 113.243 176.244 113.027 176.244 112.763C176.244 112.498 176.456 112.283 176.718 112.283H181.77C183.855 112.283 185.55 113.999 185.55 116.11V137.923C185.55 139.407 184.358 140.615 182.892 140.615Z" fill="#FFA000"/>
<path d="M145.508 139.958C145.377 139.958 145.247 139.904 145.154 139.797C144.98 139.599 144.997 139.295 145.193 139.119L160.087 125.701C160.281 125.525 160.582 125.543 160.756 125.741C160.93 125.939 160.912 126.242 160.717 126.419L145.823 139.836C145.732 139.918 145.62 139.958 145.508 139.958Z" fill="#FFA000"/>
<path d="M183.668 140.329C183.556 140.329 183.444 140.29 183.354 140.208L168.481 126.858C168.286 126.683 168.268 126.379 168.441 126.181C168.615 125.981 168.914 125.964 169.11 126.14L183.983 139.491C184.178 139.667 184.196 139.97 184.023 140.168C183.93 140.275 183.799 140.329 183.668 140.329Z" fill="#FFA000"/>
<path d="M164.668 129.402C164.175 129.402 163.682 129.245 163.262 128.932L144.404 114.899C144.193 114.742 144.147 114.441 144.302 114.227C144.457 114.014 144.754 113.967 144.965 114.125L163.823 128.159C164.326 128.533 165.003 128.534 165.508 128.162L183.963 114.537C184.175 114.381 184.471 114.428 184.625 114.642C184.78 114.856 184.733 115.156 184.522 115.313L166.066 128.939C165.647 129.247 165.158 129.402 164.668 129.402Z" fill="#FFA000"/>
<path d="M183.215 109.289C183.608 109.582 184.137 109.584 184.533 109.292L200.218 97.7112C199.612 96.9533 198.687 96.468 197.649 96.468H169.518C168.65 96.468 167.879 96.8799 167.379 97.5192C167.397 97.5293 167.417 97.5322 167.433 97.5451L183.215 109.289Z" fill="#444CE7"/>
<path d="M185.091 110.067C184.727 110.336 184.301 110.47 183.876 110.47C183.448 110.47 183.019 110.334 182.654 110.062L180.259 108.28L168.157 119.182C168.148 119.19 168.137 119.193 168.128 119.2C168.388 119.311 168.674 119.373 168.974 119.373H198.77C198.939 119.373 199.102 119.35 199.26 119.313L187.215 108.5L185.091 110.067Z" fill="#444CE7"/>
<path d="M179.477 107.699L166.93 98.3611C166.84 98.6347 166.79 98.9261 166.79 99.2304V117.162C166.79 117.754 167.022 118.288 167.396 118.685C167.421 118.604 167.459 118.526 167.526 118.465L179.477 107.699Z" fill="#444CE7"/>
<path d="M200.091 118.776C200.118 118.8 200.133 118.831 200.154 118.86C200.639 118.454 200.954 117.848 200.954 117.162V99.815C200.954 99.3634 200.865 98.9333 200.704 98.5402L187.998 107.921L200.091 118.776Z" fill="#444CE7"/>
<g opacity="0.69">
<path d="M201.007 163.915H176.263C174.797 163.915 173.605 162.708 173.605 161.223V146.679C173.605 144.891 175.041 143.437 176.807 143.437H199.885C201.969 143.437 203.665 145.153 203.665 147.264V161.223C203.665 162.708 202.472 163.915 201.007 163.915ZM176.806 144.397C175.563 144.397 174.552 145.421 174.552 146.679V161.223C174.552 162.178 175.319 162.955 176.262 162.955H201.006C201.949 162.955 202.716 162.178 202.716 161.223V147.264C202.716 145.683 201.446 144.397 199.884 144.397H176.806Z" fill="white"/>
<path d="M185.274 153.042L174.656 162.613L175.286 163.33L185.905 153.759L185.274 153.042Z" fill="white"/>
<path d="M191.885 153.351L191.256 154.069L201.862 163.589L202.491 162.871L191.885 153.351Z" fill="white"/>
<path d="M188.638 155.919C188.258 155.919 187.879 155.799 187.555 155.558L174.107 145.551L174.668 144.778L188.116 154.785C188.426 155.015 188.844 155.016 189.156 154.787L203.088 144.501L203.647 145.276L189.714 155.562C189.393 155.8 189.015 155.919 188.638 155.919Z" fill="white"/>
</g>
<path d="M200.772 102.598C204.061 102.598 206.727 99.898 206.727 96.5678C206.727 93.2377 204.061 90.5381 200.772 90.5381C197.484 90.5381 194.818 93.2377 194.818 96.5678C194.818 99.898 197.484 102.598 200.772 102.598Z" fill="#FFA000"/>
<path d="M199.454 98.8975H198.801V94.9073L198.139 95.3186V94.6351L198.801 94.1882H199.454V98.8975Z" fill="white"/>
<path d="M200.847 98.593C200.622 98.3573 200.51 98.0295 200.51 97.6085V95.4677C200.51 95.0443 200.622 94.7155 200.849 94.4813C201.075 94.2471 201.404 94.1299 201.837 94.1299C202.272 94.1299 202.602 94.2466 202.827 94.4799C203.051 94.7131 203.164 95.0424 203.164 95.4677V97.6085C203.164 98.0319 203.051 98.3607 202.825 98.5949C202.599 98.8291 202.27 98.9463 201.837 98.9463C201.402 98.9463 201.072 98.8287 200.847 98.593ZM202.347 98.1346C202.457 98.0127 202.512 97.837 202.512 97.6085V95.4677C202.512 95.2387 202.457 95.0635 202.349 94.9411C202.24 94.8192 202.069 94.7583 201.837 94.7583C201.604 94.7583 201.434 94.8192 201.325 94.9411C201.216 95.0631 201.162 95.2387 201.162 95.4677V97.6085C201.162 97.8375 201.217 98.0131 201.326 98.1346C201.436 98.2565 201.607 98.3175 201.837 98.3175C202.067 98.3175 202.238 98.257 202.347 98.1346Z" fill="white"/>
<path d="M68.6253 94.8844C68.3001 94.8844 67.983 94.7525 67.7474 94.5043L63.7345 90.286C63.4677 90.0057 63.0946 89.8454 62.7112 89.8454L23.2853 89.7988C21.0968 89.7988 19.316 87.9955 19.316 85.7793V70.6406C19.316 68.424 21.0968 66.6211 23.2857 66.6211H65.33C67.8223 66.6211 69.8501 68.674 69.8501 71.1979V93.646C69.8501 94.1534 69.5495 94.6041 69.085 94.7942C68.9357 94.8547 68.7798 94.8844 68.6253 94.8844ZM23.2857 67.5811C21.6191 67.5811 20.264 68.9534 20.264 70.6406V85.7793C20.264 87.4665 21.6191 88.8388 23.2857 88.8388L62.7116 88.8854C63.3515 88.8854 63.9729 89.1533 64.4175 89.6203L68.43 93.8385C68.5461 93.9609 68.6788 93.924 68.7309 93.9033C68.7826 93.8822 68.9025 93.815 68.9025 93.6456V71.1974C68.9025 69.203 67.2999 67.5806 65.3305 67.5806H23.2857V67.5811Z" fill="#444CE7"/>
<path d="M58.7874 75.5717H48.686C48.4239 75.5717 48.212 75.3567 48.212 75.0917C48.212 74.8267 48.4239 74.6117 48.686 74.6117H58.7874C59.0495 74.6117 59.2614 74.8267 59.2614 75.0917C59.2614 75.3567 59.0495 75.5717 58.7874 75.5717Z" fill="#FFA000"/>
<path d="M42.5354 75.5717H27.0721C26.81 75.5717 26.5981 75.3567 26.5981 75.0917C26.5981 74.8267 26.81 74.6117 27.0721 74.6117H42.5354C42.7975 74.6117 43.0094 74.8267 43.0094 75.0917C43.0094 75.3567 42.7975 75.5717 42.5354 75.5717Z" fill="#FFA000"/>
<path d="M58.7874 79.2168H33.3459C33.0838 79.2168 32.8719 79.0017 32.8719 78.7368C32.8719 78.4718 33.0838 78.2568 33.3459 78.2568H58.7879C59.05 78.2568 59.2619 78.4718 59.2619 78.7368C59.2614 79.0017 59.0495 79.2168 58.7874 79.2168Z" fill="#FFA000"/>
<path d="M58.7874 82.8614H41.9301C41.6679 82.8614 41.4561 82.6464 41.4561 82.3814C41.4561 82.1165 41.6679 81.9014 41.9301 81.9014H58.7874C59.0495 81.9014 59.2614 82.1165 59.2614 82.3814C59.2614 82.6464 59.0495 82.8614 58.7874 82.8614Z" fill="#FFA000"/>
<path d="M63.207 69.0657H49.5103C49.0732 69.0657 48.6547 69.2457 48.3513 69.5649L44.9438 73.1472C44.547 73.5643 43.8507 73.2797 43.8507 72.7008V67.2667V53.639C43.8507 51.7176 45.3888 50.16 47.2863 50.16H63.7525C65.2964 50.16 66.5482 51.4277 66.5482 52.991V65.6827C66.5472 67.5513 65.0518 69.0657 63.207 69.0657Z" fill="#FFA000"/>
<path d="M51.0767 60.0326C51.0767 60.6888 50.5514 61.2201 49.9038 61.2201C49.2558 61.2201 48.731 60.6883 48.731 60.0326C48.731 59.3769 49.2563 58.8451 49.9038 58.8451C50.5514 58.8451 51.0767 59.3769 51.0767 60.0326Z" fill="white"/>
<path d="M56.5732 60.0326C56.5732 60.6888 56.0479 61.2201 55.4004 61.2201C54.7528 61.2201 54.2275 60.6883 54.2275 60.0326C54.2275 59.3769 54.7528 58.8451 55.4004 58.8451C56.0484 58.8451 56.5732 59.3769 56.5732 60.0326Z" fill="white"/>
<path d="M61.0257 61.2201C61.6735 61.2201 62.1985 60.6885 62.1985 60.0326C62.1985 59.3768 61.6735 58.8451 61.0257 58.8451C60.378 58.8451 59.8529 59.3768 59.8529 60.0326C59.8529 60.6885 60.378 61.2201 61.0257 61.2201Z" fill="white"/>
<path d="M63.3958 116.892C67.134 109.34 64.1189 100.15 56.6615 96.3656C49.204 92.5808 40.1282 95.6343 36.39 103.186C32.6518 110.737 35.6669 119.927 43.1244 123.712C50.5818 127.497 59.6576 124.443 63.3958 116.892Z" fill="#444CE7"/>
<path d="M49.8907 118.431C48.223 118.431 46.8212 117.167 46.6297 115.492L46.5681 114.957H53.2129L53.1513 115.492C52.9598 117.168 51.5575 118.431 49.8907 118.431ZM47.6958 115.917C48.0239 116.832 48.8905 117.471 49.8907 117.471C50.8905 117.471 51.7571 116.832 52.0851 115.917H47.6958Z" fill="white"/>
<path d="M55.7236 112.74H44.0575V107.315C44.0575 104.188 46.5697 101.643 49.6573 101.643H50.1223C53.2104 101.643 55.7231 104.187 55.7231 107.315L55.7236 112.74ZM45.0055 111.78H54.7751V107.315C54.7751 104.717 52.6881 102.603 50.1223 102.603H49.6573C47.092 102.603 45.0055 104.717 45.0055 107.315V111.78Z" fill="white"/>
<path d="M55.2513 115.917H44.5285C43.4397 115.917 42.5538 115.019 42.5538 113.917V113.779C42.5538 112.677 43.4397 111.78 44.5285 111.78H55.2513C56.3401 111.78 57.226 112.677 57.226 113.779V113.917C57.226 115.019 56.3401 115.917 55.2513 115.917ZM44.5313 112.74C43.9625 112.74 43.5018 113.206 43.5018 113.78V113.918C43.5018 114.491 43.9625 114.957 44.5285 114.957H55.2513C55.8172 114.957 56.278 114.491 56.278 113.918V113.78C56.278 113.206 55.8172 112.74 55.2513 112.74H44.5313Z" fill="white"/>
<path d="M79.0496 40.559C82.7532 36.8089 82.7532 30.7288 79.0496 26.9787C75.3459 23.2287 69.3411 23.2287 65.6375 26.9787C61.9338 30.7288 61.9338 36.8089 65.6375 40.559C69.3411 44.3091 75.3459 44.3091 79.0496 40.559Z" fill="#444CE7"/>
<path d="M71.8172 29.9683H72.8701V35.6189H71.8172V29.9683ZM71.8172 36.5026H72.8701V37.5686H71.8172V36.5026Z" fill="white"/>
<path d="M200.303 55.1971H150.581C147.938 55.1971 145.796 57.3662 145.796 60.0422V79.0214V86.5896C145.796 87.396 146.766 87.7924 147.319 87.2112L152.064 82.2225C152.487 81.7785 153.07 81.5275 153.678 81.5275L200.303 81.4728C202.586 81.4728 204.437 79.5984 204.437 77.2867V59.3836C204.437 57.071 202.586 55.1971 200.303 55.1971Z" fill="#FFA000"/>
<path d="M170.264 65.1268H158.318C158.056 65.1268 157.844 64.9118 157.844 64.6468C157.844 64.3818 158.056 64.1668 158.318 64.1668H170.264C170.526 64.1668 170.738 64.3818 170.738 64.6468C170.738 64.9118 170.526 65.1268 170.264 65.1268Z" fill="white"/>
<path d="M195.826 65.1268H177.538C177.276 65.1268 177.064 64.9118 177.064 64.6468C177.064 64.3818 177.276 64.1668 177.538 64.1668H195.826C196.088 64.1668 196.3 64.3818 196.3 64.6468C196.3 64.9118 196.087 65.1268 195.826 65.1268Z" fill="white"/>
<path d="M188.406 69.4377H158.318C158.056 69.4377 157.844 69.2227 157.844 68.9577C157.844 68.6928 158.056 68.4777 158.318 68.4777H188.406C188.668 68.4777 188.88 68.6928 188.88 68.9577C188.88 69.2227 188.668 69.4377 188.406 69.4377Z" fill="white"/>
<path d="M178.254 73.7481H158.318C158.056 73.7481 157.844 73.533 157.844 73.2681C157.844 73.0031 158.056 72.7881 158.318 72.7881H178.254C178.516 72.7881 178.728 73.0031 178.728 73.2681C178.728 73.533 178.516 73.7481 178.254 73.7481Z" fill="white"/>
<path d="M137.086 56.2022H150.939C151.381 56.2022 151.805 56.3846 152.111 56.7067L155.558 60.3297C155.959 60.7517 156.664 60.4641 156.664 59.8781V54.3821V40.5993C156.664 38.6558 155.108 37.0809 153.189 37.0809H136.535C134.973 37.0809 133.708 38.363 133.708 39.9441V52.7808C133.707 54.6705 135.22 56.2022 137.086 56.2022Z" fill="#444CE7"/>
<path d="M149.355 47.0664C149.355 47.7297 149.886 48.2673 150.541 48.2673C151.196 48.2673 151.727 47.7297 151.727 47.0664C151.727 46.403 151.196 45.8654 150.541 45.8654C149.886 45.8649 149.355 46.403 149.355 47.0664Z" fill="white"/>
<path d="M143.796 47.0664C143.796 47.7297 144.327 48.2673 144.982 48.2673C145.637 48.2673 146.168 47.7297 146.168 47.0664C146.168 46.403 145.637 45.8654 144.982 45.8654C144.327 45.8649 143.796 46.403 143.796 47.0664Z" fill="white"/>
<path d="M138.106 47.0664C138.106 47.7297 138.637 48.2673 139.292 48.2673C139.947 48.2673 140.478 47.7297 140.478 47.0664C140.478 46.403 139.947 45.8654 139.292 45.8654C138.637 45.8649 138.106 46.403 138.106 47.0664Z" fill="white"/>
<path d="M207.63 63.9033C210.506 60.9914 210.506 56.2704 207.63 53.3586C204.755 50.4467 200.092 50.4467 197.216 53.3586C194.34 56.2704 194.34 60.9914 197.216 63.9033C200.092 66.8151 204.755 66.8151 207.63 63.9033Z" fill="#444CE7"/>
<path d="M203.267 62.1129H202.254V55.9176L201.226 56.5564V55.4952L202.254 54.8011H203.267V62.1129Z" fill="white"/>
<g opacity="0.61">
<path d="M138.627 166.848H126.22C125.958 166.848 125.746 166.634 125.746 166.368C125.746 166.103 125.958 165.888 126.22 165.888H138.627C138.889 165.888 139.101 166.103 139.101 166.368C139.101 166.633 138.889 166.848 138.627 166.848Z" fill="white"/>
<path d="M165.175 166.848H146.182C145.919 166.848 145.708 166.634 145.708 166.368C145.708 166.103 145.919 165.888 146.182 165.888H165.175C165.437 165.888 165.649 166.103 165.649 166.368C165.649 166.633 165.437 166.848 165.175 166.848Z" fill="white"/>
<path d="M157.47 171.325H126.22C125.958 171.325 125.746 171.11 125.746 170.845C125.746 170.579 125.958 170.365 126.22 170.365H157.47C157.732 170.365 157.944 170.579 157.944 170.845C157.944 171.11 157.732 171.325 157.47 171.325Z" fill="white"/>
<path d="M146.925 175.802H126.22C125.958 175.802 125.746 175.587 125.746 175.322C125.746 175.056 125.958 174.842 126.22 174.842H146.925C147.187 174.842 147.399 175.056 147.399 175.322C147.399 175.587 147.187 175.802 146.925 175.802Z" fill="white"/>
<path d="M58.6622 159.765H26.598C26.3359 159.765 26.124 159.55 26.124 159.285C26.124 159.019 26.3359 158.805 26.598 158.805H58.6622C58.9244 158.805 59.1362 159.019 59.1362 159.285C59.1362 159.55 58.9244 159.765 58.6622 159.765Z" fill="white"/>
<path d="M58.6622 149.731H26.598C26.3359 149.731 26.124 149.517 26.124 149.251C26.124 148.986 26.3359 148.771 26.598 148.771H58.6622C58.9244 148.771 59.1362 148.986 59.1362 149.251C59.1362 149.517 58.9244 149.731 58.6622 149.731Z" fill="white"/>
<path d="M58.6622 154.748H41.3754C41.1133 154.748 40.9014 154.534 40.9014 154.268C40.9014 154.003 41.1133 153.788 41.3754 153.788H58.6622C58.9243 153.788 59.1362 154.003 59.1362 154.268C59.1362 154.534 58.9243 154.748 58.6622 154.748Z" fill="white"/>
<path d="M58.6622 144.411H41.3754C41.1133 144.411 40.9014 144.196 40.9014 143.931C40.9014 143.665 41.1133 143.451 41.3754 143.451H58.6622C58.9243 143.451 59.1362 143.665 59.1362 143.931C59.1362 144.196 58.9243 144.411 58.6622 144.411Z" fill="white"/>
<path d="M58.6622 139.623H47.0037C46.7416 139.623 46.5297 139.408 46.5297 139.143C46.5297 138.877 46.7416 138.663 47.0037 138.663H58.6622C58.9244 138.663 59.1362 138.877 59.1362 139.143C59.1362 139.408 58.9244 139.623 58.6622 139.623Z" fill="white"/>
</g>
<path d="M129.485 67.0387C129.471 67.0325 129.435 67.032 129.444 67.02C135.252 59.1782 127.983 48.7675 121.651 48.1243C119.493 45.4013 116.599 43.1995 113.082 41.8819C111.22 41.1845 109.307 40.8 107.401 40.6958C107.366 35.8416 103.473 31.9171 98.6712 31.9171C93.8483 31.9171 89.9387 35.8762 89.9387 40.7602C89.9387 43.0315 90.7914 45.096 92.1817 46.6622C90.7753 48.1056 89.568 49.7808 88.6333 51.6672C88.4124 52.1131 88.2157 52.5643 88.0304 53.0174C80.945 52.7755 74.8575 58.2091 74.2977 65.4379C73.9019 70.5513 76.3738 75.2218 80.3445 77.8291C77.9342 79.116 76.4089 80.8886 76.2501 82.9411C76.0652 85.3291 77.7683 87.6345 80.6564 89.4182C80.0582 90.6389 79.7245 91.9862 79.7245 93.4037C79.7245 98.9002 84.7124 103.356 90.8649 103.356C95.0233 103.356 98.6475 101.319 100.561 98.3021C101.89 99.1766 103.359 99.9835 104.946 100.683C113.144 104.296 121.295 103.722 123.151 99.4018C123.654 98.2325 123.64 96.9082 123.195 95.5277C123.689 95.4437 124.173 95.3304 124.645 95.1778C141.212 89.82 143.446 73.441 129.485 67.0387Z" fill="#233863"/>
<path d="M132.603 138.608L131.495 135.443L139.806 130.644L140.067 130.492V129.67C140.067 114.205 130.253 101.667 118.147 101.667H105.295L105.461 101.977L82.795 102.162C77.144 102.208 72.3537 106.319 70.489 112.067L54.5237 148.154L56.8212 148.438L69.915 150.061L70.2108 186.743L126.348 186.758L128.202 156.823L130.312 153.332L131.329 151.649C133.637 147.832 134.116 142.929 132.603 138.608Z" fill="#444CE7"/>
<path d="M85.6556 152.175L72.3604 150.605C72.2305 150.589 72.1371 150.47 72.1523 150.338C72.1675 150.206 72.2883 150.116 72.4154 150.128L85.2902 151.648L88.9457 135.672C88.9755 135.544 89.1025 135.463 89.2305 135.493C89.358 135.523 89.4377 135.652 89.4078 135.781L85.6556 152.175Z" fill="#374081"/>
<path d="M99.532 117.808C91.7792 117.808 85.4722 111.421 85.4722 103.571V101.964C85.4722 101.771 85.6257 101.616 85.8158 101.616C86.0059 101.616 86.1595 101.771 86.1595 101.964V103.571C86.1595 111.037 92.1584 117.112 99.532 117.112C106.906 117.112 112.904 111.037 112.904 103.571V101.964C112.904 101.771 113.058 101.616 113.248 101.616C113.438 101.616 113.591 101.771 113.591 101.964V103.571C113.591 111.421 107.284 117.808 99.532 117.808Z" fill="#233863"/>
<path d="M90.147 110.06C90.0371 110.06 89.929 110.006 89.8626 109.907C88.5542 107.951 87.8625 105.663 87.8625 103.291V101.964C87.8625 101.772 88.0161 101.616 88.2062 101.616C88.3959 101.616 88.5499 101.772 88.5499 101.964V103.291C88.5499 105.523 89.2008 107.677 90.4319 109.518C90.5386 109.677 90.4969 109.893 90.34 110.001C90.2807 110.041 90.2134 110.06 90.147 110.06Z" fill="#233863"/>
<path d="M99.532 115.107C96.8586 115.107 94.3445 114.217 92.2608 112.534C92.1124 112.414 92.0878 112.195 92.2063 112.045C92.3257 111.894 92.5419 111.872 92.6888 111.99C94.6498 113.574 97.0164 114.411 99.532 114.411C102.044 114.411 104.408 113.576 106.368 111.995C106.516 111.874 106.733 111.9 106.851 112.05C106.97 112.2 106.945 112.419 106.796 112.539C104.714 114.219 102.202 115.107 99.532 115.107Z" fill="#233863"/>
<path d="M109.387 109.295C109.329 109.295 109.271 109.28 109.217 109.249C109.052 109.154 108.994 108.942 109.088 108.775C110.021 107.111 110.514 105.215 110.514 103.291V101.964C110.514 101.771 110.667 101.616 110.858 101.616C111.048 101.616 111.201 101.771 111.201 101.964V103.291C111.201 105.335 110.677 107.35 109.686 109.118C109.623 109.231 109.506 109.295 109.387 109.295Z" fill="#233863"/>
<path d="M132.96 196.459L124.105 182.975C122.086 180.353 120.924 177.175 118.571 176.526L116.985 176.117L116.995 176.091L77.2805 166.098L80.5568 151.379L56.8217 148.439L49.4918 172.921C49.0131 175.031 49.0363 177.14 49.4814 179.119C50.6228 185.303 55.9197 190.187 62.5529 190.305L104.427 190.199C108.775 194.81 122.374 204.252 122.374 204.252C123.014 204.816 123.994 204.748 124.552 204.099C124.916 203.675 125.008 203.106 124.854 202.604C124.923 202.591 124.965 202.582 124.965 202.582C125.009 202.595 125.045 202.6 125.087 202.611L125.668 203.182C126.342 203.845 127.429 203.829 128.083 203.146L128.125 203.102C128.418 202.796 128.57 202.405 128.595 202.008L128.607 202.021C129.264 202.701 130.351 202.714 131.023 202.048L131.066 202.006C131.737 201.341 131.75 200.24 131.093 199.559L130.929 199.39C130.907 199.328 130.883 199.268 130.859 199.209C131.503 199.576 132.337 199.497 132.891 198.947L132.934 198.905C133.605 198.24 133.617 197.139 132.96 196.459Z" fill="#FFBA94"/>
<path d="M130.991 199.465C130.929 199.465 130.867 199.441 130.821 199.393L125.554 193.939C125.463 193.844 125.464 193.692 125.558 193.599C125.652 193.508 125.802 193.508 125.893 193.603L131.16 199.058C131.252 199.152 131.25 199.305 131.157 199.397C131.11 199.442 131.05 199.465 130.991 199.465Z" fill="#FB8E77"/>
<path d="M128.193 201.604C128.131 201.604 128.07 201.58 128.024 201.532L122.757 196.078C122.665 195.983 122.667 195.831 122.76 195.738C122.855 195.647 123.005 195.647 123.095 195.742L128.363 201.197C128.454 201.291 128.452 201.444 128.359 201.536C128.312 201.581 128.253 201.604 128.193 201.604Z" fill="#FB8E77"/>
<path d="M124.867 202.72C124.808 202.72 124.749 202.697 124.703 202.653L119.275 197.361C119.181 197.269 119.178 197.117 119.269 197.022C119.36 196.927 119.511 196.924 119.604 197.015L125.031 202.307C125.126 202.398 125.129 202.55 125.038 202.646C124.991 202.695 124.93 202.72 124.867 202.72Z" fill="#FB8E77"/>
<path d="M81.2564 167.338C81.2322 167.338 81.2076 167.334 81.1839 167.327L68.9608 163.349C68.8362 163.308 68.7679 163.174 68.8082 163.047C68.8475 162.921 68.9822 162.851 69.1064 162.892L81.3294 166.87C81.4541 166.91 81.5223 167.045 81.482 167.172C81.4498 167.273 81.3569 167.338 81.2564 167.338Z" fill="#FB8E77"/>
<path d="M110.923 60.3508C108.589 60.7056 106.376 62.89 104.603 65.291C104.328 65.662 104.028 66.0019 103.707 66.3096C101.332 68.578 97.8853 68.7998 95.2025 67.3142L94.5493 67.1966C91.6394 66.6715 88.8608 68.6347 88.3423 71.5814L88.3248 71.6817C87.8062 74.6284 89.7449 77.4422 92.6547 77.9673L93.9706 78.2049L93.6241 80.1743C93.4155 81.3609 93.3591 82.5393 93.4383 83.6894L90.3814 101.064C89.4965 106.094 92.8055 110.898 97.7725 111.794C102.74 112.691 107.483 109.34 108.368 104.31L109.589 97.3703C116.332 97.3996 122.322 92.5252 123.545 85.5724L123.779 84.2409L126.682 67.7447C123.415 67.3363 111.856 65.5291 110.923 60.3508Z" fill="#FFBA94"/>
<path opacity="0.46" d="M107.388 95.819L107.126 95.7719C100.055 94.4961 95.1555 88.0991 95.4878 81.022C95.5423 79.8638 94.9711 78.7679 93.97 78.2049L93.6235 80.1743C92.859 84.5207 94.1203 88.7572 96.7207 91.8926L108.234 105.167L109.584 97.4942L109.3 97.3703C116.16 97.5427 122.304 92.6241 123.545 85.5724L123.779 84.2409C122.41 92.0217 115.072 97.2052 107.388 95.819Z" fill="#FB8E77"/>
<path d="M109.584 92.0721C109.521 92.0721 109.458 92.0467 109.412 91.9972C109.322 91.9012 109.326 91.7495 109.421 91.6583C109.434 91.6454 110.779 90.3767 112.362 91.2191C112.477 91.2806 112.522 91.426 112.461 91.5431C112.4 91.6612 112.256 91.7054 112.141 91.6439C110.862 90.9633 109.792 91.9636 109.747 92.0063C109.701 92.05 109.642 92.0721 109.584 92.0721Z" fill="#FB8E77"/>
<path d="M113.412 76.2743C113.326 76.7606 112.868 77.0846 112.387 76.9977C111.907 76.9113 111.587 76.4467 111.673 75.9604C111.759 75.4742 112.217 75.1502 112.697 75.237C113.177 75.3239 113.497 75.7881 113.412 76.2743Z" fill="#233863"/>
<path d="M123.863 78.1598C123.777 78.646 123.318 78.97 122.838 78.8831C122.358 78.7967 122.038 78.3321 122.124 77.8458C122.209 77.3596 122.668 77.0356 123.148 77.1225C123.628 77.2094 123.948 77.6735 123.863 78.1598Z" fill="#233863"/>
<path d="M115.374 83.039C114.942 83.039 114.436 82.9603 113.844 82.7635C113.72 82.7222 113.652 82.5864 113.694 82.4606C113.735 82.3344 113.869 82.2662 113.993 82.3075C115.986 82.9723 116.838 82.1433 117.111 81.756C117.161 81.6854 117.181 81.5981 117.168 81.5102L116.151 74.747C116.131 74.616 116.22 74.4936 116.349 74.4739C116.476 74.4537 116.6 74.5435 116.619 74.675L117.636 81.4387C117.668 81.6504 117.619 81.8621 117.497 82.0349C117.249 82.3862 116.62 83.039 115.374 83.039Z" fill="#FB8E77"/>
<path d="M108.657 88.2297L106.827 87.1598C104.56 85.8345 103.783 82.8988 105.092 80.603L105.227 80.3663L112.184 84.4329L110.267 87.7934C109.942 88.3636 109.221 88.559 108.657 88.2297Z" fill="white"/>
<path d="M109.752 80.5454C106.702 80.5454 104.22 78.035 104.216 74.9462C104.213 71.8554 106.694 69.3383 109.746 69.335C109.748 69.335 109.75 69.335 109.752 69.335C111.228 69.335 112.617 69.9162 113.662 70.9727C114.708 72.0306 115.286 73.4375 115.287 74.9346C115.291 78.0254 112.81 80.5425 109.758 80.5454C109.756 80.5454 109.754 80.5454 109.752 80.5454ZM105.164 74.9452C105.167 77.505 107.225 79.5854 109.752 79.5854C109.754 79.5854 109.755 79.5854 109.757 79.5854C112.286 79.583 114.342 77.4969 114.339 74.9351C114.338 73.6943 113.86 72.5284 112.992 71.6519C112.126 70.7769 110.976 70.295 109.752 70.295C109.75 70.295 109.749 70.295 109.747 70.295C107.218 70.2978 105.162 72.3834 105.164 74.9452Z" fill="white"/>
<path d="M122.338 83.0265C119.289 83.0265 116.806 80.5161 116.803 77.4273C116.799 74.3366 119.28 71.8195 122.332 71.8166C122.334 71.8166 122.336 71.8166 122.338 71.8166C125.388 71.8166 127.87 74.327 127.873 77.4158C127.877 80.5065 125.396 83.0236 122.344 83.027C122.341 83.0265 122.34 83.0265 122.338 83.0265ZM117.751 77.4259C117.753 79.9857 119.811 82.066 122.338 82.066C122.34 82.066 122.341 82.066 122.343 82.066C124.872 82.0631 126.928 79.9771 126.925 77.4158C126.923 74.856 124.865 72.7756 122.338 72.7756C122.336 72.7756 122.335 72.7756 122.333 72.7756C119.804 72.7785 117.748 74.8646 117.751 77.4259Z" fill="white"/>
<path d="M117.133 76.7976C117.118 76.7976 117.102 76.7971 117.086 76.7952L115.115 76.6008C114.854 76.5753 114.663 76.3401 114.689 76.0766C114.714 75.8126 114.944 75.6168 115.207 75.6456L117.178 75.84C117.439 75.8654 117.63 76.1006 117.604 76.3641C117.581 76.6118 117.374 76.7976 117.133 76.7976Z" fill="white"/>
<path d="M109.023 67.4712C109.325 67.584 109.706 67.5259 110.076 67.4913C110.448 67.4486 110.823 67.4145 111.15 67.3972C111.477 67.3795 111.853 67.3718 112.228 67.3742C112.601 67.3684 112.986 67.3843 113.27 67.2393C113.545 67.1035 113.641 66.7526 113.286 66.3475C112.951 65.952 112.11 65.5483 111.027 65.6044C109.944 65.6664 109.165 66.1588 108.887 66.5875C108.59 67.0286 108.733 67.366 109.023 67.4712Z" fill="#233863"/>
<path d="M125.35 70.2868C125.028 70.2825 124.694 70.09 124.36 69.923C124.028 69.7473 123.69 69.5798 123.392 69.4444C123.092 69.3086 122.743 69.1646 122.393 69.0302C122.048 68.8891 121.682 68.7638 121.468 68.5257C121.26 68.2991 121.295 67.9367 121.771 67.6876C122.223 67.4399 123.151 67.3694 124.142 67.8163C125.13 68.2675 125.684 69.0105 125.791 69.5121C125.912 70.0315 125.658 70.295 125.35 70.2868Z" fill="#233863"/>
<path d="M91.656 74.1293C91.5503 74.1293 91.4541 74.0573 91.4266 73.9488C91.3943 73.8201 91.4707 73.6896 91.5972 73.6565L93.2863 73.2168L92.5193 70.3497C92.4851 70.2216 92.5596 70.0901 92.6857 70.0555C92.8141 70.019 92.9421 70.0963 92.9763 70.2245L93.8694 73.5614L91.7143 74.1221C91.6954 74.1269 91.6755 74.1293 91.656 74.1293Z" fill="#FB8E77"/>
<path d="M151.925 121.895H138.864C137.586 121.895 136.549 120.846 136.549 119.551V94.1314C136.549 92.8368 137.585 91.7875 138.864 91.7875H151.925C153.203 91.7875 154.24 92.8368 154.24 94.1314V119.551C154.24 120.845 153.203 121.895 151.925 121.895Z" fill="#233863"/>
<path d="M163.112 144.09L161.66 117.408L162.004 114.17C162.486 109.641 161.168 105.112 158.369 101.546C158.103 101.207 157.84 100.869 157.578 100.55V96.1958C157.578 95.2454 156.818 94.475 155.879 94.475C154.974 94.475 154.24 95.2181 154.24 96.1349V97.7875C154.24 100.93 151.727 103.478 148.624 103.483L143.718 103.489L136.377 102.854C135.423 102.772 134.575 103.495 134.493 104.462C134.426 105.256 134.899 105.969 135.598 106.248C135.534 106.267 135.469 106.288 135.403 106.312L135.199 106.294C134.244 106.212 133.396 106.935 133.314 107.902C133.233 108.869 133.947 109.728 134.902 109.81L134.906 109.811C134.607 110.088 134.398 110.467 134.349 110.904C134.243 111.869 134.935 112.746 135.887 112.854L136.658 112.941C136.694 112.967 136.726 112.992 136.764 113.019C136.764 113.019 136.784 113.057 136.818 113.12C136.336 113.318 135.96 113.754 135.868 114.309C135.728 115.159 136.3 115.971 137.139 116.113C137.139 116.113 142.538 117.913 144.868 118.578L142.894 128.928L142.474 131.136L139.805 130.644L131.495 135.443L132.602 138.608C134.115 142.929 133.636 147.832 131.328 151.65L130.311 153.333L134.371 155.021C139.496 157.153 146.912 159.37 152.404 158.05C154.186 157.622 155.567 157.104 156.64 156.492C160.595 154.401 163.346 149.628 163.112 144.09Z" fill="#FFBA94"/>
<path d="M143.014 107.049C143.007 107.049 143.001 107.048 142.994 107.048L135.469 106.397C135.339 106.386 135.242 106.27 135.254 106.138C135.264 106.006 135.385 105.909 135.51 105.919L143.034 106.57C143.164 106.581 143.261 106.697 143.25 106.829C143.239 106.954 143.136 107.049 143.014 107.049Z" fill="#FB8E77"/>
<path d="M143.162 110.603C143.155 110.603 143.149 110.603 143.141 110.602L135.617 109.952C135.487 109.941 135.39 109.824 135.401 109.692C135.412 109.56 135.531 109.462 135.658 109.474L143.182 110.124C143.312 110.135 143.409 110.252 143.398 110.383C143.387 110.508 143.284 110.603 143.162 110.603Z" fill="#FB8E77"/>
<path d="M144.407 114.149C144.397 114.149 144.388 114.149 144.379 114.148L136.877 113.267C136.747 113.252 136.654 113.133 136.669 113.002C136.684 112.87 136.806 112.776 136.932 112.791L144.434 113.671C144.564 113.687 144.657 113.806 144.642 113.937C144.628 114.06 144.525 114.149 144.407 114.149Z" fill="#FB8E77"/>
<path d="M139.4 143.923C139.382 143.923 139.364 143.921 139.345 143.916C139.218 143.886 139.139 143.757 139.169 143.628L142.931 127.476C142.961 127.347 143.085 127.265 143.216 127.297C143.343 127.328 143.422 127.457 143.392 127.586L139.63 143.738C139.604 143.849 139.507 143.923 139.4 143.923Z" fill="#FB8E77"/>
<path d="M131.383 135.783L126.592 124.555C126.54 124.433 126.595 124.292 126.715 124.239C126.835 124.186 126.975 124.242 127.027 124.365L131.608 135.101L139.95 130.284C140.064 130.219 140.209 130.258 140.274 130.373C140.339 130.488 140.299 130.635 140.186 130.701L131.383 135.783Z" fill="#374081"/>
</svg>
