<svg width="28" height="28" viewBox="0 0 28 28" fill="none" xmlns="http://www.w3.org/2000/svg">
<mask id="mask0_18708_18171" style="mask-type:luminance" maskUnits="userSpaceOnUse" x="2" y="1" width="25" height="26">
<path fill-rule="evenodd" clip-rule="evenodd" d="M2.3335 1.16699H26.2499V26.2562H2.3335V1.16699Z" fill="white"/>
</mask>
<g mask="url(#mask0_18708_18171)">
<path fill-rule="evenodd" clip-rule="evenodd" d="M16.0028 17.8399C17.4075 17.8399 18.5508 18.975 18.5508 20.3704V23.959C18.5508 24.2589 18.7912 24.4992 19.0992 24.5062H21.3228C23.0752 24.5062 24.4997 23.0992 24.4997 21.3702V11.1922C24.4915 10.5972 24.208 10.0372 23.7215 9.66504L16.0297 3.53071C14.9972 2.71287 13.5528 2.71287 12.5168 3.53304L4.87751 9.66271C4.37234 10.0465 4.08884 10.6065 4.08301 11.212V21.3702C4.08301 23.0992 5.50751 24.5062 7.25984 24.5062H9.50451C9.82067 24.5062 10.0773 24.2554 10.0773 23.9474C10.0773 23.8797 10.0855 23.812 10.0995 23.7479V20.3704C10.0995 18.9832 11.2358 17.8492 12.63 17.8399H16.0028ZM21.3228 26.2562H19.0782C17.7925 26.2259 16.8008 25.2167 16.8008 23.959V20.3704C16.8008 19.9399 16.4427 19.5899 16.0028 19.5899H12.6358C12.2053 19.5922 11.8495 19.9434 11.8495 20.3704V23.9474C11.8495 24.0349 11.8378 24.1189 11.8133 24.1982C11.6873 25.3532 10.7003 26.2562 9.50451 26.2562H7.25984C4.54267 26.2562 2.33301 24.064 2.33301 21.3702V11.2039C2.34467 10.0442 2.87901 8.98254 3.80184 8.28371L11.426 2.16454C13.1048 0.83454 15.444 0.83454 17.1193 2.16221L24.7983 8.28721C25.7002 8.97437 26.2345 10.0337 26.2497 11.1794V21.3702C26.2497 24.064 24.04 26.2562 21.3228 26.2562Z" fill="#3A00E5"/>
</g>
</svg>
