<svg width="20" height="20" viewBox="0 0 20 20" fill="none" xmlns="http://www.w3.org/2000/svg">
<path d="M17.0191 10.0118C18.5772 8.45363 18.5772 5.93025 17.0191 4.3721C15.6402 2.99321 13.467 2.81396 11.8813 3.94741L11.8372 3.97774C11.4401 4.26179 11.349 4.81335 11.6331 5.20771C11.9172 5.60208 12.4687 5.69584 12.8631 5.41179L12.9072 5.38145C13.7924 4.74992 15.0031 4.8492 15.7698 5.61862C16.6385 6.48733 16.6385 7.8938 15.7698 8.7625L12.6755 11.8622C11.8068 12.7309 10.4004 12.7309 9.53167 11.8622C8.76225 11.0928 8.66297 9.88216 9.2945 8.99967L9.32483 8.95554C9.60889 8.55842 9.51512 8.00686 9.12076 7.72557C8.7264 7.44428 8.17208 7.53528 7.89079 7.92965L7.86045 7.97377C6.72424 9.55674 6.9035 11.7299 8.28239 13.1088C9.84054 14.6669 12.3639 14.6669 13.9221 13.1088L17.0191 10.0118ZM2.68961 9.36645C1.13146 10.9246 1.13146 13.448 2.68961 15.0061C4.0685 16.385 6.24163 16.5643 7.82736 15.4308L7.87148 15.4005C8.2686 15.1164 8.35961 14.5649 8.07556 14.1705C7.79151 13.7761 7.23995 13.6824 6.84559 13.9664L6.80146 13.9968C5.91621 14.6283 4.70555 14.529 3.93888 13.7596C3.07018 12.8881 3.07018 11.4817 3.93888 10.613L7.03312 7.51598C7.90182 6.64728 9.30829 6.64728 10.177 7.51598C10.9464 8.2854 11.0457 9.49607 10.4142 10.3813L10.3838 10.4254C10.0998 10.8226 10.1935 11.3741 10.5879 11.6554C10.9823 11.9367 11.5366 11.8457 11.8179 11.4513L11.8482 11.4072C12.9844 9.82149 12.8052 7.64835 11.4263 6.26946C9.86812 4.71131 7.34475 4.71131 5.7866 6.26946L2.68961 9.36645Z" fill="#344054"/>
</svg>
