<svg width="20" height="20" viewBox="0 0 20 20" fill="none" xmlns="http://www.w3.org/2000/svg">
<path d="M10.2083 2.70825C7.57811 2.70825 5.472 3.90617 3.93879 5.33195C2.41535 6.74471 1.39647 8.43742 0.914703 9.59953C0.807281 9.85669 0.807281 10.1431 0.914703 10.4003C1.39647 11.5624 2.41535 13.2551 3.93879 14.6679C5.472 16.0937 7.57811 17.2916 10.2083 17.2916C12.8385 17.2916 14.9447 16.0937 16.4779 14.6679C18.0013 13.2519 19.0202 11.5624 19.5052 10.4003C19.6126 10.1431 19.6126 9.85669 19.5052 9.59953C19.0202 8.43742 18.0013 6.74471 16.4779 5.33195C14.9447 3.90617 12.8385 2.70825 10.2083 2.70825ZM5.52082 9.99992C5.52082 8.75672 6.01468 7.56443 6.89376 6.68536C7.77284 5.80628 8.96512 5.31242 10.2083 5.31242C11.4515 5.31242 12.6438 5.80628 13.5229 6.68536C14.402 7.56443 14.8958 8.75672 14.8958 9.99992C14.8958 11.2431 14.402 12.4354 13.5229 13.3145C12.6438 14.1936 11.4515 14.6874 10.2083 14.6874C8.96512 14.6874 7.77284 14.1936 6.89376 13.3145C6.01468 12.4354 5.52082 11.2431 5.52082 9.99992ZM10.2083 7.91658C10.2083 9.06567 9.27408 9.99992 8.12499 9.99992C7.89387 9.99992 7.67252 9.96086 7.46418 9.8925C7.28515 9.8339 7.07681 9.94458 7.08332 10.1334C7.09309 10.358 7.12564 10.5826 7.18749 10.8072C7.63345 12.4739 9.34895 13.4635 11.0156 13.0175C12.6823 12.5715 13.6719 10.856 13.2259 9.18937C12.8646 7.83846 11.6699 6.93026 10.3418 6.87492C10.153 6.86841 10.0423 7.07349 10.1009 7.25578C10.1693 7.46411 10.2083 7.68547 10.2083 7.91658Z" fill="#344054"/>
</svg>
