<svg width="32" height="32" viewBox="0 0 32 32" fill="none" xmlns="http://www.w3.org/2000/svg">
<path d="M11.3331 20C16.1206 20 19.9998 16.7167 19.9998 12.6667C19.9998 8.61671 16.1206 5.33337 11.3331 5.33337C6.54564 5.33337 2.66647 8.61671 2.66647 12.6667C2.66647 14.275 3.27897 15.7625 4.31647 16.975C4.17064 17.3667 3.95397 17.7125 3.7248 18.0042C3.5248 18.2625 3.32064 18.4625 3.17064 18.6C3.09564 18.6667 3.03314 18.7209 2.99147 18.7542C2.97064 18.7709 2.95397 18.7834 2.94564 18.7875L2.9373 18.7959C2.70814 18.9667 2.60814 19.2667 2.6998 19.5375C2.79147 19.8084 3.04564 20 3.33314 20C4.24147 20 5.15814 19.7667 5.92064 19.4792C6.30397 19.3334 6.66231 19.1709 6.97481 19.0042C8.25397 19.6375 9.74147 20 11.3331 20ZM21.3331 12.6667C21.3331 17.3459 17.204 20.8709 12.3123 21.2917C13.3248 24.3917 16.6831 26.6667 20.6665 26.6667C22.2581 26.6667 23.7456 26.3042 25.029 25.6709C25.3415 25.8375 25.6956 26 26.079 26.1459C26.8415 26.4334 27.7581 26.6667 28.6665 26.6667C28.954 26.6667 29.2123 26.4792 29.2998 26.2042C29.3873 25.9292 29.2915 25.6292 29.0581 25.4584L29.0498 25.45C29.0415 25.4417 29.0248 25.4334 29.004 25.4167C28.9623 25.3834 28.8998 25.3334 28.8248 25.2625C28.6748 25.125 28.4706 24.925 28.2706 24.6667C28.0415 24.375 27.8248 24.025 27.679 23.6375C28.7165 22.4292 29.329 20.9417 29.329 19.3292C29.329 15.4625 25.7915 12.2917 21.304 12.0167C21.3206 12.2292 21.329 12.4459 21.329 12.6625L21.3331 12.6667Z" fill="#444CE7"/>
</svg>
