<svg width="24" height="24" viewBox="0 0 24 24" fill="none" xmlns="http://www.w3.org/2000/svg">
<path d="M8.49985 15C12.0905 15 14.9999 12.5375 14.9999 9.5C14.9999 6.4625 12.0905 4 8.49985 4C4.90923 4 1.99985 6.4625 1.99985 9.5C1.99985 10.7063 2.45923 11.8219 3.23735 12.7312C3.12798 13.025 2.96548 13.2844 2.7936 13.5031C2.6436 13.6969 2.49048 13.8469 2.37798 13.95C2.32173 14 2.27485 14.0406 2.2436 14.0656C2.22798 14.0781 2.21548 14.0875 2.20923 14.0906L2.20298 14.0969C2.0311 14.225 1.9561 14.45 2.02485 14.6531C2.0936 14.8562 2.28423 15 2.49985 15C3.1811 15 3.8686 14.825 4.44048 14.6094C4.72798 14.5 4.99673 14.3781 5.2311 14.2531C6.19048 14.7281 7.3061 15 8.49985 15ZM15.9999 9.5C15.9999 13.0094 12.903 15.6531 9.23423 15.9688C9.9936 18.2937 12.5124 20 15.4999 20C16.6936 20 17.8092 19.7281 18.7717 19.2531C19.0061 19.3781 19.2717 19.5 19.5592 19.6094C20.1311 19.825 20.8186 20 21.4999 20C21.7155 20 21.9092 19.8594 21.9749 19.6531C22.0405 19.4469 21.9686 19.2219 21.7936 19.0938L21.7874 19.0875C21.7811 19.0812 21.7686 19.075 21.753 19.0625C21.7217 19.0375 21.6749 19 21.6186 18.9469C21.5061 18.8438 21.353 18.6938 21.203 18.5C21.0311 18.2812 20.8686 18.0187 20.7592 17.7281C21.5374 16.8219 21.9967 15.7063 21.9967 14.4969C21.9967 11.5969 19.3436 9.21875 15.978 9.0125C15.9905 9.17188 15.9967 9.33437 15.9967 9.49687L15.9999 9.5Z" fill="white"/>
</svg>
