<svg width="20" height="20" viewBox="0 0 20 20" fill="none" xmlns="http://www.w3.org/2000/svg">
<path d="M10.6348 2.79951C11.0091 2.96878 11.25 3.33987 11.25 3.75003V16.25C11.25 16.6602 11.0091 17.0313 10.6348 17.2005C10.2604 17.3698 9.82097 17.3015 9.51498 17.028L5.12371 13.125H2.91668C1.76759 13.125 0.833344 12.1908 0.833344 11.0417V8.95836C0.833344 7.80927 1.76759 6.87503 2.91668 6.87503H5.12371L9.51498 2.97203C9.82097 2.6986 10.2604 2.63349 10.6348 2.79951ZM14.668 7.10289L16.4583 8.89326L18.2487 7.10289C18.5547 6.7969 19.0495 6.7969 19.3522 7.10289C19.655 7.40888 19.6582 7.90367 19.3522 8.20641L17.5619 9.99677L19.3522 11.7871C19.6582 12.0931 19.6582 12.5879 19.3522 12.8907C19.0462 13.1934 18.5514 13.1966 18.2487 12.8907L16.4583 11.1003L14.668 12.8907C14.362 13.1966 13.8672 13.1966 13.5645 12.8907C13.2617 12.5847 13.2585 12.0899 13.5645 11.7871L15.3548 9.99677L13.5645 8.20641C13.2585 7.90042 13.2585 7.40563 13.5645 7.10289C13.8705 6.80016 14.3652 6.7969 14.668 7.10289Z" fill="#344054"/>
</svg>
