<svg width="237" height="160" viewBox="0 0 237 160" fill="none" xmlns="http://www.w3.org/2000/svg">
<path d="M192.516 37.0865C193.436 37.0865 194.138 37.906 193.997 38.8145L185.012 96.732C185.011 96.74 185.009 96.7485 185.008 96.757L181.758 117.701C181.343 120.195 179.184 122.027 176.65 122.027H61.2655C63.8188 122.027 65.9899 120.166 66.3816 117.644L69.6341 96.678C69.6351 96.677 69.6351 96.6755 69.6351 96.6745L78.8805 37.0865H147.543L149.502 32.7605C149.894 31.894 150.758 31.337 151.709 31.337H185.36C186.406 31.337 187.335 32.009 187.661 33.003L189.005 37.0865H192.516Z" fill="#444CE7"/>
<path d="M190.196 47.471L176.454 120.017H62.0977L74.8107 47.471H190.196Z" fill="#CCDFF4"/>
<path d="M187.748 44.652L175.413 120.017H61.0564L72.3635 44.652H187.748Z" fill="#ECF4FC"/>
<path d="M184.227 41.8345L174.385 120.017H60.028L68.8423 41.8345H184.227Z" fill="white"/>
<path d="M184.227 41.8345L174.385 120.017H60.028L68.8423 41.8345H184.227Z" fill="url(#paint0_linear_18440_45619)"/>
<path d="M176.65 122.027H61.2655C58.7322 122.027 56.5735 120.195 56.1578 117.701L45.7029 50.3125C45.5619 49.4045 46.2646 48.5845 47.184 48.5845H158.584C159.871 48.5845 160.965 49.522 161.162 50.793L171.535 117.644C171.926 120.166 174.097 122.027 176.65 122.027Z" fill="white"/>
<path d="M176.65 122.027H61.2655C58.7322 122.027 56.5735 120.195 56.1578 117.701L45.7029 50.3125C45.5619 49.4045 46.2646 48.5845 47.184 48.5845H158.584C159.871 48.5845 160.965 49.522 161.162 50.793L171.535 117.644C171.926 120.166 174.097 122.027 176.65 122.027Z" fill="url(#paint1_linear_18440_45619)"/>
<path d="M87.0276 93.192C87.0276 98.253 85.2905 103.036 81.7324 106.595L77.7531 110.573C75.5704 112.754 72.9281 114.252 70.0427 115.084C69.2069 115.324 68.3507 115.509 67.4799 115.639C65.3112 115.963 63.049 115.943 60.7758 115.589C60.2141 115.501 59.6544 115.393 59.0927 115.264C58.2935 115.081 57.4947 114.857 56.7005 114.591C56.3719 114.481 56.0428 114.366 55.7167 114.241L48.7853 70.0765C48.961 69.945 49.1393 69.8165 49.3188 69.6935C50.1887 69.096 51.108 68.5815 52.0651 68.149C52.1739 68.101 52.2839 68.0505 52.3951 68.0035C53.7203 67.436 55.1174 67.024 56.559 66.7685C56.631 66.755 56.702 66.742 56.774 66.7295C63.035 65.679 70.1212 67.5235 76.0286 72.079C77.0159 72.84 77.9717 73.674 78.882 74.5855C78.9225 74.626 78.962 74.6675 79.0025 74.708C79.078 74.784 79.1541 74.861 79.2286 74.938C84.3737 80.256 87.0276 86.936 87.0276 93.192Z" fill="#444CE7"/>
<path d="M165.9 81.3315H106.621C104.982 81.3315 103.653 80.003 103.653 78.364V67.0895C103.653 65.451 104.982 64.122 106.621 64.122H163.231L165.9 81.3315Z" fill="#444CE7"/>
<path d="M178.696 77.206H102.636C101.264 77.206 100.152 76.0945 100.152 74.723V62.4795C100.152 61.108 101.264 59.9965 102.636 59.9965H178.696C180.068 59.9965 181.18 61.108 181.18 62.4795V74.723C181.18 76.0945 180.068 77.206 178.696 77.206Z" fill="white"/>
<path d="M178.696 77.206H102.636C101.264 77.206 100.152 76.0945 100.152 74.723V62.4795C100.152 61.108 101.264 59.9965 102.636 59.9965H178.696C180.068 59.9965 181.18 61.108 181.18 62.4795V74.723C181.18 76.0945 180.068 77.206 178.696 77.206Z" fill="url(#paint2_linear_18440_45619)"/>
<path d="M114.482 67.2295C113.601 67.512 112.872 67.903 112.348 68.2375C112.587 67.652 112.816 66.8705 112.862 65.958C112.962 63.9755 111.088 63.9885 111.08 65.9545C111.076 66.8795 111.223 67.693 111.379 68.295C110.896 67.887 110.224 67.4275 109.37 67.102C107.514 66.394 106.947 68.18 108.815 68.795C109.694 69.0845 110.513 69.1965 111.135 69.2335C110.597 69.567 109.952 70.0645 109.379 70.7755C108.132 72.3205 109.656 73.4115 110.818 71.8255C111.365 71.0795 111.724 70.3355 111.952 69.7565C112.103 70.3705 112.377 71.137 112.876 71.9025C113.961 73.565 115.47 72.4535 114.32 70.8585C113.779 70.1075 113.182 69.536 112.702 69.1405C113.332 69.187 114.147 69.1635 115.029 68.925C116.946 68.4075 116.355 66.6295 114.482 67.2295Z" fill="white"/>
<path d="M128.847 67.2295C127.965 67.512 127.237 67.903 126.712 68.2375C126.951 67.652 127.18 66.8705 127.227 65.958C127.327 63.9755 125.452 63.9885 125.444 65.9545C125.441 66.8795 125.587 67.693 125.744 68.295C125.261 67.887 124.588 67.4275 123.734 67.102C121.879 66.394 121.312 68.18 123.18 68.795C124.059 69.0845 124.878 69.1965 125.499 69.2335C124.962 69.567 124.317 70.0645 123.743 70.7755C122.496 72.3205 124.02 73.4115 125.183 71.8255C125.729 71.0795 126.089 70.3355 126.316 69.7565C126.467 70.3705 126.742 71.137 127.241 71.9025C128.325 73.565 129.834 72.4535 128.685 70.8585C128.144 70.1075 127.547 69.536 127.066 69.1405C127.697 69.187 128.511 69.1635 129.394 68.925C131.311 68.4075 130.719 66.6295 128.847 67.2295Z" fill="white"/>
<path d="M143.211 67.2295C142.33 67.512 141.601 67.903 141.077 68.2375C141.316 67.652 141.545 66.8705 141.591 65.958C141.691 63.9755 139.817 63.9885 139.809 65.9545C139.805 66.8795 139.952 67.693 140.108 68.295C139.625 67.887 138.952 67.4275 138.099 67.102C136.244 66.394 135.676 68.18 137.544 68.795C138.423 69.0845 139.243 69.1965 139.864 69.2335C139.326 69.567 138.681 70.0645 138.107 70.7755C136.861 72.3205 138.385 73.4115 139.547 71.8255C140.094 71.0795 140.453 70.3355 140.681 69.7565C140.832 70.3705 141.106 71.137 141.605 71.9025C142.69 73.565 144.199 72.4535 143.049 70.8585C142.508 70.1075 141.911 69.536 141.431 69.1405C142.061 69.187 142.876 69.1635 143.758 68.925C145.675 68.4075 145.084 66.6295 143.211 67.2295Z" fill="white"/>
<path d="M157.575 67.2295C156.694 67.512 155.966 67.903 155.441 68.2375C155.68 67.652 155.909 66.8705 155.955 65.958C156.055 63.9755 154.181 63.9885 154.173 65.9545C154.169 66.8795 154.316 67.693 154.473 68.295C153.99 67.887 153.317 67.4275 152.463 67.102C150.608 66.394 150.041 68.18 151.909 68.795C152.788 69.0845 153.607 69.1965 154.228 69.2335C153.691 69.567 153.046 70.0645 152.472 70.7755C151.225 72.3205 152.749 73.4115 153.911 71.8255C154.458 71.0795 154.818 70.3355 155.046 69.7565C155.196 70.3705 155.47 71.137 155.969 71.9025C157.054 73.565 158.563 72.4535 157.414 70.8585C156.873 70.1075 156.275 69.536 155.795 69.1405C156.426 69.187 157.24 69.1635 158.122 68.925C160.04 68.4075 159.448 66.6295 157.575 67.2295Z" fill="white"/>
<path d="M171.94 67.2295C171.059 67.512 170.33 67.903 169.806 68.2375C170.045 67.652 170.274 66.8705 170.32 65.958C170.42 63.9755 168.546 63.9885 168.538 65.9545C168.534 66.8795 168.681 67.693 168.837 68.295C168.354 67.887 167.681 67.4275 166.827 67.102C164.972 66.394 164.405 68.18 166.273 68.795C167.152 69.0845 167.971 69.1965 168.592 69.2335C168.055 69.567 167.41 70.0645 166.836 70.7755C165.589 72.3205 167.113 73.4115 168.276 71.8255C168.823 71.0795 169.182 70.3355 169.41 69.7565C169.561 70.3705 169.835 71.137 170.334 71.9025C171.419 73.565 172.928 72.4535 171.778 70.8585C171.237 70.1075 170.64 69.536 170.159 69.1405C170.79 69.187 171.605 69.1635 172.487 68.925C174.404 68.4075 173.813 66.6295 171.94 67.2295Z" fill="white"/>
<path d="M116.394 48.5845C116.296 50.7105 114.542 52.403 112.392 52.403H86.2998L86.7025 57.783C86.756 58.498 85.8742 58.8765 85.3921 58.345L80.0044 52.403H66.089C63.9388 52.403 62.1847 50.7105 62.0867 48.5845H116.394Z" fill="#444CE7"/>
<path d="M58.0159 34.6695V46.464C58.0159 48.6765 59.809 50.469 62.0222 50.469H75.9376L81.3253 56.411C81.8074 56.9425 82.6887 56.564 82.6357 55.849L82.2331 50.469H108.325C110.537 50.469 112.331 48.6765 112.331 46.464V34.6695C112.331 32.457 110.537 30.6645 108.325 30.6645H62.0222C59.809 30.6645 58.0159 32.457 58.0159 34.6695Z" fill="white"/>
<path d="M58.0159 34.6695V46.464C58.0159 48.6765 59.809 50.469 62.0222 50.469H75.9376L81.3253 56.411C81.8074 56.9425 82.6887 56.564 82.6357 55.849L82.2331 50.469H108.325C110.537 50.469 112.331 48.6765 112.331 46.464V34.6695C112.331 32.457 110.537 30.6645 108.325 30.6645H62.0222C59.809 30.6645 58.0159 32.457 58.0159 34.6695Z" fill="url(#paint3_linear_18440_45619)"/>
<path d="M99.9766 40.5665C99.9766 39.399 100.923 38.4525 102.091 38.4525C103.259 38.4525 104.206 39.399 104.206 40.5665C104.206 41.7345 103.259 42.681 102.091 42.681C100.923 42.681 99.9766 41.7345 99.9766 40.5665Z" fill="#A4C1E8"/>
<path d="M83.0588 40.5665C83.0588 39.399 84.0056 38.4525 85.1735 38.4525C86.3413 38.4525 87.2881 39.399 87.2881 40.5665C87.2881 41.7345 86.3413 42.681 85.1735 42.681C84.0056 42.681 83.0588 41.7345 83.0588 40.5665Z" fill="#A4C1E8"/>
<path d="M66.1405 40.5665C66.1405 39.399 67.0873 38.4525 68.2556 38.4525C69.4235 38.4525 70.3703 39.399 70.3703 40.5665C70.3703 41.7345 69.4235 42.681 68.2556 42.681C67.0873 42.681 66.1405 41.7345 66.1405 40.5665Z" fill="#A4C1E8"/>
<path d="M142.288 24.005V35.8C142.288 38.012 140.494 39.805 138.281 39.805H124.366L118.978 45.7465C118.496 46.278 117.614 45.8995 117.668 45.1845L118.07 39.805H91.9786C89.7655 39.805 87.9724 38.012 87.9724 35.8V24.005C87.9724 21.793 89.7655 20 91.9786 20H138.281C140.494 20 142.288 21.793 142.288 24.005Z" fill="white"/>
<path d="M142.288 24.005V35.8C142.288 38.012 140.494 39.805 138.281 39.805H124.366L118.978 45.7465C118.496 46.278 117.614 45.8995 117.668 45.1845L118.07 39.805H91.9786C89.7655 39.805 87.9724 38.012 87.9724 35.8V24.005C87.9724 21.793 89.7655 20 91.9786 20H138.281C140.494 20 142.288 21.793 142.288 24.005Z" fill="url(#paint4_linear_18440_45619)"/>
<path d="M100.327 29.9025C100.327 28.735 99.38 27.7885 98.2121 27.7885C97.0442 27.7885 96.0974 28.735 96.0974 29.9025C96.0974 31.07 97.0442 32.0165 98.2121 32.0165C99.38 32.0165 100.327 31.07 100.327 29.9025Z" fill="#3A78C6"/>
<path d="M117.245 29.9025C117.245 28.735 116.298 27.7885 115.13 27.7885C113.962 27.7885 113.015 28.735 113.015 29.9025C113.015 31.07 113.962 32.0165 115.13 32.0165C116.298 32.0165 117.245 31.07 117.245 29.9025Z" fill="#3A78C6"/>
<path d="M134.162 29.9025C134.162 28.735 133.216 27.7885 132.048 27.7885C130.88 27.7885 129.933 28.735 129.933 29.9025C129.933 31.07 130.88 32.0165 132.048 32.0165C133.216 32.0165 134.162 31.07 134.162 29.9025Z" fill="#3A78C6"/>
<path d="M56.7105 36.532C56.679 36.532 56.6475 36.53 56.6155 36.526C56.606 36.525 55.9648 36.451 54.9214 36.4935C54.4876 36.5115 54.1272 36.176 54.1097 35.7455C54.0922 35.3145 54.4272 34.9515 54.858 34.934C56.0438 34.8855 56.774 34.973 56.804 34.9765C57.2322 35.029 57.5368 35.4185 57.4842 35.846C57.4357 36.2415 57.0991 36.532 56.7105 36.532Z" fill="#CCDFF4"/>
<path d="M126.091 120.842C125.286 120.842 124.47 120.833 123.666 120.815C123.234 120.805 122.893 120.448 122.903 120.017C122.912 119.592 123.26 119.254 123.683 119.254C123.689 119.254 123.695 119.254 123.701 119.254C124.494 119.272 125.298 119.281 126.091 119.281C126.506 119.281 126.929 119.279 127.349 119.274C127.777 119.265 128.134 119.614 128.139 120.045C128.144 120.476 127.798 120.829 127.367 120.835C126.941 120.84 126.512 120.842 126.091 120.842Z" fill="white"/>
<path d="M131.032 120.729C130.617 120.729 130.272 120.403 130.253 119.984C130.233 119.554 130.567 119.189 130.997 119.17C132.205 119.115 133.431 119.038 134.643 118.942C135.074 118.908 135.448 119.229 135.482 119.659C135.516 120.089 135.195 120.464 134.766 120.498C133.537 120.595 132.293 120.673 131.068 120.728C131.056 120.729 131.044 120.729 131.032 120.729Z" fill="#CCDFF4"/>
<path d="M120.014 120.668C119.999 120.668 119.983 120.667 119.968 120.666C118.739 120.596 117.497 120.502 116.277 120.387C115.848 120.347 115.533 119.966 115.573 119.537C115.614 119.108 115.994 118.793 116.423 118.834C117.624 118.946 118.847 119.038 120.058 119.108C120.489 119.133 120.817 119.502 120.793 119.932C120.769 120.347 120.425 120.668 120.014 120.668Z" fill="white"/>
<path d="M138.366 120.15C137.974 120.15 137.636 119.855 137.591 119.457C137.543 119.028 137.851 118.643 138.28 118.594C139.486 118.459 140.705 118.301 141.905 118.126C142.33 118.064 142.728 118.358 142.79 118.785C142.852 119.211 142.557 119.608 142.13 119.67C140.915 119.848 139.678 120.007 138.454 120.145C138.424 120.148 138.395 120.15 138.366 120.15Z" fill="#CCDFF4"/>
<path d="M112.7 119.99C112.668 119.99 112.636 119.987 112.604 119.983C111.38 119.832 110.149 119.664 108.944 119.483C108.518 119.42 108.224 119.022 108.288 118.595C108.352 118.17 108.75 117.876 109.177 117.94C110.368 118.118 111.585 118.285 112.795 118.435C113.223 118.487 113.527 118.877 113.474 119.304C113.425 119.7 113.089 119.99 112.7 119.99Z" fill="white"/>
<path d="M145.643 119.088C145.272 119.088 144.944 118.823 144.876 118.445C144.799 118.021 145.081 117.616 145.506 117.539C146.701 117.325 147.905 117.087 149.086 116.834C149.507 116.743 149.922 117.012 150.012 117.434C150.103 117.855 149.834 118.27 149.413 118.361C148.216 118.617 146.994 118.857 145.783 119.076C145.736 119.084 145.689 119.088 145.643 119.088Z" fill="#CCDFF4"/>
<path d="M105.438 118.898C105.392 118.898 105.346 118.895 105.3 118.886C104.085 118.67 102.865 118.435 101.673 118.188C101.251 118.101 100.979 117.688 101.067 117.265C101.155 116.843 101.568 116.572 101.99 116.66C103.167 116.903 104.373 117.135 105.574 117.349C105.998 117.425 106.281 117.83 106.206 118.255C106.138 118.632 105.809 118.898 105.438 118.898Z" fill="white"/>
<path d="M152.828 117.548C152.478 117.548 152.16 117.311 152.071 116.956C151.967 116.538 152.221 116.114 152.639 116.009C153.817 115.715 155.002 115.397 156.162 115.065C156.576 114.946 157.009 115.186 157.128 115.6C157.247 116.015 157.007 116.446 156.593 116.565C155.415 116.903 154.212 117.225 153.018 117.524C152.954 117.54 152.89 117.548 152.828 117.548Z" fill="#CCDFF4"/>
<path d="M98.2476 117.408C98.1881 117.408 98.1271 117.401 98.0665 117.386C96.8657 117.101 95.6603 116.796 94.4844 116.479C94.0683 116.366 93.8217 115.938 93.9342 115.521C94.0463 115.105 94.4749 114.859 94.891 114.972C96.0519 115.285 97.2418 115.587 98.4277 115.868C98.8473 115.967 99.1064 116.389 99.0063 116.808C98.9213 117.167 98.6012 117.408 98.2476 117.408Z" fill="white"/>
<path d="M159.891 115.521C159.562 115.521 159.256 115.312 159.149 114.982C159.015 114.572 159.239 114.132 159.649 113.998C160.806 113.621 161.966 113.221 163.095 112.807C163.5 112.659 163.948 112.867 164.096 113.272C164.245 113.676 164.037 114.125 163.632 114.273C162.485 114.693 161.308 115.1 160.133 115.483C160.053 115.509 159.971 115.521 159.891 115.521Z" fill="#CCDFF4"/>
<path d="M91.1583 115.494C91.0833 115.494 91.0068 115.483 90.9313 115.46C89.7494 115.102 88.565 114.721 87.4112 114.33C87.003 114.191 86.7845 113.748 86.923 113.34C87.0615 112.932 87.5047 112.713 87.9133 112.852C89.0512 113.238 90.219 113.613 91.3849 113.966C91.7975 114.092 92.0301 114.528 91.9051 114.94C91.8025 115.277 91.4929 115.494 91.1583 115.494Z" fill="white"/>
<path d="M84.2057 113.133C84.1137 113.133 84.0206 113.117 83.9301 113.083C82.7758 112.647 81.6189 112.188 80.492 111.718C80.0944 111.552 79.9063 111.095 80.0724 110.698C80.2385 110.3 80.6961 110.112 81.0937 110.278C82.2041 110.742 83.3434 111.193 84.4813 111.622C84.8844 111.774 85.088 112.225 84.9359 112.629C84.8179 112.941 84.5208 113.133 84.2057 113.133Z" fill="white"/>
<path d="M166.79 112.992C166.482 112.992 166.191 112.81 166.067 112.507C165.903 112.109 166.094 111.653 166.493 111.49C167.622 111.026 168.747 110.538 169.835 110.04C170.227 109.861 170.69 110.033 170.87 110.425C171.05 110.817 170.877 111.281 170.485 111.46C169.378 111.966 168.234 112.462 167.085 112.934C166.988 112.973 166.888 112.992 166.79 112.992Z" fill="#CCDFF4"/>
<path d="M77.4295 110.305C77.3205 110.305 77.2095 110.282 77.1039 110.233C75.9831 109.717 74.8617 109.176 73.7709 108.625C73.3862 108.43 73.2322 107.96 73.4273 107.576C73.6218 107.191 74.0915 107.037 74.4761 107.231C75.5494 107.774 76.6533 108.308 77.7566 108.815C78.1483 108.995 78.3198 109.459 78.1392 109.85C78.0077 110.136 77.7251 110.305 77.4295 110.305Z" fill="white"/>
<path d="M173.469 109.933C173.185 109.933 172.911 109.778 172.773 109.507C172.577 109.123 172.73 108.653 173.114 108.457C174.201 107.903 175.279 107.323 176.318 106.734C176.693 106.521 177.169 106.652 177.383 107.027C177.595 107.402 177.464 107.878 177.089 108.091C176.03 108.692 174.931 109.283 173.823 109.848C173.709 109.906 173.588 109.933 173.469 109.933Z" fill="#CCDFF4"/>
<path d="M70.879 106.989C70.7504 106.989 70.6204 106.957 70.5003 106.89C69.4205 106.291 68.3437 105.665 67.2993 105.03C66.9312 104.806 66.8142 104.326 67.0382 103.957C67.2623 103.59 67.7425 103.472 68.1111 103.697C69.1374 104.321 70.1962 104.937 71.2586 105.526C71.6352 105.735 71.7712 106.211 71.5622 106.587C71.4196 106.844 71.153 106.989 70.879 106.989Z" fill="#CCDFF4"/>
<path d="M179.855 106.304C179.596 106.304 179.344 106.175 179.195 105.941C178.964 105.577 179.072 105.094 179.437 104.864C180.47 104.209 181.485 103.529 182.454 102.842C182.806 102.593 183.293 102.675 183.542 103.027C183.792 103.378 183.709 103.866 183.357 104.115C182.367 104.818 181.329 105.513 180.272 106.182C180.142 106.264 179.998 106.304 179.855 106.304Z" fill="#CCDFF4"/>
<path d="M64.607 103.172C64.4584 103.172 64.3079 103.13 64.1749 103.041C63.1465 102.356 62.1242 101.643 61.1354 100.923C60.7868 100.669 60.7108 100.18 60.9648 99.8325C61.2189 99.484 61.7071 99.408 62.0552 99.662C63.0265 100.37 64.0308 101.07 65.0406 101.742C65.3992 101.981 65.4963 102.465 65.2577 102.824C65.1071 103.05 64.8596 103.172 64.607 103.172Z" fill="#CCDFF4"/>
<path d="M185.841 102.051C185.612 102.051 185.385 101.951 185.23 101.758C184.961 101.421 185.016 100.93 185.353 100.661C186.308 99.898 187.236 99.108 188.112 98.313C188.431 98.023 188.925 98.047 189.215 98.3665C189.505 98.6855 189.481 99.179 189.162 99.4685C188.261 100.286 187.308 101.097 186.327 101.88C186.184 101.995 186.012 102.051 185.841 102.051Z" fill="#CCDFF4"/>
<path d="M58.6761 98.8455C58.5051 98.8455 58.333 98.7895 58.1895 98.6745C57.2216 97.9015 56.2648 97.1015 55.3457 96.296C55.0215 96.0115 54.9891 95.5185 55.2732 95.1945C55.5575 94.8705 56.0508 94.838 56.3749 95.122C57.2762 95.912 58.215 96.697 59.1638 97.4555C59.5009 97.7245 59.5554 98.2155 59.2863 98.552C59.1322 98.745 58.9052 98.8455 58.6761 98.8455Z" fill="#CCDFF4"/>
<path d="M191.269 97.1125C191.075 97.1125 190.881 97.0405 190.73 96.8955C190.418 96.5975 190.408 96.1035 190.706 95.792C191.551 94.9105 192.358 94.0025 193.103 93.093C193.377 92.7595 193.868 92.711 194.202 92.984C194.535 93.2575 194.584 93.749 194.311 94.0825C193.54 95.023 192.706 95.9615 191.833 96.872C191.68 97.032 191.475 97.1125 191.269 97.1125Z" fill="#CCDFF4"/>
<path d="M53.1564 94.005C52.9614 94.005 52.7662 93.9325 52.6147 93.7865C51.7215 92.926 50.8441 92.038 50.0068 91.1475C49.7115 90.8335 49.7268 90.3395 50.041 90.0445C50.3551 89.7495 50.8491 89.7645 51.1445 90.0785C51.9643 90.9505 52.8235 91.82 53.6983 92.663C54.0087 92.962 54.0178 93.456 53.7185 93.7665C53.5653 93.925 53.361 94.005 53.1564 94.005Z" fill="#CCDFF4"/>
<path d="M195.911 91.435C195.759 91.435 195.605 91.3905 195.47 91.2985C195.115 91.055 195.024 90.569 195.268 90.2135C195.953 89.2125 196.589 88.184 197.157 87.157C197.366 86.78 197.841 86.6435 198.218 86.8515C198.595 87.06 198.732 87.535 198.524 87.9125C197.932 88.9825 197.27 90.0535 196.556 91.0955C196.405 91.316 196.16 91.435 195.911 91.435Z" fill="#CCDFF4"/>
<path d="M48.1297 88.6555C47.9082 88.6555 47.6882 88.5615 47.5338 88.3795C46.7302 87.4315 45.9478 86.4575 45.2085 85.4835C44.9478 85.1405 45.0148 84.651 45.3582 84.39C45.7018 84.1295 46.1913 84.1965 46.4521 84.54C47.1746 85.4915 47.9392 86.4435 48.7248 87.3705C49.0036 87.699 48.963 88.1915 48.6341 88.4705C48.4874 88.5945 48.308 88.6555 48.1297 88.6555Z" fill="#CCDFF4"/>
<path d="M199.446 85.019C199.344 85.019 199.241 84.999 199.142 84.9575C198.745 84.7895 198.559 84.3315 198.727 83.9345C199.196 82.8265 199.602 81.692 199.934 80.564C200.056 80.1505 200.489 79.914 200.903 80.0355C201.317 80.1575 201.554 80.5915 201.432 81.005C201.083 82.1895 200.657 83.3795 200.165 84.5425C200.039 84.84 199.75 85.019 199.446 85.019Z" fill="#CCDFF4"/>
<path d="M43.6936 82.8065C43.4426 82.8065 43.196 82.686 43.0453 82.462C42.3486 81.4275 41.681 80.369 41.061 79.3165C40.8422 78.9455 40.966 78.467 41.3375 78.248C41.7089 78.0295 42.1876 78.153 42.4064 78.5245C43.0105 79.55 43.6612 80.5815 44.3405 81.59C44.5813 81.948 44.4865 82.433 44.1289 82.6735C43.9951 82.7635 43.8435 82.8065 43.6936 82.8065Z" fill="#CCDFF4"/>
<path d="M201.514 77.9915C201.468 77.9915 201.421 77.987 201.373 77.9785C200.949 77.901 200.668 77.4945 200.745 77.0705C200.968 75.854 201.151 74.6485 201.29 73.488C201.342 73.06 201.731 72.754 202.158 72.806C202.587 72.8575 202.892 73.246 202.84 73.674C202.697 74.866 202.509 76.103 202.281 77.351C202.212 77.7275 201.884 77.9915 201.514 77.9915Z" fill="#CCDFF4"/>
<path d="M39.9724 76.4795C39.6872 76.4795 39.4123 76.323 39.2749 76.051C38.7092 74.931 38.1828 73.793 37.7105 72.669C37.5434 72.2715 37.7304 71.814 38.1278 71.6475C38.5252 71.4805 38.9829 71.667 39.1499 72.0645C39.6083 73.1555 40.1192 74.26 40.6687 75.3475C40.863 75.732 40.7086 76.2015 40.3238 76.3955C40.2109 76.4525 40.0907 76.4795 39.9724 76.4795Z" fill="#CCDFF4"/>
<path d="M202.375 70.703C202.363 70.703 202.35 70.703 202.338 70.702C201.907 70.682 201.575 70.3165 201.595 69.886C201.627 69.1995 201.644 68.5165 201.643 67.856C201.643 67.3275 201.633 66.7985 201.612 66.2835C201.595 65.8525 201.93 65.4895 202.361 65.4725C202.795 65.4555 203.155 65.7905 203.172 66.221C203.194 66.757 203.205 67.307 203.205 67.856C203.205 68.5405 203.188 69.2485 203.155 69.9595C203.135 70.3775 202.79 70.703 202.375 70.703Z" fill="#CCDFF4"/>
<path d="M37.1369 69.7115C36.8097 69.7115 36.5049 69.504 36.3962 69.1765C35.9969 67.9745 35.6512 66.7655 35.3687 65.582C35.2685 65.163 35.5274 64.742 35.9467 64.642C36.3662 64.542 36.7872 64.8005 36.8873 65.22C37.1594 66.3595 37.4926 67.525 37.8779 68.6845C38.0138 69.0935 37.7923 69.5355 37.3831 69.6715C37.3015 69.6985 37.2184 69.7115 37.1369 69.7115Z" fill="#CCDFF4"/>
<path d="M202.057 63.378C201.676 63.378 201.343 63.099 201.286 62.711C201.108 61.4975 200.86 60.3225 200.55 59.219C200.433 58.804 200.675 58.373 201.09 58.2565C201.506 58.14 201.936 58.3815 202.053 58.7965C202.381 59.964 202.643 61.205 202.831 62.4845C202.893 62.911 202.598 63.3075 202.171 63.37C202.133 63.3755 202.095 63.378 202.057 63.378Z" fill="#CCDFF4"/>
<path d="M35.4478 62.5745C35.0634 62.5745 34.7286 62.2905 34.6752 61.8995C34.5017 60.6255 34.4021 59.3645 34.3792 58.151C34.371 57.72 34.7139 57.364 35.145 57.356C35.5748 57.347 35.9321 57.6905 35.9402 58.1215C35.962 59.2745 36.0569 60.4745 36.2223 61.6885C36.2805 62.116 35.9813 62.509 35.5541 62.5675C35.5184 62.572 35.4828 62.5745 35.4478 62.5745Z" fill="#CCDFF4"/>
<path d="M200.044 56.343C199.749 56.343 199.466 56.174 199.334 55.888C198.828 54.787 198.238 53.761 197.578 52.838C197.328 52.4875 197.409 52 197.76 51.7495C198.111 51.499 198.599 51.5805 198.849 51.931C199.566 52.934 200.206 54.046 200.753 55.2365C200.933 55.628 200.761 56.0915 200.369 56.2715C200.264 56.32 200.153 56.343 200.044 56.343Z" fill="#CCDFF4"/>
<path d="M35.3417 55.252C35.3099 55.252 35.2778 55.2505 35.2454 55.2465C34.8175 55.1935 34.5133 54.8045 34.5659 54.3765C34.7263 53.073 34.9894 51.8205 35.348 50.6535C35.4746 50.2415 35.9115 50.01 36.3235 50.1365C36.7357 50.263 36.9672 50.6995 36.8406 51.1115C36.5087 52.1915 36.2648 53.354 36.1155 54.567C36.0669 54.9625 35.7303 55.252 35.3417 55.252Z" fill="#CCDFF4"/>
<path d="M37.5142 48.283C37.3927 48.283 37.2693 48.2545 37.154 48.1945C36.7717 47.9955 36.6233 47.524 36.8226 47.142C37.4196 45.997 38.0817 44.9125 38.7905 43.9185C39.0408 43.5675 39.5284 43.4855 39.8793 43.736C40.2304 43.986 40.3121 44.4735 40.0618 44.8245C39.3948 45.76 38.7708 46.782 38.2071 47.863C38.0679 48.13 37.7959 48.283 37.5142 48.283Z" fill="#CCDFF4"/>
<path d="M41.7853 42.344C41.5864 42.344 41.3877 42.2685 41.2354 42.1175C40.9293 41.814 40.9275 41.3195 41.2311 41.014C42.1357 40.1025 43.1155 39.277 44.1433 38.561C44.4969 38.3145 44.9835 38.401 45.2302 38.7545C45.4768 39.108 45.39 39.5945 45.0363 39.841C44.0854 40.504 43.178 41.2685 42.3394 42.113C42.1868 42.267 41.986 42.344 41.7853 42.344Z" fill="#CCDFF4"/>
<path d="M47.7825 38.1765C47.484 38.1765 47.1991 38.0045 47.0694 37.714C46.8935 37.3205 47.0699 36.859 47.4635 36.6835C48.621 36.166 49.8366 35.755 51.0767 35.4605C51.4966 35.3615 51.9171 35.6205 52.0165 36.04C52.116 36.4595 51.8566 36.88 51.4371 36.9795C50.2917 37.251 49.1692 37.631 48.1007 38.108C47.9972 38.1545 47.8889 38.1765 47.7825 38.1765Z" fill="#CCDFF4"/>
<path d="M195.741 50.4265C195.561 50.4265 195.38 50.3645 195.233 50.238C194.451 49.5665 193.91 49.2795 193.905 49.2765C193.525 49.0765 193.376 48.606 193.574 48.2245C193.773 47.8435 194.241 47.6935 194.623 47.8905C194.651 47.905 195.316 48.2515 196.251 49.0545C196.577 49.3355 196.615 49.828 196.334 50.155C196.179 50.3345 195.961 50.4265 195.741 50.4265Z" fill="#CCDFF4"/>
<path d="M70.3178 75.483C78.2983 83.461 80.5405 94.67 76.4887 102.859L77.1459 103.515L73.1672 107.494C70.9855 109.674 68.3422 111.172 65.4563 112.004C64.621 112.245 63.7657 112.429 62.8945 112.559C60.7253 112.883 58.4636 112.864 56.1898 112.508C55.6292 112.422 55.0676 112.313 54.5068 112.184C53.7075 112.002 52.9089 111.777 52.1148 111.511C51.2249 111.215 50.3417 110.866 49.4695 110.466C49.0183 110.26 48.5694 110.039 48.1248 109.805C47.8944 109.684 47.6648 109.559 47.4366 109.43C46.2627 108.772 45.116 108.016 44.0113 107.165C44.0105 107.164 44.0105 107.163 44.0097 107.163C43.6358 106.874 43.2664 106.576 42.9028 106.265C42.4303 105.865 41.9673 105.445 41.5139 105.007C41.3903 104.889 41.2681 104.768 41.1459 104.646C40.5762 104.076 40.036 103.491 39.5252 102.89C39.2146 102.525 38.915 102.156 38.6266 101.781C37.6101 100.462 36.7276 99.084 35.985 97.669C35.7502 97.2255 35.5294 96.7765 35.3233 96.325C34.5667 94.674 33.9926 92.9845 33.6047 91.29C33.4766 90.728 33.3684 90.1665 33.2816 89.6055C32.9254 87.3335 32.9062 85.0735 33.2294 82.905C33.3589 82.034 33.5451 81.178 33.7865 80.342C34.6182 77.458 36.116 74.8155 38.2975 72.635L42.2765 68.657L42.9344 69.315C43.2289 69.1695 43.5276 69.031 43.8309 68.9015C45.2212 68.305 46.691 67.88 48.2087 67.627C55.5173 66.4015 63.9468 69.114 70.3178 75.483Z" fill="#5182CB"/>
<path d="M74.2966 71.5055C83.9256 81.1315 85.201 95.4625 77.1455 103.515C71.8163 108.843 63.7383 110.09 56.0933 107.535C54.5049 107.004 52.9363 106.31 51.4151 105.453C50.2404 104.794 49.0937 104.038 47.988 103.185C47.1293 102.524 46.2952 101.805 45.4926 101.03C45.3685 100.911 45.2466 100.79 45.1245 100.668C35.4954 91.0425 34.2207 76.711 42.2764 68.658C42.3779 68.5565 42.4802 68.456 42.5849 68.3575C43.2611 67.7135 43.9796 67.1325 44.7333 66.6145C45.7038 65.947 46.7331 65.3845 47.8089 64.924C49.2001 64.3275 50.6699 63.903 52.1876 63.6495C59.4959 62.424 67.9261 65.137 74.2966 71.5055Z" fill="white"/>
<path d="M74.2966 71.5055C83.9256 81.1315 85.201 95.4625 77.1455 103.515C71.8163 108.843 63.7383 110.09 56.0933 107.535C54.5049 107.004 52.9363 106.31 51.4151 105.453C50.2404 104.794 49.0937 104.038 47.988 103.185C47.1293 102.524 46.2952 101.805 45.4926 101.03C45.3685 100.911 45.2466 100.79 45.1245 100.668C35.4954 91.0425 34.2207 76.711 42.2764 68.658C42.3779 68.5565 42.4802 68.456 42.5849 68.3575C43.2611 67.7135 43.9796 67.1325 44.7333 66.6145C45.7038 65.947 46.7331 65.3845 47.8089 64.924C49.2001 64.3275 50.6699 63.903 52.1876 63.6495C59.4959 62.424 67.9261 65.137 74.2966 71.5055Z" fill="url(#paint5_linear_18440_45619)"/>
<path d="M44.7333 66.6145L47.988 103.185C47.1293 102.524 46.2952 101.805 45.4926 101.03L42.5849 68.3575C43.2611 67.7135 43.9796 67.1325 44.7333 66.6145Z" fill="#7ED6F7"/>
<path d="M52.1876 63.6495L56.0933 107.535C54.5049 107.004 52.9363 106.31 51.4151 105.453L47.8089 64.924C49.2001 64.3275 50.6699 63.903 52.1876 63.6495Z" fill="#7ED6F7"/>
<path d="M71.1551 74.646C78.7104 82.1985 79.7113 93.4435 73.3903 99.762C67.0698 106.081 55.8212 105.08 48.2663 97.5275C40.7113 89.975 39.7105 78.73 46.0311 72.4115C52.3517 66.093 63.6002 67.093 71.1551 74.646Z" fill="white"/>
<path d="M71.1551 74.646C78.7104 82.1985 79.7113 93.4435 73.3903 99.762C67.0698 106.081 55.8212 105.08 48.2663 97.5275C40.7113 89.975 39.7105 78.73 46.0311 72.4115C52.3517 66.093 63.6002 67.093 71.1551 74.646Z" fill="url(#paint6_linear_18440_45619)"/>
<path d="M74.6432 71.8585C68.3197 65.76 60.0801 63.178 52.9177 64.379C51.4001 64.633 49.9304 65.0575 48.5387 65.6535C47.4634 66.1135 46.434 66.6765 45.4639 67.3445C44.7093 67.8615 43.991 68.4435 43.3155 69.0875C43.2104 69.1855 43.1084 69.286 43.0064 69.387C35.053 77.338 36.1948 91.4095 45.492 101.03C45.3682 100.911 45.2463 100.791 45.1245 100.668C35.4952 91.042 34.2203 76.7105 42.2768 68.6575C42.3777 68.557 42.4797 68.456 42.5849 68.358C43.2614 67.714 43.9796 67.1325 44.7332 66.614C45.7033 65.947 46.7327 65.384 47.8089 64.924C49.1996 64.328 50.6694 63.9035 52.188 63.6495C59.4959 62.424 67.9261 65.1365 74.2966 71.5055C74.4131 71.6225 74.5286 71.74 74.6432 71.8585Z" fill="#7ED6F7"/>
<path d="M76.9679 84.695C78.3718 90.2465 77.237 95.9165 73.3903 99.762C69.5435 103.607 63.8718 104.742 58.319 103.339C56.9151 97.787 58.0499 92.117 61.8966 88.2715C65.7434 84.4265 71.4146 83.292 76.9679 84.695Z" fill="#ECF4FC"/>
<path d="M58.9512 77.5505C61.519 80.1175 61.8591 83.9395 59.7109 86.087C57.5628 88.2345 53.7396 87.8945 51.1719 85.3275C48.6041 82.7605 48.264 78.9385 50.4122 76.791C52.5604 74.6435 56.3834 74.9835 58.9512 77.5505Z" fill="#ECF4FC"/>
<path d="M73.3908 99.762C73.1857 99.967 72.9766 100.163 72.7611 100.353C78.4088 93.938 77.234 83.181 69.9257 75.875C62.6169 68.5685 51.8508 67.3935 45.4347 73.047C45.6263 72.8295 45.8251 72.618 46.0312 72.411C52.3514 66.093 63.6002 67.0925 71.1551 74.646C78.7109 82.1985 79.7113 93.444 73.3908 99.762Z" fill="#5182CB"/>
<path d="M170.562 100.534C163.148 98.5885 157.075 94.6615 152.325 88.7845L148.37 87.6775L134.023 138.893L137.978 140C153.511 138.053 164.571 125.373 170.562 100.534Z" fill="#3EA858"/>
<path d="M166.608 99.427C165.765 102.922 164.821 106.177 163.779 109.195C163.415 110.247 163.04 111.271 162.652 112.265C161.992 113.961 161.296 115.575 160.567 117.105C159.735 118.853 158.858 120.493 157.935 122.027C151.845 132.162 143.825 137.664 134.023 138.893C122.087 129.424 119.055 113.466 126.079 90.1805C126.272 89.5415 126.471 88.8975 126.68 88.2485C128.796 88.879 130.902 89.3105 132.998 89.545C135.335 89.806 137.66 89.8215 139.973 89.5935C141.188 89.474 142.399 89.2865 143.608 89.032C145.201 88.697 146.789 88.245 148.37 87.677C153.12 93.554 159.193 97.481 166.608 99.427Z" fill="white"/>
<path d="M166.608 99.427C165.765 102.922 164.821 106.177 163.779 109.195C163.415 110.247 163.04 111.271 162.652 112.265C161.992 113.961 161.296 115.575 160.567 117.105C159.735 118.853 158.858 120.493 157.935 122.027C151.845 132.162 143.825 137.664 134.023 138.893C122.087 129.424 119.055 113.466 126.079 90.1805C126.272 89.5415 126.471 88.8975 126.68 88.2485C128.796 88.879 130.902 89.3105 132.998 89.545C135.335 89.806 137.66 89.8215 139.973 89.5935C141.188 89.474 142.399 89.2865 143.608 89.032C145.201 88.697 146.789 88.245 148.37 87.677C153.12 93.554 159.193 97.481 166.608 99.427Z" fill="url(#paint7_linear_18440_45619)"/>
<path d="M163.779 109.195C163.415 110.247 163.04 111.271 162.652 112.265L139.973 89.5935C141.188 89.474 142.399 89.2865 143.608 89.032L163.779 109.195Z" fill="#A2D951"/>
<path d="M160.567 117.105C159.735 118.853 158.858 120.493 157.935 122.027L126.079 90.1805C126.272 89.5415 126.471 88.8975 126.68 88.2485C128.796 88.879 130.902 89.3105 132.998 89.545L160.567 117.105Z" fill="#A2D951"/>
<path d="M134.923 135.68C132.464 133.59 130.448 131.172 128.922 128.479C127.231 125.494 126.083 122.066 125.509 118.29C124.407 111.034 125.367 102.173 128.36 91.915C134.746 93.363 141.134 93.1085 147.396 91.156C151.732 96.0755 157.058 99.609 163.268 101.688C160.496 112.007 156.712 120.077 152.001 125.706C149.549 128.636 146.787 130.97 143.791 132.642C141.089 134.151 138.11 135.171 134.923 135.68Z" fill="white"/>
<path d="M134.923 135.68C132.464 133.59 130.448 131.172 128.922 128.479C127.231 125.494 126.083 122.066 125.509 118.29C124.407 111.034 125.367 102.173 128.36 91.915C134.746 93.363 141.134 93.1085 147.396 91.156C151.732 96.0755 157.058 99.609 163.268 101.688C160.496 112.007 156.712 120.077 152.001 125.706C149.549 128.636 146.787 130.97 143.791 132.642C141.089 134.151 138.11 135.171 134.923 135.68Z" fill="url(#paint8_linear_18440_45619)"/>
<path d="M129.648 93.1525C126.655 103.41 125.696 112.271 126.798 119.528C127.371 123.304 128.519 126.732 130.211 129.716C131.319 131.673 132.686 133.484 134.294 135.13C132.118 133.169 130.316 130.938 128.922 128.479C127.23 125.495 126.082 122.066 125.509 118.29C124.407 111.035 125.366 102.172 128.36 91.915C134.746 93.3625 141.134 93.1085 147.396 91.1555C147.779 91.5905 148.17 92.015 148.57 92.428C142.345 94.349 135.995 94.5915 129.648 93.1525Z" fill="#3EA858"/>
<path d="M148.541 107.331L147.108 112.446C147.021 112.759 146.799 112.997 146.523 113.118C146.393 113.176 146.252 113.206 146.106 113.206C146.014 113.206 145.919 113.194 145.826 113.167C145.272 113.013 144.948 112.438 145.103 111.885L146.536 106.77C146.91 105.437 146.819 104.067 146.282 102.914C145.77 101.815 144.908 101.048 143.856 100.753C143.313 100.601 142.748 100.584 142.189 100.694C141.666 100.798 141.149 101.015 140.66 101.341C139.601 102.048 138.812 103.17 138.439 104.503L137.006 109.618C136.981 109.709 136.944 109.793 136.897 109.87C136.662 110.265 136.185 110.469 135.723 110.34C135.169 110.184 134.847 109.61 135.001 109.057L136.435 103.942C136.942 102.131 138.032 100.592 139.504 99.609C141.026 98.594 142.771 98.2885 144.417 98.7495C146.063 99.21 147.396 100.377 148.168 102.035C148.395 102.521 148.565 103.032 148.68 103.56C148.68 103.561 148.68 103.562 148.68 103.562C148.938 104.774 148.895 106.07 148.541 107.331Z" fill="white"/>
<path d="M148.541 107.331L147.108 112.446C147.021 112.759 146.799 112.997 146.523 113.118C146.393 113.176 146.252 113.206 146.106 113.206C146.014 113.206 145.919 113.194 145.826 113.167C145.272 113.013 144.948 112.438 145.103 111.885L146.536 106.77C146.91 105.437 146.819 104.067 146.282 102.914C145.77 101.815 144.908 101.048 143.856 100.753C143.313 100.601 142.748 100.584 142.189 100.694C141.666 100.798 141.149 101.015 140.66 101.341C139.601 102.048 138.812 103.17 138.439 104.503L137.006 109.618C136.981 109.709 136.944 109.793 136.897 109.87C136.662 110.265 136.185 110.469 135.723 110.34C135.169 110.184 134.847 109.61 135.001 109.057L136.435 103.942C136.942 102.131 138.032 100.592 139.504 99.609C141.026 98.594 142.771 98.2885 144.417 98.7495C146.063 99.21 147.396 100.377 148.168 102.035C148.395 102.521 148.565 103.032 148.68 103.56C148.68 103.561 148.68 103.562 148.68 103.562C148.938 104.774 148.895 106.07 148.541 107.331Z" fill="url(#paint9_linear_18440_45619)"/>
<path d="M148.541 107.331L147.108 112.446C147.021 112.759 146.799 112.997 146.523 113.118L146.42 112.84L148.304 106.151C148.304 106.151 148.653 105.007 148.68 103.562C148.938 104.774 148.895 106.07 148.541 107.331Z" fill="#A4C1E8"/>
<path d="M142.189 100.694C141.666 100.798 141.149 101.015 140.66 101.341C139.601 102.048 138.812 103.17 138.439 104.503L137.006 109.618C136.981 109.709 136.944 109.793 136.897 109.87L136.316 109.755L138.178 103.477C138.178 103.477 139.688 100.708 142.189 100.694Z" fill="#A4C1E8"/>
<path d="M148.992 113.118L135.638 109.38C134.945 109.186 134.225 109.59 134.031 110.284L131.373 119.773C131.178 120.466 131.583 121.186 132.276 121.38L145.63 125.118C146.324 125.312 147.043 124.908 147.238 124.215L149.896 114.725C150.09 114.032 149.685 113.312 148.992 113.118Z" fill="#444CE7"/>
<path d="M147.214 112.62L133.86 108.882C133.167 108.688 132.447 109.093 132.253 109.786L129.594 119.276C129.4 119.969 129.805 120.688 130.499 120.882L143.852 124.621C144.546 124.815 145.265 124.411 145.459 123.717L148.118 114.228C148.312 113.534 147.907 112.814 147.214 112.62Z" fill="white"/>
<path d="M147.214 112.62L133.86 108.882C133.167 108.688 132.447 109.093 132.253 109.786L129.594 119.276C129.4 119.969 129.805 120.688 130.499 120.882L143.852 124.621C144.546 124.815 145.265 124.411 145.459 123.717L148.118 114.228C148.312 113.534 147.907 112.814 147.214 112.62Z" fill="url(#paint10_linear_18440_45619)"/>
<path d="M140.9 110.853L130.817 114.914L131.41 112.796L138.147 110.083L140.9 110.853Z" fill="#FCDA67"/>
<path d="M147.005 112.604L129.716 119.567C129.664 119.29 129.673 118.998 129.754 118.708L130.329 116.654L143.161 111.486L146.646 112.462C146.773 112.497 146.893 112.544 147.005 112.604Z" fill="#FCDA67"/>
<path d="M140.59 116.115C140.382 116.859 139.791 117.373 139.154 117.434L138.696 119.071C138.655 119.217 138.567 119.335 138.458 119.409C138.349 119.48 138.219 119.508 138.094 119.473C137.843 119.403 137.707 119.11 137.789 118.817L138.247 117.179C137.735 116.798 137.497 116.05 137.705 115.306C137.965 114.378 138.822 113.807 139.619 114.03C140.415 114.253 140.851 115.187 140.59 116.115Z" fill="#444CE7"/>
<defs>
<linearGradient id="paint0_linear_18440_45619" x1="118.102" y1="20" x2="118.102" y2="140" gradientUnits="userSpaceOnUse">
<stop stop-color="#CDDFF4"/>
<stop offset="0.607213" stop-color="white"/>
<stop offset="1" stop-color="white"/>
</linearGradient>
<linearGradient id="paint1_linear_18440_45619" x1="75.5512" y1="140" x2="122.584" y2="6.57985" gradientUnits="userSpaceOnUse">
<stop stop-color="#2D31A6"/>
<stop offset="1" stop-color="#3538CD"/>
</linearGradient>
<linearGradient id="paint2_linear_18440_45619" x1="33" y1="20" x2="203.205" y2="20" gradientUnits="userSpaceOnUse">
<stop stop-color="#444CE7"/>
<stop offset="1" stop-color="#6172F3"/>
</linearGradient>
<linearGradient id="paint3_linear_18440_45619" x1="59.7165" y1="117.25" x2="230.301" y2="84.7678" gradientUnits="userSpaceOnUse">
<stop stop-color="#ECF4FC"/>
<stop offset="1" stop-color="#CDDFF4"/>
</linearGradient>
<linearGradient id="paint4_linear_18440_45619" x1="24.9408" y1="127.32" x2="204.767" y2="97.9189" gradientUnits="userSpaceOnUse">
<stop stop-color="#67C1EE"/>
<stop offset="1" stop-color="#5B9BDA"/>
</linearGradient>
<linearGradient id="paint5_linear_18440_45619" x1="66.8006" y1="116.17" x2="146.722" y2="2.81144" gradientUnits="userSpaceOnUse">
<stop stop-color="#67C1EE"/>
<stop offset="1" stop-color="#5B9BDA"/>
</linearGradient>
<linearGradient id="paint6_linear_18440_45619" x1="33" y1="79.9995" x2="203.205" y2="79.9995" gradientUnits="userSpaceOnUse">
<stop stop-color="#5B9BDA"/>
<stop offset="1" stop-color="#67C1EE"/>
</linearGradient>
<linearGradient id="paint7_linear_18440_45619" x1="46.3018" y1="97.0888" x2="163.595" y2="5.78559" gradientUnits="userSpaceOnUse">
<stop stop-color="#A4D951"/>
<stop offset="1" stop-color="#4FB549"/>
</linearGradient>
<linearGradient id="paint8_linear_18440_45619" x1="7.09471" y1="110.07" x2="118.817" y2="15.9464" gradientUnits="userSpaceOnUse">
<stop stop-color="#A4D951"/>
<stop offset="1" stop-color="#4FB549"/>
</linearGradient>
<linearGradient id="paint9_linear_18440_45619" x1="124.147" y1="24.185" x2="117.475" y2="137.779" gradientUnits="userSpaceOnUse">
<stop stop-color="#CDDFF4"/>
<stop offset="1" stop-color="white"/>
</linearGradient>
<linearGradient id="paint10_linear_18440_45619" x1="58.7947" y1="126.375" x2="160.992" y2="10.0208" gradientUnits="userSpaceOnUse">
<stop stop-color="#FBC142"/>
<stop offset="1" stop-color="#F8A525"/>
</linearGradient>
</defs>
</svg>
