<svg width="240" height="240" viewBox="0 0 240 240" fill="none" xmlns="http://www.w3.org/2000/svg">
<path d="M224.752 196.827C225.68 196.827 226.432 196.075 226.432 195.147C226.432 194.219 225.68 193.467 224.752 193.467C223.824 193.467 223.072 194.219 223.072 195.147C223.072 196.075 223.824 196.827 224.752 196.827Z" fill="#444CE7"/>
<path opacity="0.47" d="M215.993 217.613C216.921 217.613 217.673 216.861 217.673 215.933C217.673 215.005 216.921 214.253 215.993 214.253C215.065 214.253 214.313 215.005 214.313 215.933C214.313 216.861 215.065 217.613 215.993 217.613Z" fill="#9FBFFF"/>
<path d="M16.8082 42.8165C17.5292 42.8165 18.1138 42.2319 18.1138 41.5109C18.1138 40.7898 17.5292 40.2053 16.8082 40.2053C16.0871 40.2053 15.5026 40.7898 15.5026 41.5109C15.5026 42.2319 16.0871 42.8165 16.8082 42.8165Z" fill="#9FBFFF"/>
<path d="M117.401 24.8352C117.401 26.1216 116.358 27.1641 115.072 27.1641C113.785 27.1641 112.743 26.1216 112.743 24.8352C112.743 23.5488 113.785 22.5062 115.072 22.5062C116.358 22.5062 117.401 23.5493 117.401 24.8352Z" fill="#444CE7"/>
<path d="M19.0032 59.2425C19.0032 60.455 18.0207 61.4376 16.8082 61.4376C15.5962 61.4376 14.6132 60.455 14.6132 59.2425C14.6132 58.0305 15.5957 57.0475 16.8082 57.0475C18.0207 57.0475 19.0032 58.0305 19.0032 59.2425Z" fill="#444CE7"/>
<path d="M33.5745 39.5088C34.0297 39.5088 34.3987 39.1398 34.3987 38.6846C34.3987 38.2295 34.0297 37.8605 33.5745 37.8605C33.1194 37.8605 32.7504 38.2295 32.7504 38.6846C32.7504 39.1398 33.1194 39.5088 33.5745 39.5088Z" fill="#1B1B25"/>
<path d="M225.47 45.9403C224.87 45.541 224.707 44.7303 225.106 44.1298C225.505 43.5293 226.316 43.3661 226.917 43.7655C227.517 44.1648 227.68 44.9755 227.281 45.576C226.882 46.176 226.071 46.3392 225.47 45.9403Z" fill="#9FBFFF"/>
<path d="M50.6842 217.02C50.0838 216.621 49.9206 215.811 50.3199 215.21C50.7193 214.609 51.5295 214.446 52.1305 214.846C52.731 215.245 52.8941 216.055 52.4948 216.656C52.0954 217.257 51.2847 217.42 50.6842 217.02Z" fill="#9FBFFF"/>
<path d="M199.433 37.1751C200.621 36.9335 201.388 35.7746 201.146 34.5867C200.905 33.3988 199.746 32.6316 198.558 32.8733C197.37 33.1149 196.603 34.2737 196.844 35.4616C197.086 36.6496 198.245 37.4167 199.433 37.1751Z" fill="#444CE7"/>
<path d="M206.385 61.0661C206.005 60.8141 205.903 60.3024 206.155 59.9237C206.407 59.5445 206.918 59.4418 207.297 59.6938C207.676 59.9458 207.779 60.4575 207.527 60.8362C207.276 61.2154 206.764 61.3181 206.385 61.0661Z" fill="#1B1B25"/>
<path opacity="0.41" d="M40.6843 17.735C41.5833 13.14 46.884 10.3094 52.5235 11.413C58.163 12.5165 65.9246 17.9026 65.0256 22.4976C64.1265 27.0926 55.2422 25.6114 49.8701 26.8646C42.3773 28.6133 39.7853 22.3296 40.6843 17.735Z" fill="#9FBFFF"/>
<g opacity="0.18">
<path opacity="0.15" d="M215.169 199.249C224.053 187.696 229.894 171.947 229.122 157.212C228.321 141.924 222.253 127.976 224.256 112.183C225.402 103.153 228.548 94.3786 228.708 85.2768C229.461 42.2722 159.845 7.74143 133.774 48.9696C131.986 51.7958 130.533 54.9034 128.12 57.2184C125.113 60.1032 120.712 61.4626 116.602 60.7757C109.976 59.6688 104.258 54.7344 97.7947 52.7491C91.9435 50.952 85.8523 50.0645 79.7333 50.0525C67.5864 50.029 55.4515 53.4446 44.9655 59.5411C24.0202 71.7182 11.0112 94.5998 15.2151 119.008C17.7024 133.452 26.2483 146.131 35.8061 157.243C54.0864 178.496 76.8005 195.783 101.676 208.708C121.776 219.152 144.088 226.911 166.68 225.274C186.654 223.826 203.923 213.875 215.169 199.249Z" fill="#444CE7"/>
</g>
<g opacity="0.47">
<path opacity="0.3" d="M228.224 155.654C230.149 142.214 227.686 126.76 220.319 115.153C212.677 103.112 201.372 94.5672 195.774 80.8329C192.573 72.9796 191.112 64.4193 187.079 56.9592C168.019 21.7113 95.722 25.5292 93.4209 70.9166C93.263 74.028 93.5049 77.2147 92.6054 80.1974C91.4846 83.914 88.5345 87.0302 84.8846 88.3531C79.0003 90.4857 72.1027 89.0961 65.9486 90.4416C60.3777 91.6593 55.0281 93.7252 50.0563 96.515C40.187 102.052 31.9003 110.375 26.1782 120.119C14.7484 139.583 14.6572 164.105 29.2339 181.992C37.86 192.578 50.5953 198.959 63.4353 203.605C87.994 212.494 114.336 216.134 140.438 215.245C161.529 214.527 183.187 210.619 200.774 198.956C216.322 188.645 225.787 172.668 228.224 155.654Z" fill="#444CE7"/>
</g>
<g opacity="0.47">
<path opacity="0.4" d="M216.629 156.517C218.152 145.885 216.204 133.66 210.376 124.479C204.33 114.954 195.387 108.194 190.959 97.3296C188.426 91.1174 187.272 84.3456 184.08 78.444C169.003 50.5608 111.813 53.581 109.992 89.485C109.867 91.9464 110.058 94.4674 109.347 96.8266C108.46 99.7666 106.127 102.232 103.239 103.278C98.5843 104.965 93.1281 103.866 88.26 104.93C83.8531 105.894 79.6209 107.528 75.6883 109.735C67.8811 114.115 61.3262 120.699 56.7993 128.407C47.7581 143.804 47.6856 163.202 59.2161 177.352C66.0398 185.726 76.1141 190.774 86.2713 194.449C105.698 201.48 126.537 204.36 147.185 203.657C163.869 203.088 181.001 199.997 194.914 190.771C207.214 182.615 214.701 169.976 216.629 156.517Z" fill="#444CE7"/>
</g>
<g opacity="0.31">
<path d="M216.439 75.6758C216.062 77.3006 214.44 78.3125 212.815 77.9357C211.19 77.5589 210.179 75.9365 210.555 74.3122C210.932 72.6874 212.555 71.6755 214.179 72.0523C215.804 72.4286 216.816 74.051 216.439 75.6758Z" fill="#9FBFFF"/>
</g>
<g opacity="0.31">
<path d="M223.336 27.9249C222.916 31.0526 220.04 33.2472 216.912 32.8272C213.785 32.4072 211.59 29.5305 212.01 26.4033C212.43 23.2757 215.306 21.0811 218.434 21.5011C221.562 21.9216 223.756 24.7973 223.336 27.9249Z" fill="#9FBFFF"/>
</g>
<g opacity="0.31">
<path d="M36.3084 219.097C40.4417 215.972 41.2596 210.089 38.1351 205.955C35.0106 201.822 29.127 201.004 24.9936 204.129C20.8603 207.253 20.0424 213.137 23.1669 217.27C26.2914 221.404 32.1751 222.221 36.3084 219.097Z" fill="#9FBFFF"/>
</g>
<g opacity="0.31">
<path d="M31.4424 97.5086C31.2974 98.5886 30.3043 99.3465 29.2243 99.2011C28.1443 99.0561 27.3864 98.063 27.5318 96.983C27.6768 95.903 28.6699 95.1451 29.7499 95.2905C30.8294 95.4355 31.5873 96.4286 31.4424 97.5086Z" fill="#9FBFFF"/>
</g>
<path d="M201.518 173.958L151.817 203.761C149.513 205.143 146.637 205.149 144.328 203.777L33.1603 137.744C31.3479 136.668 30.217 134.734 30.1675 132.627L29.9592 123.811L86.4447 94.1553L204.341 159.742V168.974C204.34 171.016 203.269 172.908 201.518 173.958Z" fill="#1B1B25"/>
<path d="M202.215 162.452L153.609 191.665C149.948 193.865 145.376 193.881 141.701 191.705L32.1681 126.868C29.2013 125.112 29.2272 120.81 32.2152 119.089L82.4438 90.1699C84.9192 88.7448 87.9672 88.7486 90.4387 90.1805L202.154 154.902C205.042 156.576 205.075 160.733 202.215 162.452Z" fill="#292930"/>
<path d="M41.6304 127.348L94.2993 96.4521L187.156 150.182L132.899 181.29L41.6304 127.348Z" fill="white"/>
<path d="M169.894 173.8C166.242 173.8 163.27 171.932 163.27 169.637C163.27 167.342 166.241 165.474 169.894 165.474C173.547 165.474 176.518 167.342 176.518 169.637C176.518 171.932 173.547 173.8 169.894 173.8ZM169.894 165.954C166.506 165.954 163.75 167.606 163.75 169.637C163.75 171.668 166.506 173.32 169.894 173.32C173.282 173.32 176.038 171.668 176.038 169.637C176.038 167.607 173.282 165.954 169.894 165.954Z" fill="#CCCCCC"/>
<path d="M175.235 185.816C175.079 185.816 174.923 185.778 174.777 185.7C174.459 185.529 174.269 185.211 174.269 184.849V183.12C174.269 182.725 174.468 182.365 174.802 182.155L184.113 176.31C184.356 176.158 184.651 176.147 184.904 176.279C185.158 176.411 185.317 176.66 185.332 176.946L185.412 178.566C185.433 178.979 185.232 179.377 184.887 179.605L175.765 185.654C175.603 185.762 175.419 185.816 175.235 185.816ZM184.369 176.717L175.058 182.562C174.865 182.683 174.749 182.892 174.749 183.12V184.849C174.749 185.031 174.845 185.191 175.004 185.277C175.163 185.361 175.349 185.353 175.501 185.253L184.623 179.205C184.827 179.07 184.946 178.834 184.934 178.59L184.853 176.969C184.847 176.855 184.785 176.758 184.683 176.704C184.581 176.651 184.466 176.655 184.369 176.717Z" fill="#CCCCCC"/>
<path d="M52.9108 114.334C52.8268 114.334 52.7452 114.29 52.7011 114.212C52.6363 114.096 52.6776 113.95 52.7928 113.885L69.9441 104.271C70.0603 104.206 70.2057 104.247 70.271 104.363C70.3358 104.478 70.2945 104.625 70.1793 104.689L53.028 114.303C52.9905 114.324 52.9502 114.334 52.9108 114.334Z" fill="#CCCCCC"/>
<path d="M59.3352 149.419C59.1192 149.419 58.9041 149.361 58.7097 149.244L44.2387 140.585C43.8528 140.354 43.6257 139.932 43.6469 139.482C43.667 139.053 43.9051 138.673 44.2833 138.468C44.6616 138.263 45.1094 138.27 45.4809 138.487L59.9606 146.965C60.3533 147.195 60.5837 147.62 60.5625 148.075L60.5539 148.256C60.5337 148.688 60.2937 149.068 59.9121 149.273C59.7297 149.371 59.532 149.419 59.3352 149.419ZM44.1259 139.505C44.1129 139.777 44.2507 140.034 44.4849 140.173L58.956 148.833C59.1811 148.967 59.4533 148.974 59.6846 148.849C59.916 148.726 60.0614 148.495 60.0739 148.233L60.0825 148.052C60.0955 147.776 59.9558 147.519 59.7177 147.38L45.2381 138.901C45.0125 138.77 44.7417 138.765 44.5118 138.89C44.2824 139.014 44.1384 139.244 44.1259 139.505Z" fill="#CCCCCC"/>
<path d="M78.4842 160.031C78.275 160.031 78.0662 159.976 77.8761 159.866L63.2625 151.449C62.8727 151.224 62.639 150.806 62.6524 150.357C62.6654 149.927 62.8967 149.543 63.2716 149.331C63.646 149.12 64.0938 149.12 64.4692 149.331L79.0881 157.566C79.4841 157.789 79.7217 158.21 79.7082 158.665L79.703 158.846C79.69 159.279 79.4562 159.663 79.0785 159.875C78.8918 159.979 78.6882 160.031 78.4842 160.031ZM63.1324 150.371C63.1242 150.643 63.2658 150.897 63.502 151.033L78.1156 159.45C78.3431 159.582 78.6158 159.582 78.8447 159.456C79.0737 159.327 79.2153 159.094 79.223 158.832L79.2282 158.651C79.2364 158.375 79.0924 158.12 78.8524 157.984L64.2335 149.749C64.0065 149.62 63.7353 149.621 63.5073 149.749C63.2802 149.878 63.1401 150.11 63.1324 150.371Z" fill="#CCCCCC"/>
<g opacity="0.28">
<path d="M177.754 152.609L170.788 148.883L158.345 141.815C157.687 141.441 156.881 141.443 156.224 141.818L123.242 160.703C122.063 161.378 122.057 163.077 123.231 163.761L132.755 169.307C133.888 169.967 135.29 169.961 136.417 169.292L165.423 152.069L177.754 152.609Z" fill="#9FBFFF"/>
<path d="M178.806 148.366L171.84 144.639L159.397 137.571C158.739 137.198 157.933 137.199 157.276 137.575L124.294 156.46C123.115 157.135 123.109 158.834 124.283 159.518L133.807 165.064C134.94 165.724 136.342 165.718 137.47 165.049L166.475 147.826L178.806 148.366Z" fill="#444CE7"/>
<path d="M129.635 157.899C129.553 157.899 129.474 157.858 129.429 157.783C129.36 157.669 129.397 157.522 129.511 157.453L146.683 147.108C146.795 147.041 146.944 147.076 147.012 147.19C147.081 147.303 147.044 147.451 146.93 147.519L129.758 157.864C129.72 157.888 129.677 157.899 129.635 157.899Z" fill="white"/>
<path d="M132.672 159.893C132.59 159.893 132.511 159.852 132.466 159.776C132.397 159.662 132.435 159.515 132.549 159.447L153.179 147.146C153.291 147.078 153.439 147.115 153.507 147.229C153.575 147.343 153.538 147.491 153.424 147.559L132.794 159.86C132.756 159.883 132.714 159.893 132.672 159.893Z" fill="white"/>
<path d="M135.937 161.72C135.856 161.72 135.778 161.679 135.732 161.606C135.663 161.493 135.698 161.345 135.812 161.275L154.799 149.642C154.911 149.574 155.06 149.609 155.129 149.722C155.198 149.835 155.163 149.983 155.05 150.052L136.062 161.685C136.023 161.709 135.98 161.72 135.937 161.72Z" fill="white"/>
<path d="M159.819 147.631C159.806 147.631 159.792 147.631 159.78 147.631C158.541 147.624 157.376 147.259 156.499 146.606C155.6 145.935 155.108 145.041 155.113 144.088C155.125 142.159 157.217 140.601 159.784 140.601C159.796 140.601 159.809 140.601 159.821 140.601C161.06 140.608 162.225 140.972 163.102 141.626C164.001 142.297 164.493 143.191 164.487 144.144C164.482 145.097 163.979 145.985 163.072 146.645C162.197 147.281 161.043 147.631 159.819 147.631ZM159.784 141.081C157.48 141.081 155.604 142.426 155.594 144.091C155.589 144.888 156.012 145.644 156.786 146.222C157.581 146.814 158.646 147.145 159.782 147.152C160.912 147.152 161.988 146.841 162.791 146.258C163.571 145.69 164.003 144.939 164.008 144.142C164.013 143.345 163.589 142.589 162.816 142.012C162.021 141.419 160.956 141.088 159.819 141.082C159.807 141.081 159.795 141.081 159.784 141.081Z" fill="white"/>
<path d="M135.166 128.058L128.2 124.332L115.757 117.264C115.099 116.891 114.293 116.892 113.636 117.268L80.6544 136.152C79.475 136.827 79.4688 138.526 80.6433 139.21L90.167 144.756C91.3003 145.416 92.7019 145.41 93.8294 144.741L122.835 127.518L135.166 128.058Z" fill="#9FBFFF"/>
<path d="M114.688 113.024L81.7065 131.909C80.5271 132.584 80.5209 134.282 81.6955 134.966L91.2191 140.513C92.3524 141.173 93.754 141.167 94.8815 140.497L129.252 120.089L116.809 113.021C116.151 112.647 115.345 112.648 114.688 113.024Z" fill="#444CE7"/>
<path d="M136.218 123.815L129.252 120.088L123.887 123.274L136.218 123.815Z" fill="#444CE7"/>
<path d="M87.047 133.348C86.9659 133.348 86.8862 133.307 86.8411 133.232C86.7724 133.119 86.8094 132.971 86.9227 132.903L104.095 122.558C104.208 122.49 104.356 122.526 104.424 122.64C104.493 122.753 104.456 122.901 104.343 122.969L87.1703 133.314C87.1315 133.337 87.0887 133.348 87.047 133.348Z" fill="white"/>
<path d="M90.0845 135.343C90.0029 135.343 89.9232 135.301 89.8781 135.226C89.8104 135.112 89.8478 134.965 89.9616 134.897L110.591 122.596C110.705 122.528 110.852 122.566 110.92 122.679C110.988 122.793 110.951 122.941 110.836 123.009L90.2078 135.31C90.1685 135.332 90.1262 135.343 90.0845 135.343Z" fill="white"/>
<path d="M93.3489 137.17C93.2678 137.17 93.189 137.129 93.1439 137.055C93.0743 136.942 93.1103 136.794 93.2231 136.725L112.21 125.091C112.324 125.022 112.471 125.058 112.541 125.171C112.61 125.284 112.574 125.432 112.462 125.501L93.4742 137.135C93.4348 137.158 93.3911 137.17 93.3489 137.17Z" fill="white"/>
<path d="M117.231 123.08C117.217 123.08 117.204 123.08 117.192 123.08C115.953 123.072 114.788 122.709 113.911 122.054C113.012 121.384 112.52 120.49 112.525 119.537C112.537 117.599 114.633 116.018 117.233 116.05C118.472 116.057 119.637 116.421 120.514 117.075C121.413 117.745 121.905 118.64 121.899 119.593C121.894 120.546 121.391 121.434 120.484 122.094C119.609 122.731 118.455 123.08 117.231 123.08ZM117.195 116.53C114.892 116.53 113.016 117.875 113.005 119.54C113.001 120.336 113.424 121.093 114.198 121.669C114.993 122.263 116.057 122.593 117.194 122.6C118.339 122.597 119.4 122.289 120.202 121.706C120.982 121.138 121.415 120.387 121.419 119.59C121.424 118.793 121.001 118.037 120.227 117.46C119.432 116.867 118.367 116.536 117.23 116.53C117.219 116.53 117.207 116.53 117.195 116.53Z" fill="white"/>
<path d="M140.717 139.349L129.978 133.249C129.32 132.875 128.514 132.877 127.857 133.253L94.8753 152.138C93.696 152.813 93.6897 154.511 94.8643 155.195L112.7 166.068L110.84 159.07L140.736 141.318C141.487 140.871 141.476 139.781 140.717 139.349Z" fill="#9FBFFF"/>
<path d="M141.178 135.554L130.423 129.445C129.766 129.071 128.959 129.073 128.303 129.449L95.3207 148.333C94.1414 149.009 94.1351 150.707 95.3097 151.391L104.833 156.937C105.034 157.054 105.244 157.142 105.458 157.217L105.448 157.221L113.145 162.264L111.285 155.265L141.196 137.505C141.941 137.063 141.931 135.982 141.178 135.554Z" fill="#FFB54A"/>
<path d="M107.924 147.575C107.842 147.575 107.763 147.533 107.718 147.458C107.65 147.344 107.687 147.197 107.801 147.129L128.43 134.828C128.542 134.76 128.691 134.797 128.759 134.911C128.827 135.025 128.79 135.172 128.675 135.241L108.046 147.542C108.008 147.565 107.966 147.575 107.924 147.575Z" fill="white"/>
<path d="M111.189 149.401C111.107 149.401 111.029 149.361 110.984 149.287C110.914 149.174 110.95 149.026 111.063 148.956L130.05 137.324C130.162 137.255 130.311 137.29 130.38 137.403C130.449 137.516 130.414 137.664 130.301 137.734L111.314 149.366C111.275 149.39 111.231 149.401 111.189 149.401Z" fill="white"/>
<path d="M99.8212 113.095L89.0822 106.994C88.4246 106.621 87.6182 106.622 86.9616 106.998L53.9798 125.882C52.8004 126.558 52.7942 128.256 53.9688 128.94L71.8041 139.813L69.9446 132.815L99.8404 115.063C100.592 114.617 100.581 113.526 99.8212 113.095Z" fill="#9FBFFF"/>
<path d="M100.283 109.299L89.5281 103.19C88.8705 102.817 88.0641 102.818 87.4075 103.194L54.4257 122.079C53.2464 122.754 53.2401 124.453 54.4147 125.137L63.9384 130.683C64.1385 130.8 64.3492 130.888 64.5633 130.963L64.5532 130.966L72.2496 136.009L70.39 129.011L100.301 111.25C101.046 110.809 101.036 109.727 100.283 109.299Z" fill="#FFB54A"/>
<path d="M67.029 121.321C66.947 121.321 66.8673 121.279 66.8226 121.203C66.755 121.09 66.7919 120.942 66.9062 120.874L87.5351 108.573C87.6489 108.506 87.7962 108.542 87.8644 108.657C87.9321 108.77 87.8951 108.918 87.7809 108.986L67.1519 121.287C67.113 121.31 67.0703 121.321 67.029 121.321Z" fill="white"/>
<path d="M70.2936 123.147C70.2129 123.147 70.1337 123.107 70.0886 123.033C70.019 122.92 70.055 122.772 70.1678 122.702L89.1552 111.07C89.2685 111 89.4158 111.036 89.4854 111.149C89.555 111.262 89.519 111.409 89.4062 111.479L70.4188 123.112C70.3795 123.136 70.3363 123.147 70.2936 123.147Z" fill="white"/>
</g>
<path d="M192.37 138.686L185.403 134.96L172.96 127.892C172.303 127.518 171.496 127.519 170.84 127.896L137.858 146.78C136.678 147.456 136.672 149.154 137.847 149.838L147.37 155.384C148.504 156.044 149.905 156.038 151.033 155.369L180.038 138.146L192.37 138.686Z" fill="#9FBFFF"/>
<path d="M193.422 134.443L186.455 130.716L174.012 123.649C173.355 123.275 172.548 123.276 171.892 123.652L138.91 142.537C137.731 143.212 137.724 144.911 138.899 145.595L148.423 151.141C149.556 151.801 150.958 151.795 152.085 151.126L181.09 133.903L193.422 134.443Z" fill="#444CE7"/>
<path d="M144.25 143.976C144.169 143.976 144.09 143.935 144.044 143.86C143.976 143.747 144.012 143.599 144.126 143.531L161.298 133.186C161.41 133.119 161.559 133.154 161.627 133.268C161.696 133.381 161.659 133.529 161.545 133.597L144.373 143.942C144.335 143.965 144.292 143.976 144.25 143.976Z" fill="white"/>
<path d="M147.288 145.97C147.206 145.97 147.127 145.929 147.082 145.853C147.013 145.74 147.051 145.592 147.165 145.525L167.794 133.224C167.906 133.156 168.055 133.192 168.123 133.307C168.191 133.421 168.154 133.568 168.04 133.636L147.411 145.937C147.372 145.96 147.33 145.97 147.288 145.97Z" fill="white"/>
<path d="M150.552 147.797C150.471 147.797 150.393 147.756 150.347 147.683C150.278 147.57 150.313 147.422 150.427 147.352L169.414 135.719C169.526 135.651 169.674 135.685 169.744 135.799C169.813 135.912 169.778 136.059 169.665 136.129L150.677 147.762C150.638 147.786 150.595 147.797 150.552 147.797Z" fill="white"/>
<path d="M174.433 133.708C174.42 133.708 174.407 133.708 174.395 133.708C173.157 133.701 171.991 133.337 171.114 132.683C170.215 132.012 169.724 131.118 169.729 130.165C169.741 128.237 171.832 126.678 174.399 126.678C174.412 126.678 174.424 126.678 174.437 126.678C175.676 126.685 176.841 127.049 177.718 127.704C178.617 128.374 179.108 129.268 179.103 130.221C179.097 131.174 178.595 132.062 177.688 132.721C176.812 133.358 175.657 133.708 174.433 133.708ZM174.399 127.158C172.095 127.158 170.219 128.503 170.209 130.168C170.204 130.964 170.627 131.721 171.401 132.298C172.196 132.891 173.261 133.222 174.397 133.228C174.409 133.228 174.421 133.228 174.433 133.228C175.557 133.228 176.611 132.912 177.405 132.334C178.185 131.766 178.617 131.015 178.622 130.219C178.627 129.422 178.203 128.666 177.43 128.089C176.635 127.495 175.571 127.165 174.433 127.158C174.422 127.158 174.41 127.158 174.399 127.158Z" fill="white"/>
<path d="M149.781 114.135L142.815 110.409L130.372 103.341C129.714 102.968 128.908 102.969 128.251 103.345L95.2694 122.23C94.09 122.905 94.0838 124.603 95.2583 125.287L104.782 130.834C105.915 131.494 107.317 131.488 108.444 130.818L137.45 113.595L149.781 114.135Z" fill="#9FBFFF"/>
<path d="M129.304 99.1013L96.322 117.986C95.1426 118.661 95.1364 120.359 96.3109 121.043L105.835 126.59C106.968 127.25 108.369 127.244 109.497 126.575L143.867 106.166L131.424 99.0974C130.766 98.724 129.96 98.7254 129.304 99.1013Z" fill="#444CE7"/>
<path d="M150.833 109.892L143.867 106.165L138.502 109.351L150.833 109.892Z" fill="#444CE7"/>
<path d="M101.662 119.425C101.581 119.425 101.501 119.384 101.456 119.309C101.387 119.196 101.424 119.049 101.538 118.98L118.71 108.635C118.823 108.566 118.971 108.603 119.039 108.717C119.108 108.83 119.071 108.977 118.958 109.046L101.785 119.391C101.747 119.414 101.704 119.425 101.662 119.425Z" fill="white"/>
<path d="M104.699 121.42C104.618 121.42 104.538 121.378 104.493 121.303C104.425 121.189 104.463 121.042 104.577 120.973L125.206 108.672C125.317 108.606 125.466 108.642 125.535 108.756C125.603 108.87 125.565 109.017 125.451 109.085L104.823 121.386C104.784 121.409 104.741 121.42 104.699 121.42Z" fill="white"/>
<path d="M107.964 123.247C107.883 123.247 107.805 123.206 107.759 123.132C107.69 123.019 107.726 122.871 107.839 122.802L126.826 111.169C126.938 111.1 127.086 111.135 127.156 111.248C127.225 111.361 127.19 111.509 127.077 111.578L108.09 123.212C108.05 123.235 108.007 123.247 107.964 123.247Z" fill="white"/>
<path d="M131.845 109.157C131.833 109.157 131.82 109.157 131.807 109.157C130.569 109.15 129.403 108.786 128.526 108.132C127.627 107.461 127.136 106.567 127.141 105.614C127.147 104.661 127.649 103.773 128.556 103.113C129.44 102.47 130.603 102.128 131.848 102.127C133.087 102.134 134.253 102.498 135.13 103.152C136.029 103.823 136.521 104.717 136.515 105.67C136.509 106.623 136.007 107.511 135.1 108.171C134.224 108.808 133.07 109.157 131.845 109.157ZM131.809 102.607C130.686 102.607 129.632 102.924 128.838 103.502C128.058 104.069 127.626 104.821 127.621 105.617C127.616 106.414 128.039 107.17 128.813 107.748C129.608 108.341 130.673 108.671 131.809 108.678C131.821 108.678 131.833 108.678 131.845 108.678C132.969 108.678 134.023 108.361 134.817 107.783C135.597 107.216 136.03 106.464 136.034 105.668C136.039 104.871 135.616 104.115 134.843 103.537C134.047 102.944 132.983 102.614 131.845 102.607C131.834 102.607 131.822 102.607 131.809 102.607Z" fill="white"/>
<path d="M155.332 125.426L144.593 119.326C143.936 118.953 143.129 118.954 142.473 119.33L109.491 138.215C108.311 138.89 108.305 140.588 109.48 141.272L127.315 152.145L125.456 145.147L155.351 127.395C156.102 126.949 156.092 125.858 155.332 125.426Z" fill="#9FBFFF"/>
<path d="M155.793 121.631L145.039 115.522C144.381 115.149 143.575 115.15 142.918 115.526L109.936 134.411C108.757 135.086 108.751 136.784 109.925 137.468L119.449 143.015C119.649 143.131 119.86 143.22 120.074 143.294L120.064 143.298L127.76 148.341L125.901 141.342L155.811 123.582C156.557 123.14 156.546 122.059 155.793 121.631Z" fill="#FFB54A"/>
<path d="M122.539 133.652C122.458 133.652 122.378 133.61 122.333 133.535C122.265 133.421 122.302 133.273 122.416 133.205L143.045 120.904C143.158 120.837 143.306 120.874 143.374 120.988C143.443 121.102 143.405 121.249 143.291 121.317L122.662 133.618C122.624 133.641 122.581 133.652 122.539 133.652Z" fill="white"/>
<path d="M125.804 135.479C125.723 135.479 125.645 135.438 125.599 135.364C125.53 135.251 125.566 135.103 125.679 135.034L144.666 123.401C144.778 123.333 144.926 123.367 144.996 123.481C145.066 123.593 145.03 123.741 144.917 123.811L125.929 135.444C125.89 135.468 125.847 135.479 125.804 135.479Z" fill="white"/>
<path d="M114.437 99.1719L103.698 93.0715C103.04 92.6981 102.234 92.6991 101.577 93.0754L68.5953 111.96C67.4159 112.635 67.4097 114.334 68.5842 115.018L86.4196 125.89L84.5601 118.892L114.456 101.14C115.207 100.694 115.197 99.6034 114.437 99.1719Z" fill="#9FBFFF"/>
<path d="M114.898 95.3765L104.144 89.2675C103.486 88.8941 102.68 88.8955 102.023 89.2714L69.0412 108.156C67.8618 108.831 67.8556 110.53 69.0302 111.214L78.5538 116.76C78.754 116.877 78.9647 116.965 79.1788 117.04L79.1687 117.043L86.865 122.086L85.0055 115.088L114.916 97.3272C115.661 96.8856 115.651 95.8042 114.898 95.3765Z" fill="#FFB54A"/>
<path d="M81.644 107.398C81.5624 107.398 81.4827 107.356 81.4376 107.28C81.3699 107.167 81.4069 107.019 81.5211 106.951L102.15 94.6502C102.264 94.583 102.411 94.6195 102.479 94.7338C102.547 94.8475 102.51 94.9949 102.395 95.063L81.7664 107.364C81.7285 107.387 81.6858 107.398 81.644 107.398Z" fill="white"/>
<path d="M84.9091 109.224C84.8279 109.224 84.7492 109.183 84.7041 109.109C84.6345 108.996 84.6705 108.849 84.7833 108.779L103.771 97.1458C103.884 97.0767 104.031 97.1122 104.101 97.225C104.17 97.3378 104.134 97.4856 104.022 97.5552L85.0343 109.188C84.995 109.212 84.9513 109.224 84.9091 109.224Z" fill="white"/>
<g opacity="0.5">
<path d="M164.313 79.3699L162.777 79.3829C158.922 79.415 155.771 76.3157 155.739 72.4613L155.675 64.6699C155.643 60.815 158.742 57.6643 162.597 57.6326L177.15 57.5122C176.777 57.4555 176.397 57.419 176.006 57.4224L160.894 57.5477C156.92 57.5808 153.725 60.8285 153.758 64.8024L153.825 72.8342C153.858 76.8082 157.105 80.5258 161.079 80.4926L162.925 80.4797L168.844 86.0347L174.394 80.3683L169.936 84.9005L164.313 79.3699Z" fill="#9FBFFF"/>
<path d="M168.851 86.3702L162.831 80.7201L161.081 80.7326C159.123 80.7422 157.243 79.895 155.797 78.3288C154.407 76.823 153.601 74.8209 153.584 72.8361L153.517 64.8043C153.501 62.8185 154.259 60.9446 155.652 59.5286C157.044 58.1126 158.905 57.324 160.891 57.3072L176.004 57.1819C176.358 57.1756 176.753 57.2092 177.185 57.2745L177.151 57.7517L162.598 57.8726C158.882 57.9033 155.883 60.9518 155.914 64.668L155.979 72.4588C156.009 76.1563 159.027 79.1428 162.718 79.1428C162.737 79.1428 162.755 79.1428 162.774 79.1428L164.41 79.1289L169.933 84.5606L174.222 80.1993L174.565 80.5353L174.564 80.5363L168.851 86.3702ZM163.02 80.2387L168.837 85.6987L169.607 84.9129L164.216 79.6108L162.779 79.6228C162.759 79.6228 162.739 79.6228 162.719 79.6228C158.765 79.6228 155.533 76.4237 155.5 72.4627L155.435 64.6713C155.409 61.5388 157.393 58.8489 160.179 57.8289C158.593 58.0036 157.129 58.7121 155.995 59.8646C154.692 61.1894 153.983 62.9419 153.998 64.8L154.065 72.8318C154.081 74.699 154.841 76.5835 156.151 78.0024C157.492 79.4544 159.222 80.2521 161.027 80.2521C161.044 80.2521 161.061 80.2521 161.078 80.2516L163.02 80.2387Z" fill="white"/>
<path d="M184.293 64.4328C184.261 60.5779 181.11 57.479 177.256 57.5112L177.15 57.5121L162.596 57.6326C158.741 57.6643 155.642 60.8155 155.675 64.6699L155.739 72.4613C155.771 76.3161 158.922 79.415 162.776 79.3828L164.313 79.3699L169.935 84.9L174.393 80.3678L175.465 79.2777L177.436 79.2614C181.291 79.2293 184.39 76.0785 184.357 72.2241L184.293 64.4328Z" fill="#9FBFFF"/>
<path d="M169.939 85.2398L164.216 79.6108L162.779 79.6228C162.758 79.6228 162.738 79.6228 162.718 79.6228C158.765 79.6228 155.532 76.4237 155.499 72.4627L155.435 64.6713C155.402 60.6907 158.614 57.4248 162.594 57.3921L177.253 57.2707C177.274 57.2707 177.295 57.2707 177.315 57.2707C179.221 57.2707 181.016 58.0051 182.376 59.3433C183.751 60.6955 184.517 62.5027 184.533 64.4309L184.598 72.2217C184.631 76.2029 181.419 79.4683 177.438 79.5014L175.567 79.5168L169.939 85.2398ZM164.411 79.1289L169.933 84.5606L175.364 79.0382L177.434 79.0209C181.15 78.9902 184.149 75.9417 184.118 72.2251L184.053 64.4342C184.038 62.6342 183.324 60.9475 182.04 59.6851C180.77 58.4361 179.094 57.7502 177.315 57.7502C177.296 57.7502 177.277 57.7502 177.258 57.7502L162.598 57.8717C158.882 57.9024 155.884 60.9509 155.915 64.667L155.979 72.4579C156.01 76.1553 159.028 79.1419 162.718 79.1419C162.737 79.1419 162.756 79.1419 162.775 79.1419L164.411 79.1289Z" fill="white"/>
<path d="M164.656 69.7027C164.239 70.6205 163.157 71.0261 162.24 70.6089C161.322 70.1918 160.916 69.1099 161.333 68.1921C161.75 67.2744 162.832 66.8688 163.75 67.2854C164.667 67.703 165.073 68.7849 164.656 69.7027Z" fill="#9FBFFF"/>
<path d="M162.991 71.0126C162.706 71.0126 162.416 70.9531 162.14 70.8278C161.104 70.3564 160.644 69.1296 161.115 68.0932C161.343 67.5912 161.753 67.2076 162.269 67.0142C162.785 66.8208 163.346 66.8395 163.849 67.0675C164.885 67.5384 165.346 68.7648 164.875 69.8016V69.802C164.53 70.5624 163.777 71.0126 162.991 71.0126ZM162.996 67.3617C162.807 67.3617 162.619 67.3953 162.438 67.4635C162.042 67.6123 161.727 67.9065 161.552 68.292C161.19 69.0878 161.543 70.0291 162.339 70.391C163.134 70.7529 164.077 70.3992 164.438 69.6038C164.799 68.808 164.446 67.8662 163.65 67.5048C163.441 67.4092 163.219 67.3617 162.996 67.3617Z" fill="white"/>
<path d="M171.639 69.5025C171.222 70.4203 170.14 70.8259 169.222 70.4092C168.304 69.9921 167.899 68.9102 168.316 67.9924C168.733 67.0747 169.815 66.6691 170.732 67.0857C171.65 67.5033 172.056 68.5852 171.639 69.5025Z" fill="#9FBFFF"/>
<path d="M169.974 70.8125C169.689 70.8125 169.399 70.7529 169.123 70.6277C168.621 70.3997 168.238 69.9893 168.044 69.4728C167.85 68.9563 167.87 68.3952 168.098 67.8931C168.326 67.391 168.735 67.008 169.252 66.8141C169.768 66.6206 170.329 66.6389 170.832 66.8673C171.334 67.0958 171.717 67.5057 171.911 68.0222C172.105 68.5387 172.085 69.0998 171.857 69.6019C171.512 70.3622 170.76 70.8125 169.974 70.8125ZM169.978 67.1616C169.79 67.1616 169.602 67.1952 169.421 67.2633C169.024 67.4121 168.71 67.7059 168.534 68.0913C168.359 68.4768 168.344 68.9073 168.493 69.3038C168.642 69.7003 168.936 70.0147 169.322 70.1904C170.117 70.5518 171.059 70.199 171.421 69.4027C171.596 69.0173 171.61 68.5867 171.462 68.1907C171.313 67.7942 171.019 67.4793 170.633 67.3041C170.424 67.2096 170.201 67.1616 169.978 67.1616Z" fill="white"/>
<path d="M178.453 69.3076C178.036 70.2254 176.954 70.631 176.037 70.2143C175.119 69.7972 174.714 68.7153 175.13 67.7975C175.548 66.8798 176.629 66.4742 177.547 66.8913C178.465 67.3079 178.87 68.3899 178.453 69.3076Z" fill="#9FBFFF"/>
<path d="M176.791 70.619C176.5 70.619 176.21 70.5571 175.937 70.4328C175.435 70.2043 175.052 69.7944 174.858 69.2779C174.664 68.7614 174.684 68.2003 174.912 67.6982C175.383 66.6614 176.611 66.202 177.646 66.6724C178.148 66.9004 178.531 67.3108 178.725 67.8273C178.919 68.3438 178.899 68.9049 178.671 69.407C178.443 69.9091 178.034 70.2926 177.517 70.4865C177.281 70.5748 177.036 70.619 176.791 70.619ZM176.794 66.9676C176.191 66.9676 175.614 67.3132 175.348 67.8969C175.173 68.2824 175.158 68.7129 175.307 69.1089C175.456 69.5054 175.75 69.8203 176.136 69.9955C176.521 70.1697 176.952 70.1846 177.349 70.0363C177.745 69.8875 178.059 69.5932 178.235 69.2078C178.41 68.8224 178.424 68.3913 178.276 67.9948C178.127 67.5984 177.833 67.284 177.447 67.1083C177.235 67.0132 177.013 66.9676 176.794 66.9676Z" fill="white"/>
</g>
<path d="M144.438 89.974L143.199 89.9841C140.092 90.01 137.553 87.5121 137.527 84.4046L137.475 78.1243C137.449 75.0172 139.947 72.4775 143.054 72.4516L154.786 72.3547C154.485 72.3091 154.178 72.2798 153.864 72.2822L141.682 72.383C138.479 72.4094 135.903 75.0278 135.93 78.2308L135.984 84.7051C136.01 87.9081 138.628 90.9047 141.831 90.8783L143.319 90.8678L148.09 95.3452L152.563 90.7775L148.97 94.4308L144.438 89.974Z" fill="#C12736"/>
<path d="M160.543 77.9337C160.517 74.8267 157.978 72.3288 154.871 72.3542L154.786 72.3552L143.054 72.4521C139.947 72.478 137.449 75.0177 137.475 78.1248L137.527 84.4051C137.553 87.5121 140.092 90.01 143.199 89.9846L144.438 89.9745L148.97 94.4323L152.564 90.779L153.428 89.9001L155.017 89.8867C158.124 89.8608 160.621 87.3211 160.596 84.214L160.543 77.9337Z" fill="#F13C45"/>
<path d="M148.949 87.1118C148.893 87.1118 148.857 87.0825 148.816 87.0484C147.562 86.0184 146.339 84.9067 145.156 83.8315L144.939 83.6342C143.919 82.7073 142.762 81.4315 142.875 79.7784C142.992 78.0624 144.371 76.7697 146.081 76.7697C146.083 76.7697 146.084 76.7697 146.086 76.7697C147.274 76.7712 148.365 77.4273 148.944 78.4468C149.524 77.4297 150.616 76.7764 151.803 76.7764C151.805 76.7764 151.806 76.7764 151.807 76.7764C153.123 76.7779 154.347 77.5953 154.852 78.8107C155.024 79.2235 155.104 79.6531 155.092 80.088C155.047 81.6456 153.888 82.8326 152.807 83.8228L152.647 83.9702C149.771 86.6184 149.181 87.1118 148.949 87.1118ZM146.081 77.2492C144.602 77.2492 143.455 78.3259 143.353 79.8105C143.255 81.2582 144.321 82.4241 145.261 83.2785L145.479 83.4763C146.618 84.5116 147.794 85.5806 148.996 86.5752C149.257 86.3817 150.043 85.715 152.321 83.6164L152.482 83.4681C153.538 82.5019 154.571 81.444 154.611 80.0731C154.621 79.7068 154.553 79.344 154.408 78.994C153.976 77.9553 152.93 77.2569 151.805 77.2555C151.804 77.2555 151.803 77.2555 151.802 77.2555C150.636 77.2555 149.578 77.9947 149.168 79.0958L148.942 79.7011L148.717 79.0953C148.308 77.9923 147.25 77.2502 146.084 77.2492C146.084 77.2492 146.082 77.2492 146.081 77.2492Z" fill="white"/>
<path d="M164.313 108.739L162.777 108.752C158.922 108.783 155.771 105.684 155.739 101.83L155.675 94.0387C155.642 90.1838 158.742 87.0331 162.596 87.0014L177.15 86.8809C176.776 86.8243 176.396 86.7878 176.006 86.7912L160.893 86.9164C156.919 86.9496 153.725 90.1977 153.757 94.1712L153.824 102.203C153.857 106.177 157.105 109.895 161.079 109.861L162.924 109.848L168.844 115.403L174.393 109.737L169.935 114.269L164.313 108.739Z" fill="#3A5CE8"/>
<path d="M184.293 93.8015C184.261 89.9467 181.11 86.8478 177.256 86.8799L177.15 86.8809L162.596 87.0014C158.741 87.0336 155.642 90.1843 155.675 94.0387L155.739 101.83C155.771 105.685 158.922 108.784 162.777 108.752L164.313 108.739L169.936 114.269L174.394 109.737L175.466 108.647L177.436 108.63C181.291 108.598 184.39 105.447 184.358 101.593L184.293 93.8015Z" fill="#444CE7"/>
<path d="M180.254 94.5628H160.489C160.357 94.5628 160.249 94.4553 160.249 94.3228C160.249 94.1903 160.357 94.0828 160.489 94.0828H180.254C180.386 94.0828 180.494 94.1903 180.494 94.3228C180.494 94.4558 180.387 94.5628 180.254 94.5628Z" fill="white"/>
<path d="M180.254 102.102H160.489C160.357 102.102 160.249 101.994 160.249 101.862C160.249 101.729 160.357 101.622 160.489 101.622H180.254C180.386 101.622 180.494 101.729 180.494 101.862C180.494 101.994 180.387 102.102 180.254 102.102Z" fill="white"/>
<path d="M170.016 98.3745H160.489C160.357 98.3745 160.249 98.267 160.249 98.1345C160.249 98.0021 160.357 97.8945 160.489 97.8945H170.016C170.149 97.8945 170.256 98.0021 170.256 98.1345C170.256 98.2675 170.149 98.3745 170.016 98.3745Z" fill="white"/>
<path d="M180.254 98.3745H172.574C172.442 98.3745 172.334 98.267 172.334 98.1345C172.334 98.0021 172.442 97.8945 172.574 97.8945H180.254C180.386 97.8945 180.494 98.0021 180.494 98.1345C180.494 98.2675 180.387 98.3745 180.254 98.3745Z" fill="white"/>
<g opacity="0.43">
<path d="M74.0136 66.3792L71.1432 66.4027C63.9432 66.4623 58.0579 60.6739 57.9984 53.4739L57.8779 38.9213C57.8184 31.7213 63.6067 25.836 70.8067 25.7765L98.075 25.5504C97.3522 25.4367 96.611 25.3771 95.855 25.3834L67.6262 25.6171C60.2035 25.6786 54.2362 31.7458 54.2981 39.1685L54.4224 54.1709C54.4838 61.5936 60.551 68.5378 67.9738 68.4763L71.4211 68.4519L82.4774 78.8275L92.8426 68.2435L84.516 76.7093L74.0136 66.3792Z" fill="white"/>
<path d="M82.4842 79.163L71.3266 68.6923L67.9752 68.7158C67.9435 68.7163 67.9109 68.7163 67.8792 68.7163C60.636 68.7163 54.2467 61.9459 54.1824 54.1728L54.0581 39.1699C54.0279 35.5161 55.4223 32.0688 57.9845 29.4638C60.5467 26.8589 63.9706 25.4073 67.6243 25.3771L95.8527 25.1433C96.5904 25.1366 97.356 25.1942 98.1115 25.3133L98.076 25.7904L70.8087 26.016C67.3906 26.0443 64.188 27.4022 61.7909 29.8392C59.3938 32.2761 58.0891 35.5008 58.1179 38.9189L58.2384 53.472C58.297 60.492 64.0272 66.1632 71.0343 66.1632C71.0703 66.1632 71.1053 66.1627 71.1418 66.1627L74.1115 66.1377L84.5131 76.3689L92.6712 68.0746L93.0139 68.4105L82.4842 79.163ZM71.5152 68.2109L82.4703 78.491L84.1954 76.7294L73.9167 66.6192L71.1461 66.6422C71.1087 66.6422 71.0717 66.6427 71.0347 66.6427C63.7642 66.6427 57.8194 60.7589 57.7589 53.4753L57.6384 38.9222C57.6087 35.376 58.9623 32.0304 61.4491 29.5022C63.2674 27.6533 65.5325 26.4033 68.005 25.8533L67.6287 25.8561C64.1031 25.8854 60.7997 27.2861 58.3272 29.7993C55.8547 32.3126 54.5093 35.6395 54.5386 39.1651L54.6629 54.168C54.7253 61.6867 60.8904 68.2358 67.8797 68.2358C67.9104 68.2358 67.9411 68.2358 67.9723 68.2353L71.5152 68.2109Z" fill="#9FBFFF"/>
<path d="M111.334 38.4782C111.275 31.2782 105.389 25.4894 98.1893 25.5494L98.075 25.5504L70.8067 25.776C63.6067 25.8355 57.8179 31.7208 57.8779 38.9208L57.9984 53.4734C58.0579 60.6734 63.9432 66.4622 71.1432 66.4022L74.0136 66.3787L84.5155 76.7083L92.8421 68.2425L94.8451 66.2059L98.5253 66.1752C105.725 66.1157 111.514 60.2304 111.454 53.0304L111.334 38.4782Z" fill="white"/>
<path d="M84.5189 77.0481L73.9167 66.6197L71.1461 66.6427C71.1087 66.6427 71.0717 66.6432 71.0347 66.6432C63.7642 66.6437 57.8194 60.7593 57.7589 53.4758L57.6384 38.9227C57.6087 35.3765 58.9623 32.0309 61.4491 29.5027C63.936 26.9741 67.2586 25.5653 70.8053 25.536L98.1879 25.309C101.738 25.2994 105.08 26.6333 107.608 29.1197C110.137 31.6066 111.546 34.9291 111.575 38.4758L111.696 53.0289C111.757 60.3494 105.85 66.3552 98.5287 66.4157L94.9479 66.4454L84.5189 77.0481ZM74.1111 66.1382L84.5127 76.3694L94.7434 65.9678L98.5234 65.9366C105.579 65.8781 111.273 60.0897 111.214 53.0337L111.093 38.4806C111.065 35.0625 109.707 31.86 107.27 29.4629C104.833 27.0657 101.617 25.7635 98.1898 25.7899L70.8087 26.016C67.3906 26.0443 64.188 27.4022 61.7909 29.8392C59.3938 32.2761 58.0891 35.5008 58.1179 38.9189L58.2384 53.4715C58.297 60.4915 64.0272 66.1627 71.0343 66.1627C71.0703 66.1627 71.1053 66.1622 71.1418 66.1622L74.1111 66.1382Z" fill="#9FBFFF"/>
<path d="M74.6544 48.3216C73.8754 50.0357 71.8546 50.7936 70.1405 50.015C68.4264 49.236 67.6685 47.2152 68.4471 45.5011C69.2261 43.787 71.2469 43.0291 72.961 43.8077C74.6755 44.5867 75.4335 46.6075 74.6544 48.3216Z" fill="white"/>
<path d="M71.5455 50.5603C71.0415 50.5603 70.5293 50.4557 70.0412 50.2334C68.2095 49.4011 67.3964 47.2334 68.2287 45.4017C69.061 43.5705 71.2287 42.7569 73.0604 43.5897C73.9479 43.9929 74.6247 44.7178 74.9674 45.6302C75.3097 46.5427 75.2765 47.5339 74.8729 48.4214C74.2623 49.7645 72.9332 50.5603 71.5455 50.5603ZM71.5556 43.7424C70.3503 43.7424 69.1964 44.4331 68.666 45.6C67.9431 47.1907 68.6492 49.0733 70.2404 49.7961C71.0108 50.1465 71.8719 50.1754 72.6644 49.8778C73.4569 49.5806 74.0861 48.9921 74.4365 48.2218C74.7865 47.4514 74.8157 46.5902 74.5186 45.7978C74.221 45.0053 73.633 44.376 72.8621 44.0256C72.4383 43.8336 71.9933 43.7424 71.5556 43.7424Z" fill="#9FBFFF"/>
<path d="M87.697 47.9482C86.9179 49.6622 84.8971 50.4202 83.183 49.6416C81.469 48.8626 80.711 46.8418 81.4901 45.1277C82.2691 43.4136 84.2899 42.6557 86.004 43.4342C87.7181 44.2133 88.476 46.2341 87.697 47.9482Z" fill="white"/>
<path d="M84.5919 50.1888C84.0783 50.1888 83.5656 50.0789 83.0837 49.86C81.252 49.0277 80.4389 46.86 81.2717 45.0283C81.6749 44.1413 82.3997 43.464 83.3122 43.1218C84.2247 42.7795 85.2164 42.8131 86.1034 43.2163C86.9909 43.6195 87.6677 44.3443 88.0104 45.2568C88.3527 46.1693 88.3191 47.1605 87.9159 48.048C87.5127 48.9355 86.7879 49.6123 85.8754 49.9551C85.4583 50.1111 85.0244 50.1888 84.5919 50.1888ZM84.5981 43.369C83.3928 43.369 82.2389 44.0597 81.7085 45.2271C80.9856 46.8178 81.6917 48.7003 83.2824 49.4232C84.0528 49.7731 84.9139 49.8024 85.7064 49.5053C86.4989 49.2077 87.1282 48.6197 87.4786 47.8488C87.829 47.0784 87.8583 46.2173 87.5607 45.4248C87.2636 44.6323 86.6751 44.0031 85.9047 43.6527C85.4808 43.4607 85.0359 43.369 84.5981 43.369Z" fill="#9FBFFF"/>
<path d="M100.426 47.5838C99.6465 49.2979 97.6257 50.0558 95.9116 49.2768C94.1975 48.4978 93.4396 46.477 94.2182 44.7629C94.9972 43.0488 97.018 42.2909 98.7321 43.0694C100.446 43.849 101.204 45.8698 100.426 47.5838Z" fill="white"/>
<path d="M97.3166 49.8221C96.8126 49.8221 96.3005 49.7175 95.8123 49.4952C94.9248 49.092 94.248 48.3672 93.9053 47.4547C93.563 46.5423 93.5961 45.5511 93.9998 44.6635C94.8321 42.8323 97.0003 42.0187 98.8315 42.8511C100.663 43.6834 101.476 45.8511 100.644 47.6827C100.033 49.0267 98.7043 49.8221 97.3166 49.8221ZM97.3272 43.0047C96.1214 43.0047 94.9675 43.6954 94.4371 44.8627C94.0867 45.6331 94.0579 46.4943 94.355 47.2867C94.6526 48.0792 95.2406 48.7085 96.0115 49.0589C97.6027 49.7813 99.4848 49.0757 100.208 47.485C100.931 45.8943 100.224 44.0117 98.6337 43.2888C98.2089 43.0959 97.7645 43.0047 97.3272 43.0047Z" fill="#9FBFFF"/>
<path d="M108.633 70.1899L107.187 70.2019C103.562 70.2321 100.599 67.3176 100.569 63.6926L100.509 56.3654C100.478 52.7405 103.393 49.7774 107.018 49.7472L120.705 49.6339C120.353 49.5806 119.996 49.5465 119.629 49.5494L105.417 49.667C101.679 49.6977 98.6751 52.7525 98.7063 56.4897L98.7687 64.043C98.7994 67.7803 101.854 71.2761 105.591 71.2454L107.327 71.2329L112.894 76.4568L118.112 71.1278L113.92 75.3902L108.633 70.1899Z" fill="white"/>
<path d="M112.901 76.7932L107.233 71.4744L105.593 71.4859C103.73 71.5017 101.977 70.6963 100.614 69.2203C99.3044 67.8019 98.5445 65.9155 98.5292 64.0454L98.4668 56.4921C98.4351 52.6286 101.552 49.4596 105.416 49.4275L119.628 49.3094C119.968 49.307 120.335 49.3353 120.742 49.3968L120.708 49.8739L107.021 49.9872C105.332 50.0011 103.749 50.6721 102.565 51.8764C101.38 53.0808 100.735 54.6744 100.749 56.3635L100.81 63.6907C100.824 65.3798 101.495 66.9624 102.699 68.147C103.903 69.3312 105.495 69.9796 107.186 69.9619L108.731 69.9494L113.918 75.0513L117.942 70.9603L118.285 71.2963L118.284 71.2972L112.901 76.7932ZM107.421 70.9924L112.886 76.1212L113.59 75.4027L108.535 70.4304L107.189 70.4414C107.17 70.4414 107.15 70.4414 107.131 70.4414C105.335 70.4414 103.643 69.7493 102.361 68.4883C101.065 67.2139 100.343 65.5108 100.328 63.6936L100.268 56.3664C100.253 54.5491 100.946 52.835 102.221 51.539C102.909 50.8392 103.723 50.3068 104.612 49.9627C101.395 50.388 98.918 53.1614 98.9453 56.4873L99.0078 64.0406C99.0222 65.7926 99.7359 67.5619 100.966 68.8939C102.235 70.2696 103.862 71.0246 105.589 71.0049L107.421 70.9924Z" fill="#9FBFFF"/>
<path d="M127.422 56.1427C127.392 52.5177 124.429 49.6032 120.804 49.6334L120.704 49.6344L107.017 49.7477C103.392 49.7779 100.478 52.7409 100.508 56.3659L100.569 63.6931C100.599 67.3181 103.562 70.2326 107.187 70.2024L108.632 70.1904L113.92 75.3912L118.112 71.1288L119.121 70.1035L120.973 70.0881C124.598 70.0579 127.513 67.0949 127.483 63.4699L127.422 56.1427Z" fill="white"/>
<path d="M113.923 75.73L108.535 70.4308L107.189 70.4419C105.374 70.464 103.657 69.7632 102.361 68.4892C101.065 67.2148 100.344 65.5118 100.329 63.6945L100.268 56.3673C100.253 54.55 100.947 52.836 102.221 51.54C103.496 50.2444 105.198 49.5225 107.016 49.5076L120.802 49.3934C122.62 49.3564 124.334 50.0721 125.63 51.3465C126.925 52.6209 127.647 54.324 127.662 56.1412L127.723 63.4684C127.738 65.2857 127.045 67.0003 125.771 68.2958C124.496 69.5918 122.793 70.3137 120.976 70.3286L119.223 70.343L113.923 75.73ZM108.73 69.9489L113.917 75.0508L119.019 69.8635L120.972 69.8472C122.661 69.8332 124.243 69.1622 125.428 67.9579C126.613 66.7536 127.257 65.16 127.243 63.4708L127.182 56.1436C127.168 54.4545 126.497 52.872 125.292 51.6873C124.101 50.5156 122.528 49.872 120.86 49.872C120.842 49.872 120.824 49.872 120.806 49.872L107.019 49.9862C105.33 50.0001 103.748 50.6712 102.563 51.8755C101.378 53.0798 100.734 54.6734 100.748 56.3625L100.808 63.6897C100.822 65.3788 101.493 66.9614 102.697 68.146C103.902 69.3302 105.494 69.9787 107.184 69.9609L108.73 69.9489Z" fill="#9FBFFF"/>
<path d="M113.88 66.9811C112.985 66.9811 112.145 66.851 111.361 66.5918C110.576 66.3321 109.894 65.9342 109.314 65.3985C108.734 64.8624 108.278 64.1861 107.947 63.3681C107.615 62.5507 107.449 61.5782 107.449 60.4512C107.449 59.3573 107.613 58.3853 107.939 57.5342C108.264 56.6837 108.728 55.968 109.331 55.3877C109.933 54.8073 110.654 54.3657 111.493 54.0619C112.333 53.7581 113.267 53.6064 114.295 53.6064C115.356 53.6064 116.276 53.747 117.055 54.0288C117.834 54.3105 118.483 54.7142 119.002 55.2389C119.521 55.764 119.908 56.4048 120.162 57.1617C120.416 57.9187 120.543 58.7669 120.543 59.7057C120.543 61.0315 120.267 62.0678 119.715 62.8133C119.162 63.5592 118.345 63.9321 117.262 63.9321C116.974 63.9321 116.723 63.8909 116.508 63.8078C116.292 63.7248 116.11 63.6173 115.96 63.4848C115.811 63.3523 115.698 63.2059 115.621 63.0456C115.543 62.8857 115.493 62.7225 115.471 62.5565H115.405C115.117 62.9875 114.742 63.3105 114.278 63.5261C113.814 63.7416 113.333 63.8496 112.836 63.8496C112.084 63.8496 111.51 63.5817 111.112 63.0456C110.714 62.5099 110.516 61.7942 110.516 60.899C110.516 60.2803 110.609 59.7086 110.797 59.1835C110.985 58.6589 111.253 58.2057 111.601 57.8246C111.949 57.4435 112.375 57.1478 112.878 56.9376C113.38 56.7278 113.941 56.6227 114.56 56.6227C114.958 56.6227 115.392 56.6779 115.861 56.7883C116.145 56.855 116.433 56.94 116.727 57.0432C117.065 57.1617 117.265 57.5131 117.198 57.8649L116.665 60.6667C116.642 60.8102 116.62 60.9566 116.599 61.1059C116.576 61.2552 116.566 61.3958 116.566 61.5283C116.566 61.7827 116.624 61.9901 116.74 62.1499C116.856 62.3102 117.063 62.3904 117.361 62.3904C117.781 62.3904 118.11 62.1528 118.347 61.6776C118.585 61.2024 118.704 60.5453 118.704 59.7053C118.704 58.3353 118.345 57.2635 117.626 56.4897C116.908 55.7165 115.798 55.3296 114.295 55.3296C113.543 55.3296 112.858 55.4429 112.24 55.6694C111.621 55.896 111.093 56.2277 110.657 56.664C110.22 57.1008 109.884 57.6365 109.646 58.2715C109.408 58.907 109.29 59.6337 109.29 60.4512C109.29 61.2912 109.408 62.015 109.646 62.6222C109.884 63.2299 110.209 63.7329 110.624 64.1304C111.038 64.5283 111.524 64.8206 112.082 65.0088C112.64 65.1965 113.24 65.2905 113.881 65.2905C114.322 65.2905 114.828 65.2325 115.397 65.1163C115.764 65.0414 116.144 64.9517 116.536 64.847C116.907 64.7481 117.292 64.9545 117.412 65.3193L117.489 65.5521C117.619 65.9462 117.393 66.372 116.992 66.4805C116.537 66.6038 116.097 66.707 115.67 66.7901C115.018 66.9173 114.421 66.9811 113.88 66.9811ZM113.267 62.2905C113.653 62.2905 114.015 62.1389 114.352 61.8345C114.689 61.5307 114.919 61.0473 115.04 60.3845L115.29 58.9833C115.367 58.5485 115.042 58.1313 114.601 58.1304C114.598 58.1304 114.595 58.1304 114.592 58.1304C114.261 58.1304 113.957 58.1995 113.681 58.3377C113.404 58.476 113.167 58.6694 112.968 58.9181C112.769 59.1667 112.614 59.4595 112.504 59.7965C112.393 60.1334 112.338 60.5006 112.338 60.8985C112.338 61.3075 112.41 61.6421 112.554 61.9013C112.697 62.1609 112.935 62.2905 113.267 62.2905Z" fill="white"/>
<path d="M113.88 67.2211C112.964 67.2211 112.091 67.0857 111.285 66.8193C110.472 66.5501 109.754 66.1315 109.151 65.5742C108.547 65.016 108.067 64.3041 107.724 63.4579C107.382 62.6155 107.209 61.6037 107.209 60.4507C107.209 59.3323 107.379 58.3219 107.714 57.4478C108.051 56.568 108.538 55.8168 109.164 55.2144C109.786 54.6139 110.543 54.1502 111.411 53.8353C112.273 53.5238 113.244 53.3654 114.294 53.3654C115.378 53.3654 116.334 53.5123 117.135 53.8022C117.944 54.0945 118.629 54.5208 119.172 55.0689C119.715 55.6181 120.124 56.2963 120.389 57.0845C120.65 57.863 120.783 58.7448 120.783 59.7053C120.783 61.0776 120.488 62.171 119.907 62.9558C119.309 63.7627 118.418 64.1717 117.261 64.1717C116.946 64.1717 116.663 64.1246 116.421 64.0315C116.18 63.9384 115.971 63.8145 115.801 63.6633C115.629 63.5102 115.495 63.3369 115.405 63.1488C115.384 63.107 115.366 63.0648 115.349 63.0225C115.079 63.3278 114.754 63.5693 114.379 63.743C113.886 63.9725 113.367 64.0886 112.836 64.0886C112.008 64.0886 111.363 63.7857 110.919 63.1877C110.492 62.6121 110.276 61.8422 110.276 60.8985C110.276 60.2539 110.376 59.6496 110.571 59.1019C110.769 58.5499 111.056 58.0656 111.424 57.6619C111.794 57.2563 112.252 56.9381 112.785 56.7153C113.654 56.3529 114.665 56.2603 115.915 56.5541C116.207 56.6227 116.507 56.711 116.806 56.8161C117.252 56.9726 117.522 57.443 117.433 57.9096L116.835 61.1405C116.815 61.2777 116.805 61.4064 116.805 61.5283C116.805 61.7294 116.848 61.8912 116.933 62.0088C117.001 62.1029 117.145 62.1499 117.361 62.1499C117.684 62.1499 117.937 61.9598 118.132 61.5696C118.352 61.1304 118.463 60.503 118.463 59.7048C118.463 58.404 118.122 57.3768 117.45 56.6529C116.782 55.9339 115.72 55.5691 114.294 55.5691C113.575 55.5691 112.911 55.6785 112.322 55.8945C111.739 56.1077 111.235 56.424 110.826 56.8329C110.416 57.2429 110.095 57.7545 109.87 58.355C109.644 58.9603 109.529 59.6649 109.529 60.4507C109.529 61.2571 109.644 61.9584 109.869 62.5344C110.093 63.1065 110.402 63.5851 110.789 63.9566C111.176 64.3277 111.636 64.6046 112.159 64.7808C112.689 64.9593 113.269 65.0501 113.881 65.0501C114.304 65.0501 114.798 64.9929 115.349 64.8806C115.706 64.8077 116.085 64.7184 116.474 64.6147C116.968 64.4837 117.481 64.7587 117.64 65.244L117.717 65.4768C117.8 65.7278 117.776 66.0057 117.65 66.2385C117.523 66.4737 117.312 66.6417 117.055 66.7113C116.595 66.8361 116.145 66.9413 115.716 67.0248C115.051 67.1553 114.433 67.2211 113.88 67.2211ZM114.294 53.8454C113.299 53.8454 112.384 53.9942 111.575 54.287C110.77 54.5784 110.071 55.007 109.497 55.56C108.923 56.1129 108.474 56.8056 108.163 57.6192C107.849 58.4385 107.689 59.3913 107.689 60.4507C107.689 61.5417 107.851 62.4926 108.169 63.2774C108.485 64.0579 108.925 64.7121 109.477 65.2219C110.029 65.7321 110.689 66.1161 111.436 66.3638C112.193 66.6139 113.016 66.7411 113.881 66.7411C114.403 66.7411 114.99 66.6782 115.624 66.5549C116.041 66.4733 116.481 66.371 116.929 66.2491C117.058 66.2141 117.164 66.1301 117.228 66.0115C117.292 65.892 117.304 65.7557 117.262 65.6275L117.185 65.3947C117.104 65.1509 116.846 65.0112 116.598 65.0789C116.199 65.1854 115.811 65.2771 115.445 65.3515C114.863 65.4705 114.336 65.5305 113.881 65.5305C113.216 65.5305 112.585 65.4312 112.006 65.2358C111.416 65.0371 110.895 64.7237 110.457 64.3032C110.019 63.8827 109.671 63.3465 109.422 62.7091C109.175 62.0769 109.049 61.3171 109.049 60.4507C109.049 59.6078 109.174 58.8461 109.421 58.187C109.669 57.5222 110.029 56.9525 110.487 56.4941C110.946 56.0352 111.508 55.6814 112.157 55.4438C112.8 55.2086 113.519 55.0896 114.295 55.0896C115.86 55.0896 117.039 55.5057 117.802 56.3265C118.56 57.1425 118.944 58.2792 118.944 59.7053C118.944 60.5789 118.815 61.2782 118.562 61.7851C118.213 62.4835 117.716 62.6304 117.361 62.6304C116.983 62.6304 116.709 62.5161 116.545 62.2905C116.4 62.0894 116.326 61.8331 116.326 61.5283C116.326 61.3838 116.338 61.2297 116.362 61.0699L116.428 60.6293L116.963 57.8193C117.007 57.5841 116.872 57.3475 116.648 57.2688C116.365 57.1689 116.081 57.0859 115.807 57.0211C114.656 56.7509 113.746 56.8349 112.971 57.1584C112.503 57.3537 112.102 57.6317 111.78 57.9854C111.455 58.3416 111.201 58.7717 111.024 59.2637C110.847 59.759 110.757 60.3091 110.757 60.8981C110.757 61.7366 110.941 62.4105 111.306 62.9016C111.659 63.3773 112.16 63.6086 112.837 63.6086C113.297 63.6086 113.748 63.5073 114.178 63.3077C114.599 63.1123 114.945 62.8147 115.206 62.4225L115.277 62.3155H115.682L115.71 62.5238C115.729 62.664 115.772 62.8037 115.837 62.9395C115.901 63.0705 115.996 63.1929 116.121 63.3038C116.248 63.4166 116.407 63.5107 116.595 63.5827C116.782 63.6547 117.006 63.6912 117.263 63.6912C118.274 63.6912 119.013 63.3571 119.523 62.6693C120.042 61.9694 120.304 60.9715 120.304 59.7048C120.304 58.7966 120.18 57.9662 119.935 57.2371C119.694 56.5185 119.323 55.9032 118.832 55.4069C118.34 54.9096 117.714 54.5217 116.974 54.2539C116.223 53.9827 115.322 53.8454 114.294 53.8454ZM113.267 62.5305C112.849 62.5305 112.529 62.3529 112.344 62.0169C112.181 61.7237 112.099 61.3469 112.099 60.8981C112.099 60.4766 112.158 60.0801 112.276 59.7211C112.395 59.3592 112.564 59.0381 112.781 58.7673C113.001 58.4928 113.268 58.2758 113.574 58.1222C113.882 57.9681 114.225 57.8899 114.593 57.8899C114.876 57.8904 115.136 58.0137 115.314 58.2278C115.5 58.4501 115.577 58.7405 115.526 59.0251L115.277 60.4262C115.146 61.1409 114.889 61.6742 114.514 62.0126C114.132 62.3563 113.713 62.5305 113.267 62.5305ZM114.6 58.3704C114.3 58.3704 114.029 58.4313 113.788 58.5518C113.545 58.6737 113.332 58.847 113.156 59.0673C112.975 59.2929 112.833 59.5632 112.732 59.8704C112.631 60.1814 112.579 60.527 112.579 60.8981C112.579 61.2648 112.641 61.5629 112.764 61.7846C112.864 61.9661 113.024 62.0505 113.267 62.0505C113.595 62.0505 113.898 61.9214 114.192 61.6565C114.487 61.3905 114.693 60.948 114.804 60.3413L115.054 58.9411C115.08 58.7966 115.041 58.6488 114.946 58.5355C114.857 58.4294 114.734 58.3709 114.6 58.3704Z" fill="#9FBFFF"/>
</g>
<path d="M55.3344 76.0829L52.464 76.1069C45.264 76.1664 39.3787 70.3781 39.3192 63.1781L39.1987 48.625C39.1392 41.425 44.9275 35.5397 52.1275 35.4802L79.3959 35.2541C78.673 35.1399 77.9319 35.0808 77.1759 35.0871L48.9475 35.3208C41.5248 35.3823 35.5575 41.4495 35.6194 48.8722L35.7437 63.8746C35.8051 71.2973 41.8723 78.2415 49.2946 78.18L52.7424 78.1555L63.7987 88.5312L74.1639 77.9472L65.8373 86.413L55.3344 76.0829Z" fill="#3A5CE8"/>
<path d="M92.6544 48.1819C92.5949 40.9819 86.7096 35.1931 79.5096 35.2531L79.3953 35.2541L52.127 35.4802C44.927 35.5397 39.1382 41.425 39.1982 48.625L39.3187 63.1781C39.3782 70.3781 45.2635 76.1664 52.4635 76.1069L55.3339 76.0829L65.8358 86.4125L74.1624 77.9468L76.1654 75.9101L79.8456 75.8794C87.0456 75.8199 92.8344 69.9346 92.7744 62.7346L92.6544 48.1819Z" fill="#444CE7"/>
<path d="M52.8696 60.2659C52.356 60.2659 51.8433 60.156 51.3614 59.9371C49.5297 59.1048 48.7166 56.9371 49.5494 55.1055C49.9526 54.2179 50.6774 53.5411 51.5899 53.1984C52.5019 52.8557 53.4936 52.8893 54.3811 53.293C55.2686 53.6962 55.9454 54.421 56.2881 55.3335C56.6304 56.2459 56.5968 57.2371 56.1936 58.1247C55.7904 59.0122 55.0656 59.689 54.1531 60.0317C53.736 60.1882 53.3025 60.2659 52.8696 60.2659ZM52.8729 53.4447C52.4971 53.4447 52.1208 53.5123 51.7584 53.6482C50.9659 53.9458 50.3366 54.5338 49.9862 55.3047C49.2633 56.8949 49.9694 58.7775 51.5601 59.5008C52.3305 59.8512 53.1912 59.8795 53.9841 59.5829C54.7766 59.2853 55.4059 58.6973 55.7563 57.9264C56.1067 57.156 56.136 56.2949 55.8384 55.5024C55.5413 54.7099 54.9528 54.0807 54.1824 53.7303C53.7643 53.5397 53.3193 53.4447 52.8729 53.4447Z" fill="white"/>
<path d="M65.9088 59.8906C65.4048 59.8906 64.8927 59.7859 64.4045 59.5637C62.5728 58.7314 61.7597 56.5637 62.5925 54.732C62.9957 53.8445 63.7205 53.1677 64.633 52.825C65.545 52.4827 66.5367 52.5163 67.4242 52.9195C69.2559 53.7518 70.069 55.9195 69.2367 57.7512C68.6256 59.0952 67.2965 59.8906 65.9088 59.8906ZM65.9156 53.0712C65.5397 53.0712 65.1634 53.1389 64.801 53.2747C64.0085 53.5723 63.3792 54.1603 63.0288 54.9312C62.3059 56.5219 63.012 58.4045 64.6028 59.1274C66.1935 59.8502 68.076 59.1442 68.7989 57.5534C69.5213 55.9627 68.8152 54.0802 67.2245 53.3573C66.8069 53.1667 66.362 53.0712 65.9156 53.0712Z" fill="white"/>
<path d="M78.6409 59.5287C78.1273 59.5287 77.6146 59.4188 77.1327 59.1994C76.2452 58.7962 75.5684 58.0714 75.2257 57.1589C74.8834 56.2464 74.917 55.2552 75.3202 54.3677C75.7234 53.4802 76.4482 52.8034 77.3607 52.4607C78.2727 52.1189 79.2644 52.1516 80.1519 52.5552C81.0394 52.9584 81.7162 53.6832 82.0589 54.5957C82.4012 55.5082 82.3676 56.4994 81.9644 57.3869C81.5612 58.2744 80.8364 58.9512 79.9239 59.294C79.5073 59.4504 79.0733 59.5287 78.6409 59.5287ZM78.6442 52.7069C78.2684 52.7069 77.8921 52.7746 77.5297 52.9104C76.7372 53.2076 76.1079 53.796 75.7575 54.5664C75.4071 55.3368 75.3783 56.198 75.6754 56.9904C75.9725 57.7829 76.561 58.4122 77.3314 58.7626C78.1028 59.1125 78.9629 59.1418 79.7554 58.8447C80.5479 58.5476 81.1772 57.9591 81.5276 57.1887C81.878 56.4183 81.9068 55.5572 81.6097 54.7647C81.3125 53.9722 80.7241 53.3429 79.9537 52.9925C79.5351 52.8024 79.0901 52.7069 78.6442 52.7069Z" fill="white"/>
<path d="M89.953 79.8941L88.5077 79.9061C84.8828 79.9363 81.9197 77.0217 81.8895 73.3968L81.829 66.0696C81.7988 62.4446 84.7133 59.4816 88.3383 59.4513L102.025 59.3381C101.674 59.2848 101.316 59.2507 100.949 59.2536L86.737 59.3712C82.9997 59.4019 79.9954 62.4566 80.0266 66.1939L80.089 73.7472C80.1197 77.4845 83.1744 80.9803 86.9117 80.9496L88.6474 80.9371L94.214 86.1609L99.4248 80.8401L95.2407 85.0944L89.953 79.8941Z" fill="#E29837"/>
<path d="M108.743 65.8464C108.713 62.2214 105.75 59.3068 102.125 59.3371L102.025 59.338L88.3387 59.4513C84.7138 59.4816 81.7992 62.4446 81.8295 66.0696L81.8899 73.3968C81.9202 77.0217 84.8832 79.9363 88.5082 79.906L89.9535 79.894L95.2411 85.0948L99.4253 80.8406L100.441 79.8076L102.294 79.7923C105.919 79.762 108.834 76.799 108.804 73.174L108.743 65.8464Z" fill="#FFB54A"/>
<path d="M95.2003 76.6848C94.3051 76.6848 93.4656 76.5547 92.6808 76.2955C91.8965 76.0358 91.2144 75.6379 90.6341 75.1022C90.0542 74.5661 89.5982 73.8897 89.2666 73.0718C88.9349 72.2544 88.7693 71.2819 88.7693 70.1549C88.7693 69.0609 88.9325 68.0889 89.2584 67.2379C89.5838 66.3873 90.048 65.6717 90.6504 65.0913C91.2523 64.511 91.9738 64.0694 92.8133 63.7656C93.6528 63.4617 94.5869 63.3101 95.6146 63.3101C96.6754 63.3101 97.5955 63.4507 98.3746 63.7325C99.1536 64.0142 99.8026 64.4179 100.322 64.9425C100.841 65.4677 101.228 66.1085 101.482 66.8654C101.736 67.6224 101.863 68.4705 101.863 69.4094C101.863 70.7352 101.587 71.7715 101.035 72.5169C100.482 73.2629 99.6643 73.6358 98.5814 73.6358C98.2939 73.6358 98.0429 73.5945 97.8274 73.5115C97.6118 73.4285 97.4294 73.3209 97.2806 73.188C97.1314 73.0555 97.0181 72.9091 96.9408 72.7488C96.863 72.5889 96.8136 72.4257 96.7915 72.2597H96.7253C96.4378 72.6907 96.0624 73.0137 95.5982 73.2293C95.1341 73.4448 94.6536 73.5528 94.1563 73.5528C93.4046 73.5528 92.8306 73.2849 92.4326 72.7488C92.0347 72.2131 91.836 71.4974 91.836 70.6022C91.836 69.9835 91.9296 69.4118 92.1178 68.8867C92.3054 68.3621 92.5738 67.9089 92.9218 67.5278C93.2698 67.1467 93.695 66.851 94.1981 66.6413C94.7006 66.4315 95.2613 66.3264 95.8805 66.3264C96.2784 66.3264 96.7118 66.3821 97.1813 66.492C97.465 66.5587 97.7534 66.6437 98.0472 66.7469C98.3851 66.8654 98.5853 67.2168 98.5181 67.5691L97.9853 70.3709C97.9627 70.5144 97.9406 70.6608 97.919 70.8101C97.8965 70.9593 97.8859 71.1 97.8859 71.2329C97.8859 71.4873 97.944 71.6947 98.0602 71.8545C98.1758 72.0149 98.3832 72.095 98.6818 72.095C99.1013 72.095 99.4301 71.8574 99.6677 71.3822C99.9053 70.907 100.024 70.2499 100.024 69.4099C100.024 68.04 99.6648 66.9681 98.9472 66.1944C98.2286 65.4211 97.1184 65.0342 95.6155 65.0342C94.8638 65.0342 94.1789 65.1475 93.5606 65.3741C92.9414 65.6006 92.4139 65.9318 91.9776 66.3686C91.5408 66.8054 91.2043 67.3411 90.9667 67.9761C90.7291 68.6117 90.6106 69.3384 90.6106 70.1558C90.6106 70.9958 90.7291 71.7197 90.9667 72.3269C91.2043 72.9345 91.5302 73.4376 91.945 73.835C92.3592 74.2329 92.8454 74.5253 93.4037 74.7134C93.9614 74.9011 94.561 74.9952 95.2018 74.9952C95.6434 74.9952 96.1493 74.9371 96.7181 74.8209C97.0853 74.7461 97.465 74.6563 97.8571 74.5517C98.2282 74.4528 98.6136 74.6597 98.7336 75.024L98.8104 75.2568C98.9405 75.6509 98.7139 76.0766 98.3136 76.1851C97.8586 76.3085 97.4179 76.4117 96.9917 76.4947C96.3384 76.6214 95.7418 76.6848 95.2003 76.6848ZM94.5874 71.9942C94.9738 71.9942 95.3357 71.8425 95.6731 71.5382C96.0101 71.2344 96.2395 70.751 96.361 70.0881L96.6106 68.687C96.6878 68.2521 96.3629 67.835 95.9213 67.8341C95.9184 67.8341 95.9155 67.8341 95.9131 67.8341C95.5819 67.8341 95.2776 67.9032 95.0016 68.0414C94.7251 68.1797 94.488 68.3731 94.2888 68.6217C94.0901 68.8704 93.935 69.1632 93.8246 69.5001C93.7142 69.8371 93.659 70.2043 93.659 70.6022C93.659 71.0112 93.7306 71.3457 93.8746 71.6049C94.0181 71.8646 94.2557 71.9942 94.5874 71.9942Z" fill="white"/>
</svg>
