<svg width="20" height="20" viewBox="0 0 20 20" fill="none" xmlns="http://www.w3.org/2000/svg">
<path d="M11.2821 2.94868C11.2821 2.23954 10.7092 1.66663 10.0001 1.66663C9.29095 1.66663 8.71803 2.23954 8.71803 2.94868V8.71791H2.9488C2.23966 8.71791 1.66675 9.29082 1.66675 9.99996C1.66675 10.7091 2.23966 11.282 2.9488 11.282H8.71803V17.0512C8.71803 17.7604 9.29095 18.3333 10.0001 18.3333C10.7092 18.3333 11.2821 17.7604 11.2821 17.0512V11.282H17.0514C17.7605 11.282 18.3334 10.7091 18.3334 9.99996C18.3334 9.29082 17.7605 8.71791 17.0514 8.71791H11.2821V2.94868Z" fill="#344054"/>
</svg>
