<svg width="28" height="28" viewBox="0 0 28 28" fill="none" xmlns="http://www.w3.org/2000/svg">
<mask id="mask0_18667_4831" style="mask-type:luminance" maskUnits="userSpaceOnUse" x="4" y="16" width="20" height="10">
<path fill-rule="evenodd" clip-rule="evenodd" d="M4.66663 16.9121H23.1465V25.5151H4.66663V16.9121Z" fill="white"/>
</mask>
<g mask="url(#mask0_18667_4831)">
<path fill-rule="evenodd" clip-rule="evenodd" d="M13.9077 18.6621C8.9365 18.6621 6.4165 19.5161 6.4165 21.2019C6.4165 22.9029 8.9365 23.7651 13.9077 23.7651C18.8777 23.7651 21.3965 22.9111 21.3965 21.2253C21.3965 19.5243 18.8777 18.6621 13.9077 18.6621ZM13.9077 25.5151C11.6222 25.5151 4.6665 25.5151 4.6665 21.2019C4.6665 17.3566 9.941 16.9121 13.9077 16.9121C16.1932 16.9121 23.1465 16.9121 23.1465 21.2253C23.1465 25.0706 17.8732 25.5151 13.9077 25.5151Z" fill="black"/>
</g>
<mask id="mask1_18667_4831" style="mask-type:luminance" maskUnits="userSpaceOnUse" x="7" y="2" width="14" height="13">
<path fill-rule="evenodd" clip-rule="evenodd" d="M7.71155 2.3335H20.1016V14.7219H7.71155V2.3335Z" fill="white"/>
</mask>
<g mask="url(#mask1_18667_4831)">
<path fill-rule="evenodd" clip-rule="evenodd" d="M13.9078 3.99901C11.4099 3.99901 9.37758 6.03017 9.37758 8.52801C9.36942 11.0177 11.3866 13.0477 13.8739 13.057L13.9078 13.89V13.057C16.4044 13.057 18.4356 11.0247 18.4356 8.52801C18.4356 6.03017 16.4044 3.99901 13.9078 3.99901ZM13.9078 14.7218H13.8704C10.4614 14.7113 7.69992 11.9312 7.71158 8.52451C7.71158 5.11201 10.4906 2.33301 13.9078 2.33301C17.3238 2.33301 20.1016 5.11201 20.1016 8.52801C20.1016 11.944 17.3238 14.7218 13.9078 14.7218Z" fill="black"/>
</g>
</svg>
