<svg width="22" height="22" viewBox="0 0 22 22" fill="none" xmlns="http://www.w3.org/2000/svg">
<g clip-path="url(#clip0_18474_36584)">
<path d="M2.75 10.0833H10.0833V2.75H2.75V10.0833ZM4.58333 4.58333H8.25V8.25H4.58333V4.58333Z" fill="black"/>
<path d="M2.75 19.25H10.0833V11.9167H2.75V19.25ZM4.58333 13.75H8.25V17.4167H4.58333V13.75Z" fill="black"/>
<path d="M11.9165 2.75V10.0833H19.2498V2.75H11.9165ZM17.4165 8.25H13.7498V4.58333H17.4165V8.25Z" fill="black"/>
<path d="M19.2498 17.4167H17.4165V19.25H19.2498V17.4167Z" fill="black"/>
<path d="M13.7498 11.9167H11.9165V13.75H13.7498V11.9167Z" fill="black"/>
<path d="M15.5833 13.75H13.75V15.5833H15.5833V13.75Z" fill="black"/>
<path d="M13.7498 15.5833H11.9165V17.4167H13.7498V15.5833Z" fill="black"/>
<path d="M15.5833 17.4167H13.75V19.25H15.5833V17.4167Z" fill="black"/>
<path d="M17.4168 15.5833H15.5835V17.4167H17.4168V15.5833Z" fill="black"/>
<path d="M17.4168 11.9167H15.5835V13.75H17.4168V11.9167Z" fill="black"/>
<path d="M19.2498 13.75H17.4165V15.5833H19.2498V13.75Z" fill="black"/>
</g>
<defs>
<clipPath id="clip0_18474_36584">
<rect width="22" height="22" fill="white"/>
</clipPath>
</defs>
</svg>
