<svg width="22" height="21" viewBox="0 0 22 21" fill="none" xmlns="http://www.w3.org/2000/svg">
<path d="M17.8943 3.60572C21.7019 7.41333 21.7019 13.5867 17.8943 17.3943C14.0867 21.2019 7.91332 21.2019 4.10571 17.3943C0.298097 13.5867 0.298097 7.41333 4.10571 3.60572C7.91332 -0.201895 14.0867 -0.201895 17.8943 3.60572ZM15.1653 4.56694C12.3364 2.57591 8.40328 2.84368 5.87348 5.37348C3.34371 7.90325 3.0767 11.8357 5.06762 14.6646L15.1653 4.56694ZM6.83539 16.4324C9.66429 18.4233 13.5968 18.1563 16.1265 15.6265C18.6563 13.0967 18.9241 9.16362 16.9331 6.33471L6.83539 16.4324Z" fill="#F15C6D"/>
</svg>
