<svg width="20" height="18" viewBox="0 0 20 18" fill="none" xmlns="http://www.w3.org/2000/svg">
<path d="M2.5704 1.32429C2.85556 0.529879 3.60875 0 4.4528 0H12.4061C13.5106 0 14.4061 0.895431 14.4061 2V10C14.4061 10.4664 14.2464 10.8956 13.9787 11.2358C13.9511 11.2763 13.92 11.3157 13.8853 11.3538L8.53211 17.2141C7.87889 17.9292 6.6922 17.3909 6.79999 16.4284L7.17146 13.1113C7.23783 12.5186 6.77403 12 6.17767 12H3.00256C0.925917 12 -0.52264 9.94097 0.178958 7.98644L2.5704 1.32429Z" fill="#F15C6D"/>
<path d="M15.7509 1C15.7509 0.447715 16.1986 0 16.7509 0H18.7509C19.3032 0 19.7509 0.447715 19.7509 1V9.5C19.7509 10.0523 19.3032 10.5 18.7509 10.5H16.7509C16.1986 10.5 15.7509 10.0523 15.7509 9.5V1Z" fill="#F15C6D"/>
</svg>
