<svg width="20" height="20" viewBox="0 0 20 20" fill="none" xmlns="http://www.w3.org/2000/svg">
<path d="M15.2087 8.43749C15.2087 9.93163 14.7236 11.3118 13.9066 12.4316L18.0277 16.556C18.4346 16.9629 18.4346 17.6237 18.0277 18.0306C17.6208 18.4375 16.96 18.4375 16.5531 18.0306L12.432 13.9062C11.3122 14.7266 9.93197 15.2083 8.43783 15.2083C4.69759 15.2083 1.66699 12.1777 1.66699 8.43749C1.66699 4.69726 4.69759 1.66666 8.43783 1.66666C12.1781 1.66666 15.2087 4.69726 15.2087 8.43749ZM8.43783 13.125C9.0534 13.125 9.66294 13.0037 10.2317 12.7682C10.8004 12.5326 11.3171 12.1873 11.7524 11.7521C12.1877 11.3168 12.5329 10.8 12.7685 10.2313C13.0041 9.6626 13.1253 9.05306 13.1253 8.43749C13.1253 7.82192 13.0041 7.21237 12.7685 6.64366C12.5329 6.07495 12.1877 5.5582 11.7524 5.12293C11.3171 4.68765 10.8004 4.34237 10.2317 4.1068C9.66294 3.87124 9.0534 3.74999 8.43783 3.74999C7.82225 3.74999 7.21271 3.87124 6.644 4.1068C6.07528 4.34237 5.55854 4.68765 5.12326 5.12293C4.68799 5.5582 4.34271 6.07495 4.10714 6.64366C3.87157 7.21237 3.75033 7.82192 3.75033 8.43749C3.75033 9.05306 3.87157 9.6626 4.10714 10.2313C4.34271 10.8 4.68799 11.3168 5.12326 11.7521C5.55854 12.1873 6.07528 12.5326 6.644 12.7682C7.21271 13.0037 7.82225 13.125 8.43783 13.125Z" fill="#344054"/>
</svg>
