<svg width="20" height="23" viewBox="0 0 20 23" fill="none" xmlns="http://www.w3.org/2000/svg">
<path d="M17.6407 12.137C17.6818 11.7832 17.7127 11.4295 17.7127 11.0537C17.7127 10.6779 17.6818 10.3242 17.6407 9.97044L19.8099 8.14657C20.0052 7.98077 20.0566 7.68232 19.9333 7.43914L17.8772 3.61456C17.7846 3.4377 17.6099 3.33822 17.4248 3.33822C17.3631 3.33822 17.3014 3.34927 17.25 3.37138L14.6902 4.47675C14.1556 4.0346 13.5799 3.66983 12.9528 3.39349L12.5621 0.464255C12.5313 0.198967 12.3154 0 12.0584 0H7.94616C7.68915 0 7.47326 0.198967 7.44242 0.464255L7.05176 3.39349C6.42464 3.66983 5.84894 4.04565 5.31435 4.47675L2.7545 3.37138C2.69281 3.34927 2.63113 3.33822 2.56945 3.33822C2.39468 3.33822 2.21991 3.4377 2.12738 3.61456L0.0712765 7.43914C-0.0623704 7.68232 -0.00068705 7.98077 0.194643 8.14657L2.36384 9.97044C2.32271 10.3242 2.29187 10.6889 2.29187 11.0537C2.29187 11.4185 2.32271 11.7832 2.36384 12.137L0.194643 13.9608C-0.00068705 14.1266 -0.0520898 14.4251 0.0712765 14.6683L2.12738 18.4928C2.21991 18.6697 2.39468 18.7692 2.57973 18.7692C2.64141 18.7692 2.70309 18.7581 2.7545 18.736L5.31435 17.6306C5.84894 18.0728 6.42464 18.4376 7.05176 18.7139L7.44242 21.6431C7.47326 21.9084 7.68915 22.1074 7.94616 22.1074H12.0584C12.3154 22.1074 12.5313 21.9084 12.5621 21.6431L12.9528 18.7139C13.5799 18.4376 14.1556 18.0617 14.6902 17.6306L17.25 18.736C17.3117 18.7581 17.3734 18.7692 17.4351 18.7692C17.6099 18.7692 17.7846 18.6697 17.8772 18.4928L19.9333 14.6683C20.0566 14.4251 20.0052 14.1266 19.8099 13.9608L17.6407 12.137ZM15.6052 10.2468C15.6463 10.5894 15.6566 10.8216 15.6566 11.0537C15.6566 11.2858 15.636 11.529 15.6052 11.8606L15.4612 13.1097L16.3762 13.8834L17.4865 14.812L16.7669 16.1495L15.4612 15.5857L14.3921 15.1215L13.4668 15.8731C13.0247 16.2268 12.6032 16.4921 12.1817 16.68L11.092 17.1553L10.9275 18.4044L10.7219 19.8967H9.28263L9.0873 18.4044L8.92281 17.1553L7.83308 16.68C7.39102 16.4811 6.97979 16.2268 6.56857 15.8952L5.63304 15.1215L4.54331 15.5968L3.23768 16.1605L2.51804 14.823L3.62834 13.8945L4.54331 13.1207L4.39938 11.8717C4.36854 11.529 4.34798 11.2748 4.34798 11.0537C4.34798 10.8326 4.36854 10.5784 4.39938 10.2468L4.54331 8.99771L3.62834 8.22395L2.51804 7.29544L3.23768 5.95794L4.54331 6.52168L5.61248 6.98594L6.53773 6.23429C6.97979 5.88057 7.4013 5.61528 7.8228 5.42737L8.91253 4.95206L9.07702 3.70299L9.28263 2.21074H10.7116L10.907 3.70299L11.0714 4.95206L12.1612 5.42737C12.6032 5.62633 13.0145 5.88057 13.4257 6.21218L14.3612 6.98594L15.451 6.51063L16.7566 5.94689L17.4762 7.28439L16.3762 8.22395L15.4612 8.99771L15.6052 10.2468ZM10.0023 6.63222C7.73027 6.63222 5.89006 8.61083 5.89006 11.0537C5.89006 13.4966 7.73027 15.4752 10.0023 15.4752C12.2743 15.4752 14.1145 13.4966 14.1145 11.0537C14.1145 8.61083 12.2743 6.63222 10.0023 6.63222ZM10.0023 13.2644C8.87141 13.2644 7.94616 12.2696 7.94616 11.0537C7.94616 9.83779 8.87141 8.84296 10.0023 8.84296C11.1331 8.84296 12.0584 9.83779 12.0584 11.0537C12.0584 12.2696 11.1331 13.2644 10.0023 13.2644Z" fill="#101828"/>
</svg>
