<svg width="20" height="20" viewBox="0 0 20 20" fill="none" xmlns="http://www.w3.org/2000/svg">
<path d="M10.0001 18.3333C12.2102 18.3333 14.3298 17.4553 15.8926 15.8925C17.4554 14.3297 18.3334 12.2101 18.3334 9.99996C18.3334 7.78982 17.4554 5.67021 15.8926 4.1074C14.3298 2.5446 12.2102 1.66663 10.0001 1.66663C7.78994 1.66663 5.67033 2.5446 4.10753 4.1074C2.54472 5.67021 1.66675 7.78982 1.66675 9.99996C1.66675 12.2101 2.54472 14.3297 4.10753 15.8925C5.67033 17.4553 7.78994 18.3333 10.0001 18.3333ZM7.00855 12.2623C7.59123 12.9362 8.58732 13.6458 10.0001 13.6458C11.4128 13.6458 12.4089 12.9362 12.9916 12.2623C13.1804 12.0442 13.5092 12.0214 13.7273 12.2102C13.9454 12.399 13.9682 12.7278 13.7794 12.9459C13.0535 13.7793 11.7937 14.6875 10.0001 14.6875C8.20646 14.6875 6.9467 13.7793 6.22078 12.9459C6.03198 12.7278 6.05477 12.399 6.27287 12.2102C6.49097 12.0214 6.81974 12.0442 7.00855 12.2623ZM6.36727 8.43746C6.36727 8.16119 6.47702 7.89624 6.67237 7.70089C6.86772 7.50554 7.13267 7.39579 7.40894 7.39579C7.6852 7.39579 7.95016 7.50554 8.14551 7.70089C8.34086 7.89624 8.4506 8.16119 8.4506 8.43746C8.4506 8.71373 8.34086 8.97868 8.14551 9.17403C7.95016 9.36938 7.6852 9.47913 7.40894 9.47913C7.13267 9.47913 6.86772 9.36938 6.67237 9.17403C6.47702 8.97868 6.36727 8.71373 6.36727 8.43746ZM12.6173 7.39579C12.8935 7.39579 13.1585 7.50554 13.3538 7.70089C13.5492 7.89624 13.6589 8.16119 13.6589 8.43746C13.6589 8.71373 13.5492 8.97868 13.3538 9.17403C13.1585 9.36938 12.8935 9.47913 12.6173 9.47913C12.341 9.47913 12.0761 9.36938 11.8807 9.17403C11.6853 8.97868 11.5756 8.71373 11.5756 8.43746C11.5756 8.16119 11.6853 7.89624 11.8807 7.70089C12.0761 7.50554 12.341 7.39579 12.6173 7.39579Z" fill="#344054"/>
</svg>
