<svg width="12" height="12" viewBox="0 0 12 12" fill="none" xmlns="http://www.w3.org/2000/svg">
<path d="M6.68958 1.35156C6.58606 1.13672 6.36731 1 6.12708 1C5.88684 1 5.67005 1.13672 5.56458 1.35156L4.30872 3.93555L1.50403 4.34961C1.26966 4.38477 1.07434 4.54883 1.00208 4.77344C0.929813 4.99805 0.988407 5.24609 1.15638 5.41211L3.19153 7.42578L2.71106 10.2715C2.672 10.5059 2.76966 10.7441 2.96302 10.8828C3.15638 11.0215 3.41224 11.0391 3.62317 10.9277L6.12903 9.58984L8.63489 10.9277C8.84583 11.0391 9.10169 11.0234 9.29505 10.8828C9.48841 10.7422 9.58606 10.5059 9.547 10.2715L9.06458 7.42578L11.0997 5.41211C11.2677 5.24609 11.3282 4.99805 11.254 4.77344C11.1798 4.54883 10.9865 4.38477 10.7521 4.34961L7.94544 3.93555L6.68958 1.35156Z" fill="#FAC515"/>
</svg>
