<svg width="22" height="22" viewBox="0 0 22 22" fill="none" xmlns="http://www.w3.org/2000/svg">
<path d="M19.7363 6.67392L8.7363 17.6739C8.67245 17.7378 8.59663 17.7886 8.51317 17.8232C8.4297 17.8578 8.34024 17.8756 8.24989 17.8756C8.15955 17.8756 8.07008 17.8578 7.98662 17.8232C7.90316 17.7886 7.82734 17.7378 7.76349 17.6739L2.95099 12.8614C2.82198 12.7324 2.74951 12.5575 2.74951 12.375C2.74951 12.1926 2.82198 12.0176 2.95099 11.8886C3.07999 11.7596 3.25496 11.6871 3.43739 11.6871C3.61983 11.6871 3.7948 11.7596 3.9238 11.8886L8.24989 16.2156L18.7635 5.70111C18.8925 5.57211 19.0675 5.49963 19.2499 5.49963C19.4323 5.49963 19.6073 5.57211 19.7363 5.70111C19.8653 5.83011 19.9378 6.00508 19.9378 6.18752C19.9378 6.36995 19.8653 6.54492 19.7363 6.67392Z" fill="white"/>
</svg>
