<svg width="21" height="20" viewBox="0 0 21 20" fill="none" xmlns="http://www.w3.org/2000/svg">
<path d="M17.3698 2.72455C19.4824 4.44005 20.8333 7.06374 20.8333 9.99994C20.8333 12.9361 19.4824 15.5566 17.3698 17.2753C17.0345 17.5488 16.543 17.4967 16.2695 17.1614C15.9961 16.8261 16.0482 16.3346 16.3835 16.0611C18.1478 14.6288 19.2708 12.4479 19.2708 9.99994C19.2708 7.55202 18.1478 5.37104 16.3835 3.93549C16.0482 3.66205 15.9993 3.17051 16.2695 2.83523C16.5397 2.49994 17.0345 2.45111 17.3698 2.7213V2.72455ZM15.4004 5.14968C16.8066 6.29551 17.7083 8.04356 17.7083 9.99994C17.7083 11.9563 16.8066 13.7044 15.4004 14.8502C15.0651 15.1236 14.5736 15.0716 14.3001 14.7363C14.0267 14.401 14.0788 13.9094 14.4141 13.636C15.472 12.7766 16.1458 11.468 16.1458 9.99994C16.1458 8.53184 15.472 7.22325 14.4141 6.36062C14.0788 6.08718 14.0299 5.59564 14.3001 5.26036C14.5703 4.92507 15.0651 4.87624 15.4004 5.14643V5.14968ZM13.431 7.57481C14.1309 8.14773 14.5833 9.02012 14.5833 9.99994C14.5833 10.9798 14.1309 11.8522 13.431 12.4251C13.0957 12.6985 12.6042 12.6464 12.3307 12.3111C12.0573 11.9759 12.1094 11.4843 12.4447 11.2109C12.7962 10.9244 13.0208 10.4882 13.0208 9.99994C13.0208 9.51166 12.7962 9.07546 12.4447 8.78575C12.1094 8.51231 12.0605 8.02077 12.3307 7.68549C12.6009 7.3502 13.0957 7.30137 13.431 7.57156V7.57481ZM9.80143 2.79942C10.1758 2.96869 10.4167 3.33979 10.4167 3.74994V16.2499C10.4167 16.6601 10.1758 17.0312 9.80143 17.2005C9.42708 17.3697 8.98763 17.3014 8.68164 17.0279L4.29036 13.1249H2.08333C0.934245 13.1249 0 12.1907 0 11.0416V8.95827C0 7.80919 0.934245 6.87494 2.08333 6.87494H4.29036L8.68164 2.97195C8.98763 2.69851 9.42708 2.63341 9.80143 2.79942Z" fill="#344054"/>
</svg>
