<svg width="20" height="20" viewBox="0 0 20 20" fill="none" xmlns="http://www.w3.org/2000/svg">
<path d="M9.89592 1.66663C8.17065 1.66663 6.77092 3.06637 6.77092 4.79163V9.99996C6.77092 11.7252 8.17065 13.125 9.89592 13.125C11.6212 13.125 13.0209 11.7252 13.0209 9.99996V4.79163C13.0209 3.06637 11.6212 1.66663 9.89592 1.66663ZM5.72925 8.69788C5.72925 8.26493 5.38094 7.91663 4.948 7.91663C4.51506 7.91663 4.16675 8.26493 4.16675 8.69788V9.99996C4.16675 12.9004 6.3217 15.2962 9.11467 15.677V16.7708H7.55217C7.11922 16.7708 6.77092 17.1191 6.77092 17.552C6.77092 17.985 7.11922 18.3333 7.55217 18.3333H12.2397C12.6726 18.3333 13.0209 17.985 13.0209 17.552C13.0209 17.1191 12.6726 16.7708 12.2397 16.7708H10.6772V15.677C13.4701 15.2962 15.6251 12.9004 15.6251 9.99996V8.69788C15.6251 8.26493 15.2768 7.91663 14.8438 7.91663C14.4109 7.91663 14.0626 8.26493 14.0626 8.69788V9.99996C14.0626 12.3014 12.1973 14.1666 9.89592 14.1666C7.59448 14.1666 5.72925 12.3014 5.72925 9.99996V8.69788Z" fill="#344054"/>
</svg>
